<ttFont>
    <TTGlyph name="A" xMin="-25" yMin="1" xMax="390" yMax="701">
      <contour>
        <pt x="293" y="623" on="1"/>
        <pt x="292" y="623" on="1"/>
        <pt x="257" y="532" on="0"/>
        <pt x="185" y="355" on="0"/>
        <pt x="150" y="264" on="1"/>
        <pt x="307" y="264" on="1"/>
      </contour>
      <contour>
        <pt x="43" y="1" on="1"/>
        <pt x="-25" y="1" on="1"/>
        <pt x="258" y="701" on="1"/>
        <pt x="353" y="701" on="1"/>
        <pt x="390" y="1" on="1"/>
        <pt x="323" y="1" on="1"/>
        <pt x="312" y="192" on="1"/>
        <pt x="119" y="192" on="1"/>
      </contour>
    </TTGlyph>
    <TTGlyph name="AE" xMin="-38" yMin="1" xMax="763" yMax="700">
      <contour>
        <pt x="197" y="264" on="1"/>
        <pt x="249" y="264" on="0"/>
        <pt x="346" y="263" on="0"/>
        <pt x="397" y="263" on="1"/>
        <pt x="413" y="354" on="0"/>
        <pt x="445" y="531" on="0"/>
        <pt x="461" y="622" on="1"/>
        <pt x="451" y="622" on="0"/>
        <pt x="432" y="623" on="0"/>
        <pt x="421" y="623" on="1"/>
      </contour>
      <contour>
        <pt x="763" y="700" on="1"/>
        <pt x="751" y="630" on="1"/>
        <pt x="529" y="630" on="1"/>
        <pt x="486" y="387" on="1"/>
        <pt x="660" y="387" on="1"/>
        <pt x="647" y="317" on="1"/>
        <pt x="473" y="317" on="1"/>
        <pt x="430" y="72" on="1"/>
        <pt x="654" y="72" on="1"/>
        <pt x="642" y="1" on="1"/>
        <pt x="351" y="1" on="1"/>
        <pt x="384" y="192" on="1"/>
        <pt x="150" y="192" on="1"/>
        <pt x="30" y="1" on="1"/>
        <pt x="-38" y="1" on="1"/>
        <pt x="406" y="700" on="1"/>
      </contour>
    </TTGlyph>
    <TTGlyph name="Aacute" xMin="-25" yMin="1" xMax="490" yMax="931">
      <component glyphName="A" x="0" y="0" flags="0x1204"/>
      <component glyphName="acute" x="-9" y="200" flags="0x1004"/>
    </TTGlyph>
    <TTGlyph name="Acircumflex" xMin="-25" yMin="1" xMax="461" yMax="944">
      <component glyphName="A" x="0" y="0" flags="0x1204"/>
      <component glyphName="circumflex" x="22" y="200" flags="0x1004"/>
    </TTGlyph>
    <TTGlyph name="Adieresis" xMin="-25" yMin="1" xMax="468" yMax="872">
      <component glyphName="A" x="0" y="0" flags="0x1204"/>
      <component glyphName="dieresis" x="-10" y="200" flags="0x1004"/>
    </TTGlyph>
    <TTGlyph name="Agrave" xMin="-25" yMin="1" xMax="390" yMax="930">
      <component glyphName="A" x="0" y="0" flags="0x1204"/>
      <component glyphName="grave" x="-21" y="200" flags="0x1004"/>
    </TTGlyph>
    <TTGlyph name="Atilde" xMin="-25" yMin="1" xMax="475" yMax="851">
      <component glyphName="A" x="0" y="0" flags="0x1204"/>
      <component glyphName="tilde" x="-27" y="200" flags="0x1004"/>
    </TTGlyph>
    <TTGlyph name="B" xMin="24" yMin="0" xMax="447" yMax="710">
      <contour>
        <pt x="149" y="321" on="1"/>
        <pt x="105" y="71" on="1"/>
        <pt x="222" y="71" on="1"/>
        <pt x="249" y="71" on="0"/>
        <pt x="289" y="90" on="0"/>
        <pt x="317" y="123" on="0"/>
        <pt x="334" y="168" on="0"/>
        <pt x="339" y="193" on="1"/>
        <pt x="343" y="219" on="0"/>
        <pt x="342" y="266" on="0"/>
        <pt x="326" y="301" on="0"/>
        <pt x="293" y="321" on="0"/>
        <pt x="266" y="321" on="1"/>
      </contour>
      <contour>
        <pt x="372" y="514" on="1"/>
        <pt x="374" y="538" on="0"/>
        <pt x="369" y="583" on="0"/>
        <pt x="351" y="618" on="0"/>
        <pt x="318" y="639" on="0"/>
        <pt x="294" y="639" on="1"/>
        <pt x="284" y="639" on="0"/>
        <pt x="243" y="633" on="0"/>
        <pt x="201" y="617" on="1"/>
        <pt x="161" y="391" on="1"/>
        <pt x="255" y="391" on="1"/>
        <pt x="283" y="391" on="0"/>
        <pt x="323" y="411" on="0"/>
        <pt x="351" y="444" on="0"/>
        <pt x="367" y="489" on="0"/>
      </contour>
      <contour>
        <pt x="315" y="710" on="1"/>
        <pt x="348" y="710" on="0"/>
        <pt x="380" y="695" on="0"/>
        <pt x="386" y="690" on="1"/>
        <pt x="387" y="689" on="0"/>
        <pt x="387" y="689" on="1"/>
        <pt x="419" y="667" on="0"/>
        <pt x="457" y="576" on="0"/>
        <pt x="447" y="518" on="1"/>
        <pt x="443" y="496" on="0"/>
        <pt x="432" y="453" on="0"/>
        <pt x="413" y="412" on="0"/>
        <pt x="383" y="373" on="0"/>
        <pt x="360" y="356" on="1"/>
        <pt x="383" y="338" on="0"/>
        <pt x="407" y="300" on="0"/>
        <pt x="417" y="260" on="0"/>
        <pt x="414" y="217" on="0"/>
        <pt x="410" y="193" on="1"/>
        <pt x="405" y="162" on="0"/>
        <pt x="383" y="110" on="0"/>
        <pt x="358" y="71" on="0"/>
        <pt x="336" y="47" on="0"/>
        <pt x="331" y="44" on="1"/>
        <pt x="310" y="27" on="0"/>
        <pt x="252" y="0" on="0"/>
        <pt x="210" y="0" on="1"/>
        <pt x="24" y="0" on="1"/>
        <pt x="142" y="670" on="1"/>
        <pt x="184" y="685" on="0"/>
        <pt x="246" y="702" on="0"/>
        <pt x="259" y="704" on="1"/>
        <pt x="273" y="707" on="0"/>
        <pt x="302" y="710" on="0"/>
      </contour>
    </TTGlyph>
    <TTGlyph name="C" xMin="45" yMin="-10" xMax="474" yMax="710">
      <contour>
        <pt x="112" y="191" on="1"/>
        <pt x="107" y="161" on="0"/>
        <pt x="118" y="113" on="0"/>
        <pt x="146" y="79" on="0"/>
        <pt x="188" y="60" on="0"/>
        <pt x="212" y="59" on="1"/>
        <pt x="219" y="59" on="0"/>
        <pt x="233" y="61" on="0"/>
        <pt x="256" y="68" on="0"/>
        <pt x="289" y="80" on="0"/>
        <pt x="316" y="90" on="1"/>
        <pt x="351" y="104" on="1"/>
        <pt x="366" y="35" on="1"/>
        <pt x="273" y="4" on="1"/>
        <pt x="256" y="-2" on="0"/>
        <pt x="214" y="-10" on="0"/>
        <pt x="200" y="-10" on="1"/>
        <pt x="162" y="-10" on="0"/>
        <pt x="98" y="17" on="0"/>
        <pt x="55" y="68" on="0"/>
        <pt x="37" y="141" on="0"/>
        <pt x="45" y="186" on="1"/>
        <pt x="101" y="503" on="1"/>
        <pt x="109" y="544" on="0"/>
        <pt x="152" y="619" on="0"/>
        <pt x="173" y="639" on="1"/>
        <pt x="193" y="658" on="0"/>
        <pt x="221" y="678" on="0"/>
        <pt x="235" y="686" on="1"/>
        <pt x="241" y="688" on="1"/>
        <pt x="238" y="687" on="1"/>
        <pt x="250" y="693" on="0"/>
        <pt x="294" y="710" on="0"/>
        <pt x="329" y="710" on="1"/>
        <pt x="344" y="710" on="0"/>
        <pt x="382" y="700" on="0"/>
        <pt x="396" y="695" on="1"/>
        <pt x="474" y="663" on="1"/>
        <pt x="440" y="598" on="1"/>
        <pt x="354" y="633" on="1"/>
        <pt x="345" y="637" on="0"/>
        <pt x="326" y="643" on="0"/>
        <pt x="318" y="643" on="1"/>
        <pt x="293" y="643" on="0"/>
        <pt x="244" y="619" on="0"/>
        <pt x="203" y="580" on="0"/>
        <pt x="174" y="530" on="0"/>
        <pt x="169" y="503" on="1"/>
      </contour>
    </TTGlyph>
    <TTGlyph name="Ccedilla" xMin="45" yMin="-218" xMax="474" yMax="710">
      <component glyphName="C" x="0" y="0" flags="0x1204"/>
      <component glyphName="cedilla" x="-8" y="0" flags="0x1004"/>
    </TTGlyph>
    <TTGlyph name="D" xMin="23" yMin="-10" xMax="451" yMax="710">
      <contour>
        <pt x="136" y="669" on="1"/>
        <pt x="204" y="695" on="0"/>
        <pt x="289" y="710" on="0"/>
        <pt x="303" y="710" on="1"/>
        <pt x="343" y="710" on="0"/>
        <pt x="405" y="677" on="0"/>
        <pt x="444" y="620" on="0"/>
        <pt x="458" y="546" on="0"/>
        <pt x="451" y="504" on="1"/>
        <pt x="396" y="188" on="1"/>
        <pt x="388" y="146" on="0"/>
        <pt x="343" y="73" on="0"/>
        <pt x="280" y="20" on="0"/>
        <pt x="204" y="-10" on="0"/>
        <pt x="165" y="-10" on="1"/>
        <pt x="157" y="-10" on="0"/>
        <pt x="135" y="-8" on="0"/>
        <pt x="102" y="-1" on="0"/>
        <pt x="55" y="14" on="0"/>
        <pt x="23" y="28" on="1"/>
      </contour>
      <contour>
        <pt x="378" y="504" on="1"/>
        <pt x="385" y="546" on="0"/>
        <pt x="359" y="609" on="0"/>
        <pt x="340" y="624" on="1"/>
        <pt x="329" y="632" on="0"/>
        <pt x="301" y="639" on="0"/>
        <pt x="290" y="639" on="1"/>
        <pt x="269" y="639" on="0"/>
        <pt x="218" y="622" on="0"/>
        <pt x="195" y="613" on="1"/>
        <pt x="101" y="82" on="1"/>
        <pt x="134" y="68" on="0"/>
        <pt x="171" y="62" on="0"/>
        <pt x="181" y="62" on="1"/>
        <pt x="185" y="62" on="1"/>
        <pt x="208" y="62" on="0"/>
        <pt x="254" y="84" on="0"/>
        <pt x="293" y="122" on="0"/>
        <pt x="321" y="170" on="0"/>
        <pt x="326" y="197" on="1"/>
      </contour>
    </TTGlyph>
    <TTGlyph name="E" xMin="25" yMin="1" xMax="438" yMax="700">
      <contour>
        <pt x="438" y="700" on="1"/>
        <pt x="426" y="630" on="1"/>
        <pt x="205" y="630" on="1"/>
        <pt x="162" y="387" on="1"/>
        <pt x="335" y="387" on="1"/>
        <pt x="322" y="317" on="1"/>
        <pt x="149" y="317" on="1"/>
        <pt x="106" y="72" on="1"/>
        <pt x="329" y="72" on="1"/>
        <pt x="317" y="1" on="1"/>
        <pt x="25" y="1" on="1"/>
        <pt x="148" y="700" on="1"/>
      </contour>
    </TTGlyph>
    <TTGlyph name="Eacute" xMin="25" yMin="1" xMax="459" yMax="925">
      <component glyphName="E" x="0" y="0" flags="0x1204"/>
      <component glyphName="acute" x="-40" y="194" flags="0x1004"/>
    </TTGlyph>
    <TTGlyph name="Ecircumflex" xMin="25" yMin="1" xMax="438" yMax="944">
      <component glyphName="E" x="0" y="0" flags="0x1204"/>
      <component glyphName="circumflex" x="-14" y="200" flags="0x1004"/>
    </TTGlyph>
    <TTGlyph name="Edieresis" xMin="25" yMin="1" xMax="450" yMax="872">
      <component glyphName="E" x="0" y="0" flags="0x1204"/>
      <component glyphName="dieresis" x="-28" y="200" flags="0x1004"/>
    </TTGlyph>
    <TTGlyph name="Egrave" xMin="25" yMin="1" xMax="438" yMax="930">
      <component glyphName="E" x="0" y="0" flags="0x1204"/>
      <component glyphName="grave" x="-30" y="200" flags="0x1004"/>
    </TTGlyph>
    <TTGlyph name="Euro" xMin="32" yMin="0" xMax="454" yMax="660">
      <contour>
        <pt x="387" y="140" on="1"/>
        <pt x="382" y="110" on="0"/>
        <pt x="352" y="59" on="0"/>
        <pt x="309" y="21" on="0"/>
        <pt x="255" y="0" on="0"/>
        <pt x="227" y="0" on="1"/>
        <pt x="195" y="0" on="1"/>
        <pt x="166" y="0" on="0"/>
        <pt x="121" y="21" on="0"/>
        <pt x="91" y="59" on="0"/>
        <pt x="79" y="110" on="0"/>
        <pt x="84" y="140" on="1"/>
        <pt x="102" y="243" on="1"/>
        <pt x="32" y="243" on="1"/>
        <pt x="42" y="300" on="1"/>
        <pt x="112" y="300" on="1"/>
        <pt x="123" y="360" on="1"/>
        <pt x="53" y="360" on="1"/>
        <pt x="63" y="416" on="1"/>
        <pt x="133" y="416" on="1"/>
        <pt x="151" y="519" on="1"/>
        <pt x="156" y="549" on="0"/>
        <pt x="186" y="601" on="0"/>
        <pt x="230" y="638" on="0"/>
        <pt x="283" y="660" on="0"/>
        <pt x="312" y="660" on="1"/>
        <pt x="344" y="660" on="1"/>
        <pt x="372" y="660" on="0"/>
        <pt x="417" y="638" on="0"/>
        <pt x="447" y="601" on="0"/>
        <pt x="459" y="549" on="0"/>
        <pt x="454" y="519" on="1"/>
        <pt x="449" y="490" on="1"/>
        <pt x="386" y="490" on="1"/>
        <pt x="391" y="519" on="1"/>
        <pt x="397" y="555" on="0"/>
        <pt x="353" y="593" on="0"/>
        <pt x="320" y="593" on="1"/>
        <pt x="283" y="593" on="0"/>
        <pt x="222" y="562" on="0"/>
        <pt x="214" y="519" on="1"/>
        <pt x="196" y="416" on="1"/>
        <pt x="345" y="416" on="1"/>
        <pt x="335" y="360" on="1"/>
        <pt x="186" y="360" on="1"/>
        <pt x="175" y="300" on="1"/>
        <pt x="324" y="300" on="1"/>
        <pt x="314" y="243" on="1"/>
        <pt x="165" y="243" on="1"/>
        <pt x="148" y="143" on="1"/>
        <pt x="142" y="111" on="0"/>
        <pt x="176" y="65" on="0"/>
        <pt x="207" y="65" on="1"/>
        <pt x="238" y="65" on="1"/>
        <pt x="268" y="65" on="0"/>
        <pt x="319" y="111" on="0"/>
        <pt x="325" y="143" on="1"/>
        <pt x="330" y="172" on="1"/>
        <pt x="393" y="172" on="1"/>
      </contour>
    </TTGlyph>
    <TTGlyph name="F" xMin="25" yMin="0" xMax="438" yMax="700">
      <contour>
        <pt x="438" y="700" on="1"/>
        <pt x="426" y="630" on="1"/>
        <pt x="205" y="630" on="1"/>
        <pt x="162" y="386" on="1"/>
        <pt x="335" y="386" on="1"/>
        <pt x="322" y="317" on="1"/>
        <pt x="149" y="317" on="1"/>
        <pt x="94" y="0" on="1"/>
        <pt x="25" y="0" on="1"/>
        <pt x="148" y="700" on="1"/>
      </contour>
    </TTGlyph>
    <TTGlyph name="G" xMin="45" yMin="-10" xMax="456" yMax="710">
      <contour>
        <pt x="112" y="180" on="1"/>
        <pt x="107" y="154" on="0"/>
        <pt x="120" y="110" on="0"/>
        <pt x="147" y="76" on="0"/>
        <pt x="187" y="57" on="0"/>
        <pt x="211" y="57" on="1"/>
        <pt x="221" y="57" on="0"/>
        <pt x="255" y="64" on="0"/>
        <pt x="291" y="81" on="1"/>
        <pt x="324" y="270" on="1"/>
        <pt x="393" y="270" on="1"/>
        <pt x="352" y="38" on="1"/>
        <pt x="320" y="22" on="0"/>
        <pt x="268" y="3" on="0"/>
        <pt x="229" y="-7" on="0"/>
        <pt x="203" y="-10" on="0"/>
        <pt x="196" y="-10" on="1"/>
        <pt x="155" y="-10" on="0"/>
        <pt x="92" y="23" on="0"/>
        <pt x="53" y="78" on="0"/>
        <pt x="38" y="152" on="0"/>
        <pt x="46" y="194" on="1"/>
        <pt x="101" y="506" on="1"/>
        <pt x="111" y="553" on="0"/>
        <pt x="153" y="629" on="0"/>
        <pt x="211" y="682" on="0"/>
        <pt x="284" y="710" on="0"/>
        <pt x="325" y="710" on="1"/>
        <pt x="340" y="709" on="0"/>
        <pt x="378" y="701" on="0"/>
        <pt x="393" y="695" on="1"/>
        <pt x="456" y="669" on="1"/>
        <pt x="420" y="599" on="1"/>
        <pt x="349" y="628" on="1"/>
        <pt x="328" y="638" on="0"/>
        <pt x="312" y="638" on="1"/>
        <pt x="288" y="638" on="0"/>
        <pt x="241" y="616" on="0"/>
        <pt x="202" y="580" on="0"/>
        <pt x="174" y="532" on="0"/>
        <pt x="170" y="506" on="1"/>
      </contour>
    </TTGlyph>
    <TTGlyph name="H" xMin="25" yMin="1" xMax="512" yMax="700">
      <contour>
        <pt x="217" y="700" on="1"/>
        <pt x="162" y="389" on="1"/>
        <pt x="387" y="389" on="1"/>
        <pt x="442" y="700" on="1"/>
        <pt x="512" y="700" on="1"/>
        <pt x="389" y="1" on="1"/>
        <pt x="319" y="1" on="1"/>
        <pt x="375" y="318" on="1"/>
        <pt x="150" y="318" on="1"/>
        <pt x="94" y="1" on="1"/>
        <pt x="25" y="1" on="1"/>
        <pt x="148" y="700" on="1"/>
      </contour>
    </TTGlyph>
    <TTGlyph name="I" xMin="25" yMin="0" xMax="213" yMax="700">
      <contour>
        <pt x="148" y="700" on="1"/>
        <pt x="213" y="700" on="1"/>
        <pt x="90" y="0" on="1"/>
        <pt x="25" y="0" on="1"/>
      </contour>
    </TTGlyph>
    <TTGlyph name="Iacute" xMin="25" yMin="0" xMax="373" yMax="931">
      <component glyphName="I" x="0" y="0" flags="0x1204"/>
      <component glyphName="acute" x="-126" y="200" flags="0x1004"/>
    </TTGlyph>
    <TTGlyph name="Icircumflex" xMin="25" yMin="0" xMax="338" yMax="944">
      <component glyphName="I" x="0" y="0" flags="0x1204"/>
      <component glyphName="circumflex" x="-101" y="200" flags="0x1004"/>
    </TTGlyph>
    <TTGlyph name="Idieresis" xMin="25" yMin="0" xMax="342" yMax="872">
      <component glyphName="I" x="0" y="0" flags="0x1204"/>
      <component glyphName="dieresis" x="-136" y="200" flags="0x1004"/>
    </TTGlyph>
    <TTGlyph name="Igrave" xMin="25" yMin="0" xMax="230" yMax="930">
      <component glyphName="I" x="0" y="0" flags="0x1204"/>
      <component glyphName="grave" x="-137" y="200" flags="0x1004"/>
    </TTGlyph>
    <TTGlyph name="J" xMin="-34" yMin="-10" xMax="311" yMax="700">
      <contour>
        <pt x="212" y="140" on="1"/>
        <pt x="204" y="97" on="0"/>
        <pt x="185" y="39" on="0"/>
        <pt x="153" y="5" on="0"/>
        <pt x="102" y="-10" on="0"/>
        <pt x="63" y="-10" on="1"/>
        <pt x="59" y="-10" on="0"/>
        <pt x="33" y="-8" on="0"/>
        <pt x="3" y="-5" on="0"/>
        <pt x="-27" y="-1" on="0"/>
        <pt x="-34" y="1" on="1"/>
        <pt x="-9" y="73" on="1"/>
        <pt x="-4" y="71" on="0"/>
        <pt x="22" y="68" on="0"/>
        <pt x="49" y="65" on="0"/>
        <pt x="71" y="63" on="0"/>
        <pt x="73" y="63" on="1"/>
        <pt x="84" y="63" on="0"/>
        <pt x="106" y="68" on="0"/>
        <pt x="124" y="83" on="0"/>
        <pt x="139" y="110" on="0"/>
        <pt x="143" y="133" on="1"/>
        <pt x="243" y="700" on="1"/>
        <pt x="311" y="700" on="1"/>
        <pt x="212" y="140" on="1"/>
      </contour>
    </TTGlyph>
    <TTGlyph name="K" xMin="25" yMin="0" xMax="448" yMax="700">
      <contour>
        <pt x="248" y="0" on="1"/>
        <pt x="165" y="313" on="1"/>
        <pt x="148" y="313" on="1"/>
        <pt x="93" y="0" on="1"/>
        <pt x="25" y="0" on="1"/>
        <pt x="148" y="700" on="1"/>
        <pt x="216" y="700" on="1"/>
        <pt x="160" y="385" on="1"/>
        <pt x="176" y="385" on="1"/>
        <pt x="226" y="463" on="0"/>
        <pt x="323" y="620" on="0"/>
        <pt x="373" y="698" on="1"/>
        <pt x="448" y="698" on="1"/>
        <pt x="233" y="348" on="1"/>
        <pt x="323" y="0" on="1"/>
      </contour>
    </TTGlyph>
    <TTGlyph name="L" xMin="25" yMin="0" xMax="324" yMax="700">
      <contour>
        <pt x="148" y="700" on="1"/>
        <pt x="217" y="700" on="1"/>
        <pt x="106" y="69" on="1"/>
        <pt x="324" y="69" on="1"/>
        <pt x="312" y="0" on="1"/>
        <pt x="25" y="0" on="1"/>
      </contour>
    </TTGlyph>
    <TTGlyph name="Lslash" xMin="-4" yMin="1" xMax="360" yMax="700">
      <contour>
        <pt x="314" y="1" on="1"/>
        <pt x="27" y="1" on="1"/>
        <pt x="63" y="206" on="1"/>
        <pt x="-4" y="206" on="1"/>
        <pt x="8" y="273" on="1"/>
        <pt x="75" y="273" on="1"/>
        <pt x="150" y="700" on="1"/>
        <pt x="220" y="700" on="1"/>
        <pt x="145" y="273" on="1"/>
        <pt x="360" y="273" on="1"/>
        <pt x="348" y="206" on="1"/>
        <pt x="133" y="206" on="1"/>
        <pt x="109" y="70" on="1"/>
        <pt x="326" y="70" on="1"/>
      </contour>
    </TTGlyph>
    <TTGlyph name="M" xMin="25" yMin="0" xMax="605" yMax="700">
      <contour>
        <pt x="303" y="274" on="1"/>
        <pt x="508" y="700" on="1"/>
        <pt x="605" y="700" on="1"/>
        <pt x="482" y="0" on="1"/>
        <pt x="416" y="0" on="1"/>
        <pt x="516" y="571" on="1"/>
        <pt x="515" y="571" on="1"/>
        <pt x="335" y="202" on="1"/>
        <pt x="240" y="202" on="1"/>
        <pt x="191" y="569" on="1"/>
        <pt x="91" y="0" on="1"/>
        <pt x="25" y="0" on="1"/>
        <pt x="148" y="700" on="1"/>
        <pt x="246" y="700" on="1"/>
        <pt x="299" y="274" on="1"/>
      </contour>
    </TTGlyph>
    <TTGlyph name="N" xMin="25" yMin="0" xMax="552" yMax="700">
      <contour>
        <pt x="552" y="700" on="1"/>
        <pt x="429" y="0" on="1"/>
        <pt x="323" y="0" on="1"/>
        <pt x="190" y="571" on="1"/>
        <pt x="189" y="571" on="1"/>
        <pt x="89" y="0" on="1"/>
        <pt x="25" y="0" on="1"/>
        <pt x="148" y="700" on="1"/>
        <pt x="230" y="700" on="1"/>
        <pt x="376" y="81" on="1"/>
        <pt x="378" y="81" on="1"/>
        <pt x="487" y="700" on="1"/>
      </contour>
    </TTGlyph>
    <TTGlyph name="Ntilde" xMin="25" yMin="0" xMax="552" yMax="851">
      <component glyphName="N" x="0" y="0" flags="0x1204"/>
      <component glyphName="tilde" x="16" y="200" flags="0x1004"/>
    </TTGlyph>
    <TTGlyph name="O" xMin="43" yMin="-9" xMax="496" yMax="709">
      <contour>
        <pt x="428" y="520" on="1"/>
        <pt x="435" y="557" on="0"/>
        <pt x="414" y="602" on="0"/>
        <pt x="378" y="627" on="0"/>
        <pt x="335" y="635" on="0"/>
        <pt x="320" y="635" on="1"/>
        <pt x="305" y="635" on="0"/>
        <pt x="260" y="626" on="0"/>
        <pt x="215" y="601" on="0"/>
        <pt x="178" y="556" on="0"/>
        <pt x="172" y="519" on="1"/>
        <pt x="111" y="175" on="1"/>
        <pt x="105" y="137" on="0"/>
        <pt x="126" y="94" on="0"/>
        <pt x="162" y="71" on="0"/>
        <pt x="205" y="65" on="0"/>
        <pt x="220" y="65" on="1"/>
        <pt x="235" y="65" on="0"/>
        <pt x="280" y="72" on="0"/>
        <pt x="325" y="95" on="0"/>
        <pt x="361" y="138" on="0"/>
        <pt x="367" y="175" on="1"/>
      </contour>
      <contour>
        <pt x="434" y="175" on="1"/>
        <pt x="430" y="153" on="0"/>
        <pt x="402" y="90" on="0"/>
        <pt x="348" y="32" on="0"/>
        <pt x="264" y="-9" on="0"/>
        <pt x="206" y="-9" on="1"/>
        <pt x="149" y="-9" on="0"/>
        <pt x="82" y="32" on="0"/>
        <pt x="47" y="90" on="0"/>
        <pt x="40" y="153" on="0"/>
        <pt x="44" y="175" on="1"/>
        <pt x="105" y="519" on="1"/>
        <pt x="109" y="541" on="0"/>
        <pt x="138" y="606" on="0"/>
        <pt x="193" y="666" on="0"/>
        <pt x="276" y="709" on="0"/>
        <pt x="334" y="709" on="1"/>
        <pt x="391" y="709" on="0"/>
        <pt x="458" y="667" on="0"/>
        <pt x="492" y="607" on="0"/>
        <pt x="499" y="542" on="0"/>
        <pt x="495" y="520" on="1"/>
      </contour>
    </TTGlyph>
    <TTGlyph name="OE" xMin="45" yMin="1" xMax="750" yMax="719">
      <contour>
        <pt x="222" y="75" on="1"/>
        <pt x="235" y="75" on="0"/>
        <pt x="275" y="83" on="0"/>
        <pt x="317" y="104" on="0"/>
        <pt x="353" y="140" on="0"/>
        <pt x="364" y="169" on="1"/>
        <pt x="431" y="546" on="1"/>
        <pt x="433" y="577" on="0"/>
        <pt x="410" y="616" on="0"/>
        <pt x="375" y="638" on="0"/>
        <pt x="336" y="645" on="0"/>
        <pt x="322" y="645" on="1"/>
        <pt x="307" y="645" on="0"/>
        <pt x="261" y="636" on="0"/>
        <pt x="216" y="610" on="0"/>
        <pt x="179" y="565" on="0"/>
        <pt x="173" y="528" on="1"/>
        <pt x="112" y="184" on="1"/>
        <pt x="105" y="147" on="0"/>
        <pt x="126" y="104" on="0"/>
        <pt x="163" y="81" on="0"/>
        <pt x="207" y="75" on="0"/>
      </contour>
      <contour>
        <pt x="336" y="11" on="1"/>
        <pt x="342" y="40" on="1"/>
        <pt x="316" y="23" on="0"/>
        <pt x="250" y="1" on="0"/>
        <pt x="208" y="1" on="1"/>
        <pt x="151" y="1" on="0"/>
        <pt x="83" y="42" on="0"/>
        <pt x="49" y="99" on="0"/>
        <pt x="41" y="162" on="0"/>
        <pt x="45" y="185" on="1"/>
        <pt x="106" y="528" on="1"/>
        <pt x="110" y="550" on="0"/>
        <pt x="139" y="616" on="0"/>
        <pt x="194" y="676" on="0"/>
        <pt x="277" y="719" on="0"/>
        <pt x="335" y="719" on="1"/>
        <pt x="377" y="719" on="0"/>
        <pt x="434" y="695" on="0"/>
        <pt x="454" y="675" on="1"/>
        <pt x="460" y="710" on="1"/>
        <pt x="750" y="710" on="1"/>
        <pt x="737" y="640" on="1"/>
        <pt x="517" y="640" on="1"/>
        <pt x="475" y="397" on="1"/>
        <pt x="647" y="397" on="1"/>
        <pt x="634" y="326" on="1"/>
        <pt x="462" y="326" on="1"/>
        <pt x="419" y="81" on="1"/>
        <pt x="641" y="81" on="1"/>
        <pt x="628" y="11" on="1"/>
      </contour>
    </TTGlyph>
    <TTGlyph name="Oacute" xMin="43" yMin="-9" xMax="521" yMax="931">
      <component glyphName="O" x="0" y="0" flags="0x1204"/>
      <component glyphName="acute" x="22" y="200" flags="0x1004"/>
    </TTGlyph>
    <TTGlyph name="Ocircumflex" xMin="43" yMin="-9" xMax="496" yMax="944">
      <component glyphName="O" x="0" y="0" flags="0x1204"/>
      <component glyphName="circumflex" x="49" y="200" flags="0x1004"/>
    </TTGlyph>
    <TTGlyph name="Odieresis" xMin="43" yMin="-9" xMax="496" yMax="872">
      <component glyphName="O" x="0" y="0" flags="0x1204"/>
      <component glyphName="dieresis" x="18" y="200" flags="0x1004"/>
    </TTGlyph>
    <TTGlyph name="Ograve" xMin="43" yMin="-9" xMax="496" yMax="930">
      <component glyphName="O" x="0" y="0" flags="0x1204"/>
      <component glyphName="grave" x="20" y="200" flags="0x1004"/>
    </TTGlyph>
    <TTGlyph name="Oslash" xMin="44" yMin="-65" xMax="497" yMax="765">
      <contour>
        <pt x="428" y="520" on="1"/>
        <pt x="435" y="557" on="0"/>
        <pt x="414" y="602" on="0"/>
        <pt x="378" y="627" on="0"/>
        <pt x="335" y="635" on="0"/>
        <pt x="320" y="635" on="1"/>
        <pt x="305" y="635" on="0"/>
        <pt x="260" y="626" on="0"/>
        <pt x="215" y="601" on="0"/>
        <pt x="178" y="556" on="0"/>
        <pt x="172" y="519" on="1"/>
        <pt x="111" y="175" on="1"/>
        <pt x="105" y="137" on="0"/>
        <pt x="126" y="94" on="0"/>
        <pt x="162" y="71" on="0"/>
        <pt x="205" y="65" on="0"/>
        <pt x="220" y="65" on="1"/>
        <pt x="235" y="65" on="0"/>
        <pt x="280" y="72" on="0"/>
        <pt x="325" y="95" on="0"/>
        <pt x="361" y="138" on="0"/>
        <pt x="367" y="175" on="1"/>
      </contour>
      <contour>
        <pt x="435" y="175" on="1"/>
        <pt x="431" y="153" on="0"/>
        <pt x="403" y="90" on="0"/>
        <pt x="348" y="32" on="0"/>
        <pt x="264" y="-9" on="0"/>
        <pt x="206" y="-9" on="1"/>
        <pt x="150" y="-9" on="0"/>
        <pt x="82" y="32" on="0"/>
        <pt x="48" y="90" on="0"/>
        <pt x="40" y="153" on="0"/>
        <pt x="44" y="175" on="1"/>
        <pt x="105" y="519" on="1"/>
        <pt x="109" y="541" on="0"/>
        <pt x="138" y="606" on="0"/>
        <pt x="193" y="666" on="0"/>
        <pt x="276" y="709" on="0"/>
        <pt x="334" y="709" on="1"/>
        <pt x="391" y="709" on="0"/>
        <pt x="458" y="667" on="0"/>
        <pt x="493" y="607" on="0"/>
        <pt x="500" y="542" on="0"/>
        <pt x="496" y="520" on="1"/>
      </contour>
      <contour>
        <pt x="441" y="765" on="1"/>
        <pt x="173" y="-65" on="1"/>
        <pt x="100" y="-65" on="1"/>
        <pt x="368" y="765" on="1"/>
      </contour>
    </TTGlyph>
    <TTGlyph name="Otilde" xMin="43" yMin="-9" xMax="502" yMax="851">
      <component glyphName="O" x="0" y="0" flags="0x1204"/>
      <component glyphName="tilde" x="0" y="200" flags="0x1004"/>
    </TTGlyph>
    <TTGlyph name="P" xMin="24" yMin="0" xMax="500" yMax="710">
      <contour>
        <pt x="305" y="639" on="1"/>
        <pt x="289" y="639" on="0"/>
        <pt x="252" y="632" on="0"/>
        <pt x="236" y="627" on="1"/>
        <pt x="218" y="622" on="0"/>
        <pt x="199" y="616" on="1"/>
        <pt x="152" y="351" on="1"/>
        <pt x="254" y="351" on="1"/>
        <pt x="322" y="351" on="0"/>
        <pt x="417" y="426" on="0"/>
        <pt x="431" y="500" on="1"/>
        <pt x="437" y="536" on="0"/>
        <pt x="424" y="589" on="0"/>
        <pt x="390" y="623" on="0"/>
        <pt x="338" y="639" on="0"/>
      </contour>
      <contour>
        <pt x="326" y="710" on="1"/>
        <pt x="368" y="710" on="0"/>
        <pt x="439" y="680" on="0"/>
        <pt x="487" y="625" on="0"/>
        <pt x="508" y="548" on="0"/>
        <pt x="500" y="500" on="1"/>
        <pt x="491" y="452" on="0"/>
        <pt x="445" y="371" on="0"/>
        <pt x="378" y="312" on="0"/>
        <pt x="294" y="280" on="0"/>
        <pt x="249" y="280" on="1"/>
        <pt x="139" y="280" on="1"/>
        <pt x="90" y="0" on="1"/>
        <pt x="24" y="0" on="1"/>
        <pt x="141" y="669" on="1"/>
        <pt x="170" y="680" on="0"/>
        <pt x="202" y="689" on="1"/>
        <pt x="229" y="697" on="0"/>
        <pt x="294" y="710" on="0"/>
      </contour>
    </TTGlyph>
    <TTGlyph name="Q" xMin="43" yMin="-101" xMax="496" yMax="709">
      <contour>
        <pt x="426" y="518" on="1"/>
        <pt x="432" y="555" on="0"/>
        <pt x="412" y="601" on="0"/>
        <pt x="377" y="628" on="0"/>
        <pt x="336" y="638" on="0"/>
        <pt x="321" y="638" on="1"/>
        <pt x="306" y="638" on="0"/>
        <pt x="262" y="628" on="0"/>
        <pt x="217" y="602" on="0"/>
        <pt x="180" y="556" on="0"/>
        <pt x="174" y="519" on="1"/>
        <pt x="113" y="175" on="1"/>
        <pt x="107" y="137" on="0"/>
        <pt x="127" y="94" on="0"/>
        <pt x="163" y="71" on="0"/>
        <pt x="205" y="65" on="0"/>
        <pt x="220" y="65" on="1"/>
        <pt x="235" y="65" on="0"/>
        <pt x="279" y="71" on="0"/>
        <pt x="323" y="94" on="0"/>
        <pt x="359" y="137" on="0"/>
        <pt x="365" y="175" on="1"/>
      </contour>
      <contour>
        <pt x="434" y="175" on="1"/>
        <pt x="431" y="156" on="0"/>
        <pt x="407" y="103" on="0"/>
        <pt x="365" y="51" on="0"/>
        <pt x="303" y="7" on="0"/>
        <pt x="263" y="-3" on="1"/>
        <pt x="270" y="-19" on="0"/>
        <pt x="290" y="-28" on="1"/>
        <pt x="258" y="-101" on="1"/>
        <pt x="228" y="-87" on="0"/>
        <pt x="189" y="-41" on="0"/>
        <pt x="185" y="-8" on="1"/>
        <pt x="136" y="-3" on="0"/>
        <pt x="77" y="40" on="0"/>
        <pt x="47" y="95" on="0"/>
        <pt x="40" y="154" on="0"/>
        <pt x="44" y="175" on="1"/>
        <pt x="105" y="518" on="1"/>
        <pt x="109" y="540" on="0"/>
        <pt x="138" y="605" on="0"/>
        <pt x="193" y="666" on="0"/>
        <pt x="276" y="709" on="0"/>
        <pt x="334" y="709" on="1"/>
        <pt x="391" y="709" on="0"/>
        <pt x="458" y="666" on="0"/>
        <pt x="492" y="605" on="0"/>
        <pt x="499" y="540" on="0"/>
        <pt x="495" y="518" on="1"/>
      </contour>
    </TTGlyph>
    <TTGlyph name="R" xMin="24" yMin="0" xMax="501" yMax="710">
      <contour>
        <pt x="305" y="639" on="1"/>
        <pt x="289" y="639" on="0"/>
        <pt x="252" y="632" on="0"/>
        <pt x="236" y="628" on="1"/>
        <pt x="218" y="623" on="0"/>
        <pt x="199" y="617" on="1"/>
        <pt x="153" y="352" on="1"/>
        <pt x="255" y="352" on="1"/>
        <pt x="323" y="352" on="0"/>
        <pt x="418" y="432" on="0"/>
        <pt x="432" y="507" on="1"/>
        <pt x="438" y="543" on="0"/>
        <pt x="425" y="594" on="0"/>
        <pt x="391" y="625" on="0"/>
        <pt x="338" y="639" on="0"/>
      </contour>
      <contour>
        <pt x="424" y="0" on="1"/>
        <pt x="356" y="0" on="1"/>
        <pt x="283" y="283" on="1"/>
        <pt x="275" y="282" on="0"/>
        <pt x="257" y="281" on="0"/>
        <pt x="249" y="281" on="1"/>
        <pt x="139" y="281" on="1"/>
        <pt x="90" y="0" on="1"/>
        <pt x="24" y="0" on="1"/>
        <pt x="141" y="669" on="1"/>
        <pt x="171" y="680" on="0"/>
        <pt x="203" y="689" on="1"/>
        <pt x="230" y="697" on="0"/>
        <pt x="295" y="710" on="0"/>
        <pt x="326" y="710" on="1"/>
        <pt x="368" y="710" on="0"/>
        <pt x="439" y="683" on="0"/>
        <pt x="488" y="630" on="0"/>
        <pt x="509" y="555" on="0"/>
        <pt x="501" y="507" on="1"/>
        <pt x="495" y="474" on="0"/>
        <pt x="468" y="411" on="0"/>
        <pt x="429" y="356" on="0"/>
        <pt x="381" y="314" on="0"/>
        <pt x="355" y="302" on="1"/>
      </contour>
    </TTGlyph>
    <TTGlyph name="S" xMin="0" yMin="1" xMax="460" yMax="710">
      <contour>
        <pt x="428" y="208" on="1"/>
        <pt x="420" y="166" on="0"/>
        <pt x="378" y="90" on="0"/>
        <pt x="316" y="34" on="0"/>
        <pt x="240" y="1" on="0"/>
        <pt x="199" y="1" on="1"/>
        <pt x="160" y="1" on="0"/>
        <pt x="88" y="22" on="0"/>
        <pt x="60" y="35" on="1"/>
        <pt x="27" y="50" on="0"/>
        <pt x="0" y="69" on="1"/>
        <pt x="35" y="135" on="1"/>
        <pt x="66" y="117" on="0"/>
        <pt x="98" y="104" on="1"/>
        <pt x="124" y="92" on="0"/>
        <pt x="185" y="73" on="0"/>
        <pt x="210" y="73" on="1"/>
        <pt x="236" y="73" on="0"/>
        <pt x="285" y="94" on="0"/>
        <pt x="325" y="130" on="0"/>
        <pt x="353" y="178" on="0"/>
        <pt x="358" y="206" on="1"/>
        <pt x="363" y="234" on="0"/>
        <pt x="343" y="272" on="0"/>
        <pt x="307" y="297" on="0"/>
        <pt x="260" y="311" on="0"/>
        <pt x="238" y="315" on="1"/>
        <pt x="202" y="321" on="0"/>
        <pt x="141" y="352" on="0"/>
        <pt x="100" y="400" on="0"/>
        <pt x="83" y="465" on="0"/>
        <pt x="90" y="506" on="1"/>
        <pt x="97" y="548" on="0"/>
        <pt x="140" y="622" on="0"/>
        <pt x="202" y="677" on="0"/>
        <pt x="277" y="710" on="0"/>
        <pt x="316" y="710" on="1"/>
        <pt x="340" y="710" on="0"/>
        <pt x="391" y="699" on="0"/>
        <pt x="412" y="692" on="1"/>
        <pt x="437" y="684" on="0"/>
        <pt x="460" y="674" on="1"/>
        <pt x="426" y="606" on="1"/>
        <pt x="405" y="615" on="0"/>
        <pt x="383" y="622" on="1"/>
        <pt x="364" y="628" on="0"/>
        <pt x="321" y="639" on="0"/>
        <pt x="301" y="639" on="1"/>
        <pt x="276" y="639" on="0"/>
        <pt x="229" y="617" on="0"/>
        <pt x="190" y="581" on="0"/>
        <pt x="163" y="534" on="0"/>
        <pt x="159" y="509" on="1"/>
        <pt x="154" y="480" on="0"/>
        <pt x="170" y="437" on="0"/>
        <pt x="202" y="407" on="0"/>
        <pt x="242" y="389" on="0"/>
        <pt x="262" y="385" on="1"/>
        <pt x="302" y="378" on="0"/>
        <pt x="370" y="352" on="0"/>
        <pt x="416" y="310" on="0"/>
        <pt x="435" y="250" on="0"/>
      </contour>
    </TTGlyph>
    <TTGlyph name="Scaron" xMin="0" yMin="1" xMax="499" yMax="943">
      <component glyphName="S" x="0" y="0" flags="0x1204"/>
      <component glyphName="caron" x="35" y="200" flags="0x1004"/>
    </TTGlyph>
    <TTGlyph name="T" xMin="76" yMin="0" xMax="474" yMax="700">
      <contour>
        <pt x="462" y="633" on="1"/>
        <pt x="305" y="633" on="1"/>
        <pt x="194" y="0" on="1"/>
        <pt x="127" y="0" on="1"/>
        <pt x="238" y="633" on="1"/>
        <pt x="76" y="633" on="1"/>
        <pt x="88" y="700" on="1"/>
        <pt x="474" y="700" on="1"/>
      </contour>
    </TTGlyph>
    <TTGlyph name="Thorn" xMin="-19" yMin="-244" xMax="397" yMax="700">
      <contour>
        <pt x="103" y="80" on="1"/>
        <pt x="127" y="67" on="0"/>
        <pt x="175" y="55" on="0"/>
        <pt x="204" y="55" on="1"/>
        <pt x="219" y="55" on="0"/>
        <pt x="248" y="68" on="0"/>
        <pt x="272" y="89" on="0"/>
        <pt x="289" y="117" on="0"/>
        <pt x="292" y="133" on="1"/>
        <pt x="334" y="372" on="1"/>
        <pt x="340" y="404" on="0"/>
        <pt x="304" y="450" on="0"/>
        <pt x="273" y="450" on="1"/>
        <pt x="252" y="450" on="0"/>
        <pt x="188" y="434" on="0"/>
        <pt x="163" y="420" on="1"/>
      </contour>
      <contour>
        <pt x="174" y="490" on="1"/>
        <pt x="215" y="509" on="0"/>
        <pt x="269" y="514" on="0"/>
        <pt x="284" y="514" on="1"/>
        <pt x="313" y="514" on="0"/>
        <pt x="359" y="491" on="0"/>
        <pt x="389" y="451" on="0"/>
        <pt x="402" y="399" on="0"/>
        <pt x="397" y="369" on="1"/>
        <pt x="356" y="137" on="1"/>
        <pt x="351" y="107" on="0"/>
        <pt x="320" y="54" on="0"/>
        <pt x="275" y="15" on="0"/>
        <pt x="221" y="-7" on="0"/>
        <pt x="192" y="-7" on="1"/>
        <pt x="172" y="-7" on="0"/>
        <pt x="119" y="1" on="0"/>
        <pt x="89" y="15" on="1"/>
        <pt x="43" y="-244" on="1"/>
        <pt x="-19" y="-244" on="1"/>
        <pt x="149" y="700" on="1"/>
        <pt x="211" y="700" on="1"/>
      </contour>
    </TTGlyph>
    <TTGlyph name="U" xMin="52" yMin="-7" xMax="532" yMax="701">
      <contour>
        <pt x="225" y="56" on="1"/>
        <pt x="242" y="56" on="0"/>
        <pt x="289" y="66" on="0"/>
        <pt x="333" y="93" on="0"/>
        <pt x="369" y="139" on="0"/>
        <pt x="376" y="176" on="1"/>
        <pt x="468" y="701" on="1"/>
        <pt x="532" y="701" on="1"/>
        <pt x="440" y="176" on="1"/>
        <pt x="435" y="147" on="0"/>
        <pt x="405" y="82" on="0"/>
        <pt x="351" y="28" on="0"/>
        <pt x="270" y="-7" on="0"/>
        <pt x="214" y="-7" on="1"/>
        <pt x="158" y="-7" on="0"/>
        <pt x="90" y="28" on="0"/>
        <pt x="56" y="82" on="0"/>
        <pt x="49" y="147" on="0"/>
        <pt x="54" y="176" on="1"/>
        <pt x="146" y="701" on="1"/>
        <pt x="211" y="701" on="1"/>
        <pt x="119" y="176" on="1"/>
        <pt x="112" y="139" on="0"/>
        <pt x="129" y="93" on="0"/>
        <pt x="163" y="66" on="0"/>
        <pt x="206" y="56" on="0"/>
      </contour>
    </TTGlyph>
    <TTGlyph name="Uacute" xMin="53" yMin="-7" xMax="533" yMax="931">
      <component glyphName="U" x="1" y="0" flags="0x1004"/>
      <component glyphName="acute" x="19" y="200" flags="0x1004"/>
    </TTGlyph>
    <TTGlyph name="Ucircumflex" xMin="53" yMin="-7" xMax="533" yMax="944">
      <component glyphName="U" x="1" y="0" flags="0x1004"/>
      <component glyphName="circumflex" x="57" y="200" flags="0x1004"/>
    </TTGlyph>
    <TTGlyph name="Udieresis" xMin="53" yMin="-7" xMax="533" yMax="872">
      <component glyphName="U" x="1" y="0" flags="0x1004"/>
      <component glyphName="dieresis" x="21" y="200" flags="0x1004"/>
    </TTGlyph>
    <TTGlyph name="Ugrave" xMin="53" yMin="-7" xMax="533" yMax="930">
      <component glyphName="U" x="1" y="0" flags="0x1004"/>
      <component glyphName="grave" x="29" y="200" flags="0x1004"/>
    </TTGlyph>
    <TTGlyph name="V" xMin="95" yMin="0" xMax="508" yMax="700">
      <contour>
        <pt x="508" y="700" on="1"/>
        <pt x="224" y="0" on="1"/>
        <pt x="129" y="0" on="1"/>
        <pt x="95" y="700" on="1"/>
        <pt x="163" y="700" on="1"/>
        <pt x="190" y="78" on="1"/>
        <pt x="192" y="78" on="1"/>
        <pt x="196" y="88" on="0"/>
        <pt x="221" y="153" on="0"/>
        <pt x="257" y="244" on="0"/>
        <pt x="301" y="354" on="0"/>
        <pt x="323" y="410" on="1"/>
        <pt x="375" y="540" on="0"/>
        <pt x="439" y="700" on="1"/>
      </contour>
    </TTGlyph>
    <TTGlyph name="W" xMin="83" yMin="1" xMax="650" yMax="700">
      <contour>
        <pt x="316" y="347" on="1"/>
        <pt x="179" y="1" on="1"/>
        <pt x="83" y="1" on="1"/>
        <pt x="104" y="700" on="1"/>
        <pt x="169" y="700" on="1"/>
        <pt x="145" y="78" on="1"/>
        <pt x="288" y="432" on="1"/>
        <pt x="374" y="432" on="1"/>
        <pt x="386" y="78" on="1"/>
        <pt x="586" y="700" on="1"/>
        <pt x="650" y="700" on="1"/>
        <pt x="426" y="1" on="1"/>
        <pt x="329" y="1" on="1"/>
      </contour>
    </TTGlyph>
    <TTGlyph name="X" xMin="-30" yMin="0" xMax="499" yMax="700">
      <contour>
        <pt x="224" y="312" on="1"/>
        <pt x="38" y="0" on="1"/>
        <pt x="-30" y="0" on="1"/>
        <pt x="177" y="347" on="1"/>
        <pt x="93" y="700" on="1"/>
        <pt x="161" y="700" on="1"/>
        <pt x="240" y="384" on="1"/>
        <pt x="240" y="384" on="1"/>
        <pt x="431" y="700" on="1"/>
        <pt x="499" y="700" on="1"/>
        <pt x="291" y="347" on="1"/>
        <pt x="375" y="0" on="1"/>
        <pt x="306" y="0" on="1"/>
        <pt x="230" y="312" on="1"/>
      </contour>
    </TTGlyph>
    <TTGlyph name="Y" xMin="84" yMin="0" xMax="490" yMax="700">
      <contour>
        <pt x="262" y="312" on="1"/>
        <pt x="251" y="312" on="1"/>
        <pt x="196" y="0" on="1"/>
        <pt x="131" y="0" on="1"/>
        <pt x="186" y="312" on="1"/>
        <pt x="178" y="312" on="1"/>
        <pt x="84" y="700" on="1"/>
        <pt x="152" y="700" on="1"/>
        <pt x="231" y="384" on="1"/>
        <pt x="231" y="384" on="1"/>
        <pt x="422" y="700" on="1"/>
        <pt x="490" y="700" on="1"/>
      </contour>
    </TTGlyph>
    <TTGlyph name="Yacute" xMin="84" yMin="0" xMax="490" yMax="931">
      <component glyphName="Y" x="0" y="0" flags="0x1204"/>
      <component glyphName="acute" x="-32" y="200" flags="0x1004"/>
    </TTGlyph>
    <TTGlyph name="Ydieresis" xMin="84" yMin="0" xMax="490" yMax="872">
      <component glyphName="Y" x="0" y="0" flags="0x1204"/>
      <component glyphName="dieresis" x="-23" y="200" flags="0x1004"/>
    </TTGlyph>
    <TTGlyph name="Z" xMin="-19" yMin="0" xMax="483" yMax="700">
      <contour>
        <pt x="384" y="628" on="1"/>
        <pt x="384" y="628" on="1"/>
        <pt x="113" y="628" on="1"/>
        <pt x="126" y="700" on="1"/>
        <pt x="483" y="700" on="1"/>
        <pt x="471" y="635" on="1"/>
        <pt x="79" y="72" on="1"/>
        <pt x="79" y="72" on="1"/>
        <pt x="388" y="72" on="1"/>
        <pt x="376" y="0" on="1"/>
        <pt x="-19" y="0" on="1"/>
        <pt x="-7" y="73" on="1"/>
      </contour>
    </TTGlyph>
    <TTGlyph name="Zcaron" xMin="-19" yMin="0" xMax="483" yMax="943">
      <component glyphName="Z" x="0" y="0" flags="0x1204"/>
      <component glyphName="caron" x="17" y="200" flags="0x1004"/>
    </TTGlyph>
    <TTGlyph name="a" xMin="16" yMin="-10" xMax="353" yMax="510">
      <contour>
        <pt x="275" y="243" on="1"/>
        <pt x="275" y="244" on="0"/>
        <pt x="260" y="253" on="0"/>
        <pt x="233" y="263" on="0"/>
        <pt x="197" y="271" on="0"/>
        <pt x="176" y="271" on="1"/>
        <pt x="161" y="271" on="0"/>
        <pt x="132" y="258" on="0"/>
        <pt x="108" y="237" on="0"/>
        <pt x="92" y="209" on="0"/>
        <pt x="89" y="194" on="1"/>
        <pt x="78" y="132" on="1"/>
        <pt x="72" y="100" on="0"/>
        <pt x="107" y="55" on="0"/>
        <pt x="137" y="55" on="1"/>
        <pt x="148" y="55" on="0"/>
        <pt x="186" y="65" on="0"/>
        <pt x="204" y="71" on="1"/>
        <pt x="225" y="78" on="0"/>
        <pt x="248" y="88" on="1"/>
      </contour>
      <contour>
        <pt x="306" y="57" on="1"/>
        <pt x="324" y="37" on="1"/>
        <pt x="271" y="-8" on="1"/>
        <pt x="249" y="19" on="1"/>
        <pt x="215" y="4" on="0"/>
        <pt x="145" y="-10" on="0"/>
        <pt x="127" y="-10" on="1"/>
        <pt x="98" y="-10" on="0"/>
        <pt x="52" y="13" on="0"/>
        <pt x="22" y="53" on="0"/>
        <pt x="11" y="106" on="0"/>
        <pt x="16" y="136" on="1"/>
        <pt x="26" y="191" on="1"/>
        <pt x="31" y="220" on="0"/>
        <pt x="61" y="272" on="0"/>
        <pt x="105" y="311" on="0"/>
        <pt x="158" y="334" on="0"/>
        <pt x="187" y="334" on="1"/>
        <pt x="193" y="334" on="0"/>
        <pt x="218" y="333" on="0"/>
        <pt x="247" y="328" on="0"/>
        <pt x="277" y="319" on="0"/>
        <pt x="289" y="312" on="1"/>
        <pt x="292" y="333" on="1"/>
        <pt x="296" y="354" on="0"/>
        <pt x="288" y="396" on="0"/>
        <pt x="268" y="428" on="0"/>
        <pt x="236" y="448" on="0"/>
        <pt x="217" y="448" on="1"/>
        <pt x="210" y="448" on="0"/>
        <pt x="166" y="438" on="0"/>
        <pt x="143" y="433" on="1"/>
        <pt x="116" y="426" on="0"/>
        <pt x="83" y="418" on="1"/>
        <pt x="77" y="478" on="1"/>
        <pt x="112" y="487" on="0"/>
        <pt x="142" y="494" on="1"/>
        <pt x="168" y="500" on="0"/>
        <pt x="217" y="510" on="0"/>
        <pt x="228" y="510" on="1"/>
        <pt x="260" y="510" on="0"/>
        <pt x="312" y="480" on="0"/>
        <pt x="346" y="430" on="0"/>
        <pt x="359" y="367" on="0"/>
        <pt x="353" y="333" on="1"/>
      </contour>
    </TTGlyph>
    <TTGlyph name="aacute" xMin="16" yMin="-10" xMax="420" yMax="731">
      <component glyphName="a" x="0" y="0" flags="0x1204"/>
      <component glyphName="acute" x="-79" y="0" flags="0x1004"/>
    </TTGlyph>
    <TTGlyph name="acircumflex" xMin="16" yMin="-10" xMax="399" yMax="744">
      <component glyphName="a" x="0" y="0" flags="0x1204"/>
      <component glyphName="circumflex" x="-40" y="0" flags="0x1004"/>
    </TTGlyph>
    <TTGlyph name="acute" xMin="292" yMin="574" xMax="499" yMax="731">
      <contour>
        <pt x="359" y="574" on="1"/>
        <pt x="292" y="574" on="1"/>
        <pt x="422" y="731" on="1"/>
        <pt x="499" y="731" on="1"/>
      </contour>
    </TTGlyph>
    <TTGlyph name="adieresis" xMin="16" yMin="-10" xMax="397" yMax="672">
      <component glyphName="a" x="0" y="0" flags="0x1204"/>
      <component glyphName="dieresis" x="-81" y="0" flags="0x1004"/>
    </TTGlyph>
    <TTGlyph name="ae" xMin="16" yMin="-10" xMax="609" yMax="510">
      <contour>
        <pt x="254" y="24" on="1"/>
        <pt x="218" y="4" on="0"/>
        <pt x="148" y="-10" on="0"/>
        <pt x="128" y="-10" on="1"/>
        <pt x="99" y="-10" on="0"/>
        <pt x="53" y="13" on="0"/>
        <pt x="23" y="53" on="0"/>
        <pt x="11" y="106" on="0"/>
        <pt x="16" y="136" on="1"/>
        <pt x="26" y="191" on="1"/>
        <pt x="31" y="220" on="0"/>
        <pt x="62" y="272" on="0"/>
        <pt x="105" y="311" on="0"/>
        <pt x="159" y="334" on="0"/>
        <pt x="188" y="334" on="1"/>
        <pt x="194" y="334" on="0"/>
        <pt x="218" y="333" on="0"/>
        <pt x="247" y="329" on="0"/>
        <pt x="276" y="320" on="0"/>
        <pt x="288" y="313" on="1"/>
        <pt x="293" y="345" on="1"/>
        <pt x="293" y="364" on="0"/>
        <pt x="283" y="402" on="0"/>
        <pt x="263" y="430" on="0"/>
        <pt x="235" y="448" on="0"/>
        <pt x="217" y="448" on="1"/>
        <pt x="210" y="448" on="0"/>
        <pt x="167" y="438" on="0"/>
        <pt x="144" y="433" on="1"/>
        <pt x="117" y="426" on="0"/>
        <pt x="84" y="418" on="1"/>
        <pt x="77" y="478" on="1"/>
        <pt x="112" y="487" on="0"/>
        <pt x="142" y="494" on="1"/>
        <pt x="168" y="500" on="0"/>
        <pt x="217" y="510" on="0"/>
        <pt x="228" y="510" on="1"/>
        <pt x="264" y="510" on="0"/>
        <pt x="319" y="476" on="0"/>
        <pt x="335" y="447" on="1"/>
        <pt x="359" y="477" on="0"/>
        <pt x="423" y="510" on="0"/>
        <pt x="461" y="510" on="1"/>
        <pt x="494" y="510" on="1"/>
        <pt x="523" y="510" on="0"/>
        <pt x="570" y="488" on="0"/>
        <pt x="602" y="449" on="0"/>
        <pt x="614" y="396" on="0"/>
        <pt x="609" y="365" on="1"/>
        <pt x="603" y="333" on="1"/>
        <pt x="595" y="290" on="0"/>
        <pt x="555" y="232" on="0"/>
        <pt x="496" y="196" on="0"/>
        <pt x="423" y="180" on="0"/>
        <pt x="384" y="180" on="1"/>
        <pt x="356" y="180" on="0"/>
        <pt x="329" y="183" on="1"/>
        <pt x="320" y="133" on="1"/>
        <pt x="322" y="98" on="0"/>
        <pt x="368" y="54" on="0"/>
        <pt x="403" y="54" on="1"/>
        <pt x="405" y="54" on="0"/>
        <pt x="449" y="63" on="0"/>
        <pt x="475" y="69" on="1"/>
        <pt x="505" y="75" on="0"/>
        <pt x="542" y="84" on="1"/>
        <pt x="547" y="18" on="1"/>
        <pt x="508" y="10" on="0"/>
        <pt x="475" y="4" on="1"/>
        <pt x="447" y="-1" on="0"/>
        <pt x="397" y="-9" on="0"/>
        <pt x="392" y="-9" on="1"/>
        <pt x="357" y="-9" on="0"/>
        <pt x="295" y="22" on="0"/>
        <pt x="281" y="40" on="1"/>
      </contour>
      <contour>
        <pt x="177" y="271" on="1"/>
        <pt x="162" y="271" on="0"/>
        <pt x="133" y="258" on="0"/>
        <pt x="109" y="237" on="0"/>
        <pt x="93" y="209" on="0"/>
        <pt x="90" y="194" on="1"/>
        <pt x="79" y="132" on="1"/>
        <pt x="73" y="100" on="0"/>
        <pt x="108" y="55" on="0"/>
        <pt x="138" y="55" on="1"/>
        <pt x="149" y="55" on="0"/>
        <pt x="187" y="65" on="0"/>
        <pt x="205" y="71" on="1"/>
        <pt x="226" y="78" on="0"/>
        <pt x="249" y="88" on="1"/>
        <pt x="256" y="129" on="1"/>
        <pt x="256" y="134" on="0"/>
        <pt x="258" y="145" on="0"/>
        <pt x="259" y="150" on="1"/>
        <pt x="275" y="240" on="1"/>
        <pt x="270" y="243" on="0"/>
        <pt x="252" y="253" on="0"/>
        <pt x="226" y="264" on="0"/>
        <pt x="195" y="271" on="0"/>
      </contour>
      <contour>
        <pt x="448" y="249" on="1"/>
        <pt x="464" y="248" on="0"/>
        <pt x="494" y="261" on="0"/>
        <pt x="519" y="283" on="0"/>
        <pt x="536" y="313" on="0"/>
        <pt x="539" y="329" on="1"/>
        <pt x="546" y="370" on="1"/>
        <pt x="550" y="391" on="0"/>
        <pt x="538" y="420" on="0"/>
        <pt x="514" y="438" on="0"/>
        <pt x="480" y="446" on="0"/>
        <pt x="461" y="446" on="1"/>
        <pt x="427" y="446" on="0"/>
        <pt x="368" y="405" on="0"/>
        <pt x="362" y="370" on="1"/>
        <pt x="340" y="249" on="1"/>
      </contour>
    </TTGlyph>
    <TTGlyph name="agrave" xMin="16" yMin="-10" xMax="353" yMax="730">
      <component glyphName="a" x="0" y="0" flags="0x1204"/>
      <component glyphName="grave" x="-72" y="0" flags="0x1004"/>
    </TTGlyph>
    <TTGlyph name="ampersand" xMin="12" yMin="-9" xMax="543" yMax="708">
      <contour>
        <pt x="222" y="332" on="1"/>
        <pt x="208" y="325" on="0"/>
        <pt x="181" y="309" on="0"/>
        <pt x="168" y="303" on="1"/>
        <pt x="169" y="303" on="1"/>
        <pt x="132" y="283" on="0"/>
        <pt x="85" y="230" on="0"/>
        <pt x="79" y="194" on="1"/>
        <pt x="73" y="163" on="0"/>
        <pt x="87" y="112" on="0"/>
        <pt x="120" y="76" on="0"/>
        <pt x="169" y="57" on="0"/>
        <pt x="199" y="57" on="1"/>
        <pt x="253" y="57" on="0"/>
        <pt x="339" y="98" on="0"/>
        <pt x="374" y="131" on="1"/>
      </contour>
      <contour>
        <pt x="543" y="363" on="1"/>
        <pt x="537" y="335" on="0"/>
        <pt x="522" y="272" on="0"/>
        <pt x="500" y="211" on="0"/>
        <pt x="471" y="153" on="0"/>
        <pt x="453" y="131" on="1"/>
        <pt x="473" y="100" on="0"/>
        <pt x="523" y="31" on="0"/>
        <pt x="543" y="0" on="1"/>
        <pt x="464" y="0" on="1"/>
        <pt x="411" y="84" on="1"/>
        <pt x="366" y="42" on="0"/>
        <pt x="253" y="-9" on="0"/>
        <pt x="187" y="-9" on="1"/>
        <pt x="143" y="-9" on="0"/>
        <pt x="71" y="20" on="0"/>
        <pt x="23" y="72" on="0"/>
        <pt x="4" y="147" on="0"/>
        <pt x="12" y="193" on="1"/>
        <pt x="21" y="247" on="0"/>
        <pt x="86" y="324" on="0"/>
        <pt x="136" y="351" on="1"/>
        <pt x="150" y="359" on="0"/>
        <pt x="175" y="371" on="0"/>
        <pt x="189" y="379" on="1"/>
        <pt x="153" y="429" on="1"/>
        <pt x="133" y="458" on="0"/>
        <pt x="119" y="513" on="0"/>
        <pt x="125" y="548" on="1"/>
        <pt x="131" y="581" on="0"/>
        <pt x="166" y="640" on="0"/>
        <pt x="219" y="683" on="0"/>
        <pt x="285" y="708" on="0"/>
        <pt x="322" y="708" on="1"/>
        <pt x="358" y="708" on="0"/>
        <pt x="416" y="686" on="0"/>
        <pt x="456" y="644" on="0"/>
        <pt x="472" y="585" on="0"/>
        <pt x="466" y="548" on="1"/>
        <pt x="457" y="495" on="0"/>
        <pt x="399" y="428" on="0"/>
        <pt x="354" y="404" on="1"/>
        <pt x="281" y="365" on="1"/>
        <pt x="420" y="181" on="1"/>
        <pt x="446" y="218" on="0"/>
        <pt x="472" y="306" on="0"/>
        <pt x="483" y="363" on="1"/>
      </contour>
      <contour>
        <pt x="403" y="548" on="1"/>
        <pt x="411" y="594" on="0"/>
        <pt x="359" y="648" on="0"/>
        <pt x="312" y="648" on="1"/>
        <pt x="291" y="648" on="0"/>
        <pt x="250" y="634" on="0"/>
        <pt x="217" y="608" on="0"/>
        <pt x="194" y="571" on="0"/>
        <pt x="190" y="548" on="1"/>
        <pt x="188" y="536" on="0"/>
        <pt x="191" y="514" on="0"/>
        <pt x="203" y="484" on="0"/>
        <pt x="228" y="442" on="0"/>
        <pt x="249" y="411" on="1"/>
        <pt x="329" y="456" on="1"/>
        <pt x="358" y="473" on="0"/>
        <pt x="398" y="519" on="0"/>
      </contour>
      <contour>
        <pt x="473" y="11" on="1"/>
        <pt x="462" y="3" on="1"/>
        <pt x="406" y="89" on="1"/>
        <pt x="418" y="97" on="1"/>
      </contour>
    </TTGlyph>
    <TTGlyph name="asciitilde" xMin="35" yMin="220" xMax="416" yMax="325">
      <contour>
        <pt x="416" y="282" on="1"/>
        <pt x="393" y="263" on="0"/>
        <pt x="359" y="239" on="0"/>
        <pt x="330" y="225" on="0"/>
        <pt x="304" y="220" on="0"/>
        <pt x="290" y="220" on="1"/>
        <pt x="271" y="220" on="0"/>
        <pt x="236" y="235" on="0"/>
        <pt x="218" y="244" on="1"/>
        <pt x="201" y="252" on="0"/>
        <pt x="167" y="267" on="0"/>
        <pt x="148" y="267" on="1"/>
        <pt x="140" y="267" on="0"/>
        <pt x="125" y="264" on="0"/>
        <pt x="108" y="256" on="0"/>
        <pt x="86" y="241" on="0"/>
        <pt x="71" y="228" on="1"/>
        <pt x="35" y="263" on="1"/>
        <pt x="57" y="282" on="0"/>
        <pt x="91" y="306" on="0"/>
        <pt x="120" y="320" on="0"/>
        <pt x="146" y="325" on="0"/>
        <pt x="160" y="325" on="1"/>
        <pt x="182" y="325" on="0"/>
        <pt x="218" y="309" on="0"/>
        <pt x="235" y="301" on="1"/>
        <pt x="251" y="292" on="0"/>
        <pt x="284" y="278" on="0"/>
        <pt x="303" y="278" on="1"/>
        <pt x="311" y="278" on="0"/>
        <pt x="325" y="281" on="0"/>
        <pt x="342" y="289" on="0"/>
        <pt x="363" y="304" on="0"/>
        <pt x="378" y="317" on="1"/>
      </contour>
    </TTGlyph>
    <TTGlyph name="asterisk" xMin="42" yMin="159" xMax="369" yMax="482">
      <contour>
        <pt x="313" y="215" on="1"/>
        <pt x="222" y="276" on="1"/>
        <pt x="205" y="159" on="1"/>
        <pt x="149" y="159" on="1"/>
        <pt x="172" y="276" on="1"/>
        <pt x="61" y="215" on="1"/>
        <pt x="42" y="264" on="1"/>
        <pt x="155" y="320" on="1"/>
        <pt x="62" y="376" on="1"/>
        <pt x="98" y="424" on="1"/>
        <pt x="187" y="365" on="1"/>
        <pt x="205" y="482" on="1"/>
        <pt x="261" y="482" on="1"/>
        <pt x="238" y="364" on="1"/>
        <pt x="350" y="424" on="1"/>
        <pt x="369" y="376" on="1"/>
        <pt x="255" y="320" on="1"/>
        <pt x="278" y="306" on="0"/>
        <pt x="326" y="278" on="0"/>
        <pt x="348" y="265" on="1"/>
      </contour>
    </TTGlyph>
    <TTGlyph name="at" xMin="50" yMin="-67" xMax="835" yMax="735">
      <contour>
        <pt x="835" y="397" on="1"/>
        <pt x="827" y="350" on="0"/>
        <pt x="787" y="254" on="0"/>
        <pt x="725" y="176" on="0"/>
        <pt x="644" y="126" on="0"/>
        <pt x="594" y="126" on="1"/>
        <pt x="562" y="126" on="0"/>
        <pt x="520" y="162" on="0"/>
        <pt x="516" y="193" on="1"/>
        <pt x="490" y="165" on="0"/>
        <pt x="414" y="128" on="0"/>
        <pt x="380" y="128" on="1"/>
        <pt x="341" y="128" on="0"/>
        <pt x="287" y="157" on="0"/>
        <pt x="255" y="206" on="0"/>
        <pt x="246" y="270" on="0"/>
        <pt x="252" y="306" on="1"/>
        <pt x="259" y="347" on="0"/>
        <pt x="299" y="426" on="0"/>
        <pt x="357" y="487" on="0"/>
        <pt x="434" y="525" on="0"/>
        <pt x="479" y="525" on="1"/>
        <pt x="510" y="525" on="0"/>
        <pt x="562" y="500" on="0"/>
        <pt x="574" y="474" on="1"/>
        <pt x="592" y="517" on="1"/>
        <pt x="641" y="517" on="1"/>
        <pt x="574" y="253" on="1"/>
        <pt x="573" y="244" on="1"/>
        <pt x="568" y="216" on="0"/>
        <pt x="586" y="182" on="0"/>
        <pt x="609" y="182" on="1"/>
        <pt x="640" y="182" on="0"/>
        <pt x="695" y="219" on="0"/>
        <pt x="738" y="280" on="0"/>
        <pt x="768" y="357" on="0"/>
        <pt x="775" y="397" on="1"/>
        <pt x="787" y="464" on="0"/>
        <pt x="757" y="568" on="0"/>
        <pt x="687" y="640" on="0"/>
        <pt x="582" y="677" on="0"/>
        <pt x="518" y="677" on="1"/>
        <pt x="439" y="677" on="0"/>
        <pt x="303" y="625" on="0"/>
        <pt x="197" y="531" on="0"/>
        <pt x="125" y="402" on="0"/>
        <pt x="112" y="324" on="1"/>
        <pt x="100" y="255" on="0"/>
        <pt x="124" y="134" on="0"/>
        <pt x="192" y="43" on="0"/>
        <pt x="299" y="-9" on="0"/>
        <pt x="370" y="-9" on="1"/>
        <pt x="435" y="-9" on="0"/>
        <pt x="565" y="15" on="0"/>
        <pt x="632" y="42" on="1"/>
        <pt x="621" y="-18" on="1"/>
        <pt x="550" y="-46" on="0"/>
        <pt x="426" y="-67" on="0"/>
        <pt x="358" y="-67" on="1"/>
        <pt x="274" y="-67" on="0"/>
        <pt x="146" y="-6" on="0"/>
        <pt x="65" y="99" on="0"/>
        <pt x="36" y="242" on="0"/>
        <pt x="51" y="324" on="1"/>
        <pt x="67" y="415" on="0"/>
        <pt x="151" y="566" on="0"/>
        <pt x="276" y="675" on="0"/>
        <pt x="436" y="735" on="0"/>
        <pt x="528" y="735" on="1"/>
        <pt x="604" y="735" on="0"/>
        <pt x="729" y="689" on="0"/>
        <pt x="813" y="602" on="0"/>
        <pt x="849" y="476" on="0"/>
      </contour>
      <contour>
        <pt x="540" y="347" on="1"/>
        <pt x="544" y="371" on="0"/>
        <pt x="541" y="415" on="0"/>
        <pt x="524" y="450" on="0"/>
        <pt x="489" y="470" on="0"/>
        <pt x="462" y="470" on="1"/>
        <pt x="433" y="470" on="0"/>
        <pt x="383" y="440" on="0"/>
        <pt x="344" y="393" on="0"/>
        <pt x="318" y="335" on="0"/>
        <pt x="313" y="306" on="1"/>
        <pt x="304" y="254" on="0"/>
        <pt x="342" y="183" on="0"/>
        <pt x="392" y="183" on="1"/>
        <pt x="424" y="183" on="0"/>
        <pt x="474" y="214" on="0"/>
        <pt x="512" y="262" on="0"/>
        <pt x="535" y="320" on="0"/>
      </contour>
    </TTGlyph>
    <TTGlyph name="atilde" xMin="16" yMin="-10" xMax="409" yMax="651">
      <component glyphName="a" x="0" y="0" flags="0x1204"/>
      <component glyphName="tilde" x="-93" y="0" flags="0x1004"/>
    </TTGlyph>
    <TTGlyph name="b" xMin="-5" yMin="-8" xMax="378" yMax="695">
      <contour>
        <pt x="89" y="86" on="1"/>
        <pt x="91" y="79" on="0"/>
        <pt x="116" y="67" on="0"/>
        <pt x="148" y="59" on="0"/>
        <pt x="179" y="55" on="0"/>
        <pt x="188" y="55" on="1"/>
        <pt x="218" y="55" on="0"/>
        <pt x="269" y="100" on="0"/>
        <pt x="275" y="132" on="1"/>
        <pt x="317" y="369" on="1"/>
        <pt x="322" y="401" on="0"/>
        <pt x="287" y="446" on="0"/>
        <pt x="256" y="446" on="1"/>
        <pt x="248" y="446" on="0"/>
        <pt x="221" y="442" on="0"/>
        <pt x="191" y="435" on="0"/>
        <pt x="159" y="423" on="0"/>
        <pt x="147" y="416" on="1"/>
      </contour>
      <contour>
        <pt x="158" y="486" on="1"/>
        <pt x="199" y="505" on="0"/>
        <pt x="251" y="510" on="0"/>
        <pt x="267" y="510" on="1"/>
        <pt x="295" y="510" on="0"/>
        <pt x="341" y="487" on="0"/>
        <pt x="371" y="448" on="0"/>
        <pt x="383" y="396" on="0"/>
        <pt x="378" y="366" on="1"/>
        <pt x="337" y="136" on="1"/>
        <pt x="332" y="106" on="0"/>
        <pt x="301" y="53" on="0"/>
        <pt x="258" y="14" on="0"/>
        <pt x="204" y="-8" on="0"/>
        <pt x="176" y="-8" on="1"/>
        <pt x="155" y="-8" on="0"/>
        <pt x="93" y="3" on="0"/>
        <pt x="63" y="20" on="1"/>
        <pt x="55" y="15" on="0"/>
        <pt x="38" y="-1" on="0"/>
        <pt x="31" y="-6" on="1"/>
        <pt x="-5" y="38" on="1"/>
        <pt x="20" y="60" on="1"/>
        <pt x="132" y="695" on="1"/>
        <pt x="195" y="695" on="1"/>
      </contour>
    </TTGlyph>
    <TTGlyph name="backslash" xMin="110" yMin="-55" xMax="300" yMax="761">
      <contour>
        <pt x="234" y="-55" on="1"/>
        <pt x="110" y="761" on="1"/>
        <pt x="177" y="761" on="1"/>
        <pt x="300" y="-55" on="1"/>
      </contour>
    </TTGlyph>
    <TTGlyph name="bar" xMin="13" yMin="-10" xMax="199" yMax="695">
      <contour>
        <pt x="13" y="-10" on="1"/>
        <pt x="137" y="695" on="1"/>
        <pt x="199" y="695" on="1"/>
        <pt x="75" y="-10" on="1"/>
      </contour>
    </TTGlyph>
    <TTGlyph name="braceleft" xMin="14" yMin="-72" xMax="292" yMax="767">
      <contour>
        <pt x="115" y="-72" on="1"/>
        <pt x="80" y="-72" on="0"/>
        <pt x="41" y="-58" on="0"/>
        <pt x="30" y="-45" on="1"/>
        <pt x="17" y="-30" on="0"/>
        <pt x="12" y="10" on="0"/>
        <pt x="18" y="45" on="1"/>
        <pt x="125" y="650" on="1"/>
        <pt x="131" y="685" on="0"/>
        <pt x="150" y="725" on="0"/>
        <pt x="168" y="739" on="1"/>
        <pt x="183" y="753" on="0"/>
        <pt x="228" y="767" on="0"/>
        <pt x="263" y="767" on="1"/>
        <pt x="292" y="767" on="1"/>
        <pt x="281" y="705" on="1"/>
        <pt x="257" y="705" on="1"/>
        <pt x="236" y="705" on="0"/>
        <pt x="214" y="703" on="0"/>
        <pt x="206" y="696" on="1"/>
        <pt x="193" y="684" on="0"/>
        <pt x="185" y="638" on="1"/>
        <pt x="82" y="53" on="1"/>
        <pt x="78" y="30" on="0"/>
        <pt x="78" y="5" on="0"/>
        <pt x="83" y="-2" on="1"/>
        <pt x="88" y="-9" on="0"/>
        <pt x="110" y="-11" on="0"/>
        <pt x="131" y="-11" on="1"/>
        <pt x="155" y="-11" on="1"/>
        <pt x="144" y="-72" on="1"/>
      </contour>
    </TTGlyph>
    <TTGlyph name="braceright" xMin="-33" yMin="-70" xMax="249" yMax="768">
      <contour>
        <pt x="139" y="47" on="1"/>
        <pt x="133" y="12" on="0"/>
        <pt x="112" y="-28" on="0"/>
        <pt x="95" y="-43" on="1"/>
        <pt x="79" y="-56" on="0"/>
        <pt x="34" y="-70" on="0"/>
        <pt x="-1" y="-70" on="1"/>
        <pt x="-33" y="-70" on="1"/>
        <pt x="-22" y="-9" on="1"/>
        <pt x="18" y="-9" on="1"/>
        <pt x="32" y="-9" on="0"/>
        <pt x="50" y="-6" on="0"/>
        <pt x="56" y="-1" on="1"/>
        <pt x="64" y="6" on="0"/>
        <pt x="73" y="31" on="0"/>
        <pt x="77" y="54" on="1"/>
        <pt x="181" y="644" on="1"/>
        <pt x="188" y="687" on="0"/>
        <pt x="180" y="698" on="1"/>
        <pt x="174" y="705" on="0"/>
        <pt x="152" y="707" on="0"/>
        <pt x="131" y="707" on="1"/>
        <pt x="104" y="707" on="1"/>
        <pt x="115" y="768" on="1"/>
        <pt x="147" y="768" on="1"/>
        <pt x="182" y="768" on="0"/>
        <pt x="222" y="755" on="0"/>
        <pt x="233" y="741" on="1"/>
        <pt x="246" y="727" on="0"/>
        <pt x="252" y="687" on="0"/>
        <pt x="245" y="652" on="1"/>
        <pt x="139" y="47" on="1"/>
      </contour>
    </TTGlyph>
    <TTGlyph name="bracketleft" xMin="-2" yMin="-82" xMax="297" yMax="769">
      <contour>
        <pt x="-2" y="-82" on="1"/>
        <pt x="148" y="769" on="1"/>
        <pt x="297" y="769" on="1"/>
        <pt x="286" y="708" on="1"/>
        <pt x="199" y="708" on="1"/>
        <pt x="71" y="-20" on="1"/>
        <pt x="158" y="-20" on="1"/>
        <pt x="147" y="-82" on="1"/>
      </contour>
    </TTGlyph>
    <TTGlyph name="bracketright" xMin="-36" yMin="-83" xMax="263" yMax="768">
      <contour>
        <pt x="-36" y="-83" on="1"/>
        <pt x="-25" y="-21" on="1"/>
        <pt x="62" y="-21" on="1"/>
        <pt x="190" y="707" on="1"/>
        <pt x="103" y="707" on="1"/>
        <pt x="114" y="768" on="1"/>
        <pt x="263" y="768" on="1"/>
        <pt x="113" y="-83" on="1"/>
      </contour>
    </TTGlyph>
    <TTGlyph name="brokenbar" xMin="15" yMin="0" xMax="201" yMax="695">
      <contour>
        <pt x="137" y="695" on="1"/>
        <pt x="201" y="695" on="1"/>
        <pt x="145" y="377" on="1"/>
        <pt x="81" y="377" on="1"/>
      </contour>
      <contour>
        <pt x="70" y="317" on="1"/>
        <pt x="134" y="317" on="1"/>
        <pt x="79" y="0" on="1"/>
        <pt x="15" y="0" on="1"/>
      </contour>
    </TTGlyph>
    <TTGlyph name="bullet" xMin="34" yMin="139" xMax="249" yMax="355">
      <contour>
        <pt x="249" y="247" on="1"/>
        <pt x="245" y="225" on="0"/>
        <pt x="221" y="186" on="0"/>
        <pt x="187" y="156" on="0"/>
        <pt x="144" y="139" on="0"/>
        <pt x="122" y="139" on="1"/>
        <pt x="100" y="139" on="0"/>
        <pt x="64" y="156" on="0"/>
        <pt x="40" y="186" on="0"/>
        <pt x="30" y="225" on="0"/>
        <pt x="34" y="247" on="1"/>
        <pt x="38" y="269" on="0"/>
        <pt x="61" y="308" on="0"/>
        <pt x="96" y="338" on="0"/>
        <pt x="138" y="355" on="0"/>
        <pt x="160" y="355" on="1"/>
        <pt x="182" y="355" on="0"/>
        <pt x="218" y="338" on="0"/>
        <pt x="242" y="308" on="0"/>
        <pt x="253" y="269" on="0"/>
      </contour>
    </TTGlyph>
    <TTGlyph name="c" xMin="27" yMin="-8" xMax="353" yMax="511">
      <contour>
        <pt x="89" y="151" on="1"/>
        <pt x="85" y="129" on="0"/>
        <pt x="95" y="93" on="0"/>
        <pt x="118" y="68" on="0"/>
        <pt x="151" y="54" on="0"/>
        <pt x="171" y="54" on="1"/>
        <pt x="179" y="54" on="0"/>
        <pt x="211" y="59" on="0"/>
        <pt x="227" y="63" on="1"/>
        <pt x="245" y="67" on="0"/>
        <pt x="265" y="73" on="1"/>
        <pt x="274" y="15" on="1"/>
        <pt x="252" y="8" on="0"/>
        <pt x="232" y="3" on="1"/>
        <pt x="214" y="-2" on="0"/>
        <pt x="175" y="-8" on="0"/>
        <pt x="160" y="-8" on="1"/>
        <pt x="127" y="-8" on="0"/>
        <pt x="72" y="16" on="0"/>
        <pt x="36" y="58" on="0"/>
        <pt x="21" y="116" on="0"/>
        <pt x="27" y="151" on="1"/>
        <pt x="63" y="354" on="1"/>
        <pt x="69" y="388" on="0"/>
        <pt x="104" y="446" on="0"/>
        <pt x="155" y="488" on="0"/>
        <pt x="218" y="511" on="0"/>
        <pt x="251" y="511" on="1"/>
        <pt x="267" y="511" on="0"/>
        <pt x="303" y="502" on="0"/>
        <pt x="318" y="497" on="1"/>
        <pt x="336" y="491" on="0"/>
        <pt x="353" y="483" on="1"/>
        <pt x="327" y="428" on="1"/>
        <pt x="312" y="434" on="0"/>
        <pt x="296" y="438" on="1"/>
        <pt x="282" y="442" on="0"/>
        <pt x="252" y="449" on="0"/>
        <pt x="240" y="449" on="1"/>
        <pt x="200" y="449" on="0"/>
        <pt x="133" y="397" on="0"/>
        <pt x="125" y="354" on="1"/>
      </contour>
    </TTGlyph>
    <TTGlyph name="caron" xMin="189" yMin="608" xMax="464" yMax="743">
      <contour>
        <pt x="253" y="743" on="1"/>
        <pt x="312" y="667" on="1"/>
        <pt x="399" y="743" on="1"/>
        <pt x="464" y="743" on="1"/>
        <pt x="332" y="608" on="1"/>
        <pt x="273" y="608" on="1"/>
        <pt x="189" y="743" on="1"/>
      </contour>
    </TTGlyph>
    <TTGlyph name="ccedilla" xMin="27" yMin="-218" xMax="353" yMax="511">
      <component glyphName="c" x="0" y="0" flags="0x1204"/>
      <component glyphName="cedilla" x="-47" y="0" flags="0x1004"/>
    </TTGlyph>
    <TTGlyph name="cedilla" xMin="106" yMin="-218" xMax="231" yMax="-31">
      <contour>
        <pt x="221" y="-89" on="1"/>
        <pt x="211" y="-145" on="0"/>
        <pt x="166" y="-204" on="0"/>
        <pt x="134" y="-218" on="1"/>
        <pt x="106" y="-172" on="1"/>
        <pt x="126" y="-164" on="0"/>
        <pt x="155" y="-120" on="0"/>
        <pt x="161" y="-88" on="1"/>
        <pt x="171" y="-31" on="1"/>
        <pt x="231" y="-31" on="1"/>
        <pt x="221" y="-89" on="1"/>
      </contour>
    </TTGlyph>
    <TTGlyph name="cent" xMin="23" yMin="-127" xMax="349" yMax="633">
      <contour>
        <pt x="225" y="633" on="1"/>
        <pt x="287" y="633" on="1"/>
        <pt x="265" y="510" on="1"/>
        <pt x="279" y="508" on="0"/>
        <pt x="309" y="500" on="0"/>
        <pt x="321" y="495" on="1"/>
        <pt x="335" y="490" on="0"/>
        <pt x="349" y="484" on="1"/>
        <pt x="323" y="429" on="1"/>
        <pt x="308" y="435" on="0"/>
        <pt x="292" y="439" on="1"/>
        <pt x="278" y="443" on="0"/>
        <pt x="248" y="450" on="0"/>
        <pt x="236" y="450" on="1"/>
        <pt x="196" y="450" on="0"/>
        <pt x="129" y="398" on="0"/>
        <pt x="121" y="355" on="1"/>
        <pt x="85" y="152" on="1"/>
        <pt x="81" y="130" on="0"/>
        <pt x="91" y="94" on="0"/>
        <pt x="114" y="69" on="0"/>
        <pt x="147" y="55" on="0"/>
        <pt x="167" y="55" on="1"/>
        <pt x="175" y="55" on="0"/>
        <pt x="207" y="60" on="0"/>
        <pt x="223" y="64" on="1"/>
        <pt x="241" y="68" on="0"/>
        <pt x="262" y="74" on="1"/>
        <pt x="267" y="18" on="1"/>
        <pt x="251" y="12" on="0"/>
        <pt x="235" y="7" on="1"/>
        <pt x="221" y="2" on="0"/>
        <pt x="188" y="-5" on="0"/>
        <pt x="174" y="-6" on="1"/>
        <pt x="153" y="-127" on="1"/>
        <pt x="91" y="-127" on="1"/>
        <pt x="113" y="-2" on="1"/>
        <pt x="91" y="5" on="0"/>
        <pt x="54" y="35" on="0"/>
        <pt x="28" y="75" on="0"/>
        <pt x="18" y="124" on="0"/>
        <pt x="23" y="152" on="1"/>
        <pt x="59" y="355" on="1"/>
        <pt x="64" y="383" on="0"/>
        <pt x="91" y="433" on="0"/>
        <pt x="130" y="472" on="0"/>
        <pt x="177" y="500" on="0"/>
        <pt x="203" y="507" on="1"/>
      </contour>
    </TTGlyph>
    <TTGlyph name="circumflex" xMin="164" yMin="609" xMax="439" yMax="744">
      <contour>
        <pt x="375" y="609" on="1"/>
        <pt x="315" y="685" on="1"/>
        <pt x="229" y="609" on="1"/>
        <pt x="164" y="609" on="1"/>
        <pt x="296" y="744" on="1"/>
        <pt x="355" y="744" on="1"/>
        <pt x="439" y="609" on="1"/>
      </contour>
    </TTGlyph>
    <TTGlyph name="colon" xMin="7" yMin="1" xMax="161" yMax="413">
      <contour>
        <pt x="63" y="312" on="1"/>
        <pt x="80" y="413" on="1"/>
        <pt x="161" y="413" on="1"/>
        <pt x="144" y="312" on="1"/>
      </contour>
      <contour>
        <pt x="7" y="1" on="1"/>
        <pt x="24" y="100" on="1"/>
        <pt x="105" y="100" on="1"/>
        <pt x="88" y="1" on="1"/>
      </contour>
    </TTGlyph>
    <TTGlyph name="comma" xMin="-38" yMin="-91" xMax="98" yMax="111">
      <contour>
        <pt x="88" y="54" on="1"/>
        <pt x="78" y="-3" on="0"/>
        <pt x="15" y="-74" on="0"/>
        <pt x="-32" y="-91" on="1"/>
        <pt x="-38" y="-21" on="1"/>
        <pt x="-20" y="-13" on="0"/>
        <pt x="11" y="21" on="0"/>
        <pt x="17" y="54" on="1"/>
        <pt x="27" y="111" on="1"/>
        <pt x="98" y="111" on="1"/>
        <pt x="88" y="54" on="1"/>
      </contour>
    </TTGlyph>
    <TTGlyph name="copyright" xMin="50" yMin="-10" xMax="761" yMax="702">
      <contour>
        <pt x="761" y="346" on="1"/>
        <pt x="748" y="272" on="0"/>
        <pt x="669" y="143" on="0"/>
        <pt x="556" y="46" on="0"/>
        <pt x="417" y="-10" on="0"/>
        <pt x="343" y="-10" on="1"/>
        <pt x="269" y="-10" on="0"/>
        <pt x="150" y="46" on="0"/>
        <pt x="70" y="143" on="0"/>
        <pt x="37" y="272" on="0"/>
        <pt x="50" y="346" on="1"/>
        <pt x="63" y="420" on="0"/>
        <pt x="141" y="550" on="0"/>
        <pt x="255" y="646" on="0"/>
        <pt x="394" y="702" on="0"/>
        <pt x="468" y="702" on="1"/>
        <pt x="542" y="702" on="0"/>
        <pt x="661" y="646" on="0"/>
        <pt x="741" y="550" on="0"/>
        <pt x="774" y="420" on="0"/>
      </contour>
      <contour>
        <pt x="699" y="346" on="1"/>
        <pt x="709" y="407" on="0"/>
        <pt x="682" y="514" on="0"/>
        <pt x="616" y="594" on="0"/>
        <pt x="518" y="640" on="0"/>
        <pt x="457" y="640" on="1"/>
        <pt x="397" y="640" on="0"/>
        <pt x="282" y="594" on="0"/>
        <pt x="188" y="515" on="0"/>
        <pt x="122" y="407" on="0"/>
        <pt x="112" y="346" on="1"/>
        <pt x="101" y="285" on="0"/>
        <pt x="129" y="178" on="0"/>
        <pt x="195" y="99" on="0"/>
        <pt x="294" y="53" on="0"/>
        <pt x="354" y="53" on="1"/>
        <pt x="415" y="53" on="0"/>
        <pt x="530" y="99" on="0"/>
        <pt x="623" y="178" on="0"/>
        <pt x="688" y="285" on="0"/>
      </contour>
      <contour>
        <pt x="312" y="270" on="1"/>
        <pt x="305" y="231" on="0"/>
        <pt x="351" y="182" on="0"/>
        <pt x="388" y="182" on="1"/>
        <pt x="394" y="182" on="0"/>
        <pt x="412" y="185" on="0"/>
        <pt x="431" y="188" on="0"/>
        <pt x="448" y="192" on="0"/>
        <pt x="453" y="194" on="1"/>
        <pt x="455" y="186" on="0"/>
        <pt x="456" y="180" on="0"/>
        <pt x="457" y="172" on="1"/>
        <pt x="442" y="168" on="0"/>
        <pt x="428" y="165" on="1"/>
        <pt x="416" y="162" on="0"/>
        <pt x="391" y="158" on="0"/>
        <pt x="383" y="158" on="1"/>
        <pt x="335" y="158" on="0"/>
        <pt x="279" y="220" on="0"/>
        <pt x="288" y="270" on="1"/>
        <pt x="317" y="435" on="1"/>
        <pt x="321" y="459" on="0"/>
        <pt x="347" y="500" on="0"/>
        <pt x="383" y="530" on="0"/>
        <pt x="427" y="546" on="0"/>
        <pt x="451" y="546" on="1"/>
        <pt x="471" y="546" on="0"/>
        <pt x="508" y="533" on="0"/>
        <pt x="516" y="530" on="1"/>
        <pt x="507" y="510" on="1"/>
        <pt x="496" y="512" on="0"/>
        <pt x="485" y="515" on="1"/>
        <pt x="476" y="517" on="0"/>
        <pt x="454" y="521" on="0"/>
        <pt x="446" y="521" on="1"/>
        <pt x="409" y="521" on="0"/>
        <pt x="348" y="473" on="0"/>
        <pt x="341" y="435" on="1"/>
      </contour>
    </TTGlyph>
    <TTGlyph name="d" xMin="25" yMin="-12" xMax="427" yMax="694">
      <contour>
        <pt x="314" y="414" on="1"/>
        <pt x="288" y="432" on="0"/>
        <pt x="231" y="446" on="0"/>
        <pt x="216" y="446" on="1"/>
        <pt x="201" y="446" on="0"/>
        <pt x="172" y="434" on="0"/>
        <pt x="148" y="413" on="0"/>
        <pt x="131" y="384" on="0"/>
        <pt x="128" y="368" on="1"/>
        <pt x="87" y="131" on="1"/>
        <pt x="81" y="99" on="0"/>
        <pt x="116" y="54" on="0"/>
        <pt x="146" y="54" on="1"/>
        <pt x="155" y="54" on="0"/>
        <pt x="187" y="59" on="0"/>
        <pt x="221" y="67" on="0"/>
        <pt x="250" y="78" on="0"/>
        <pt x="256" y="85" on="1"/>
      </contour>
      <contour>
        <pt x="365" y="694" on="1"/>
        <pt x="427" y="694" on="1"/>
        <pt x="314" y="56" on="1"/>
        <pt x="335" y="32" on="1"/>
        <pt x="282" y="-12" on="1"/>
        <pt x="258" y="18" on="1"/>
        <pt x="225" y="3" on="0"/>
        <pt x="156" y="-9" on="0"/>
        <pt x="136" y="-9" on="1"/>
        <pt x="107" y="-9" on="0"/>
        <pt x="62" y="13" on="0"/>
        <pt x="32" y="52" on="0"/>
        <pt x="20" y="105" on="0"/>
        <pt x="25" y="135" on="1"/>
        <pt x="66" y="365" on="1"/>
        <pt x="71" y="395" on="0"/>
        <pt x="101" y="447" on="0"/>
        <pt x="145" y="486" on="0"/>
        <pt x="198" y="509" on="0"/>
        <pt x="227" y="509" on="1"/>
        <pt x="242" y="509" on="0"/>
        <pt x="296" y="502" on="0"/>
        <pt x="328" y="485" on="1"/>
      </contour>
    </TTGlyph>
    <TTGlyph name="degree" xMin="84" yMin="448" xMax="341" yMax="705">
      <contour>
        <pt x="341" y="577" on="1"/>
        <pt x="336" y="551" on="0"/>
        <pt x="308" y="504" on="0"/>
        <pt x="267" y="469" on="0"/>
        <pt x="216" y="448" on="0"/>
        <pt x="189" y="448" on="1"/>
        <pt x="163" y="448" on="0"/>
        <pt x="120" y="469" on="0"/>
        <pt x="91" y="504" on="0"/>
        <pt x="79" y="551" on="0"/>
        <pt x="84" y="577" on="1"/>
        <pt x="89" y="604" on="0"/>
        <pt x="118" y="650" on="0"/>
        <pt x="159" y="685" on="0"/>
        <pt x="209" y="705" on="0"/>
        <pt x="235" y="705" on="1"/>
        <pt x="262" y="705" on="0"/>
        <pt x="306" y="685" on="0"/>
        <pt x="334" y="651" on="0"/>
        <pt x="346" y="604" on="0"/>
      </contour>
      <contour>
        <pt x="283" y="577" on="1"/>
        <pt x="288" y="606" on="0"/>
        <pt x="254" y="647" on="0"/>
        <pt x="225" y="647" on="1"/>
        <pt x="211" y="647" on="0"/>
        <pt x="183" y="636" on="0"/>
        <pt x="161" y="617" on="0"/>
        <pt x="145" y="592" on="0"/>
        <pt x="142" y="577" on="1"/>
        <pt x="137" y="548" on="0"/>
        <pt x="171" y="508" on="0"/>
        <pt x="200" y="508" on="1"/>
        <pt x="215" y="508" on="0"/>
        <pt x="243" y="519" on="0"/>
        <pt x="265" y="538" on="0"/>
        <pt x="281" y="563" on="0"/>
      </contour>
    </TTGlyph>
    <TTGlyph name="dieresis" xMin="200" yMin="584" xMax="478" yMax="672">
      <contour>
        <pt x="392" y="584" on="1"/>
        <pt x="408" y="672" on="1"/>
        <pt x="478" y="672" on="1"/>
        <pt x="462" y="584" on="1"/>
      </contour>
      <contour>
        <pt x="200" y="584" on="1"/>
        <pt x="216" y="672" on="1"/>
        <pt x="286" y="672" on="1"/>
        <pt x="270" y="584" on="1"/>
      </contour>
    </TTGlyph>
    <TTGlyph name="divide" xMin="29" yMin="1" xMax="389" yMax="413">
      <component glyphName="colon" x="130" y="0" flags="0x1004"/>
      <component glyphName="minus" x="-29" y="-71" flags="0x1004"/>
    </TTGlyph>
    <TTGlyph name="dollar" xMin="5" yMin="-71" xMax="453" yMax="757">
      <contour>
        <pt x="282" y="757" on="1"/>
        <pt x="349" y="757" on="1"/>
        <pt x="337" y="689" on="1"/>
        <pt x="354" y="685" on="0"/>
        <pt x="370" y="678" on="1"/>
        <pt x="453" y="642" on="1"/>
        <pt x="419" y="574" on="1"/>
        <pt x="397" y="585" on="1"/>
        <pt x="375" y="596" on="0"/>
        <pt x="315" y="623" on="0"/>
        <pt x="291" y="623" on="1"/>
        <pt x="266" y="623" on="0"/>
        <pt x="220" y="602" on="0"/>
        <pt x="184" y="567" on="0"/>
        <pt x="158" y="521" on="0"/>
        <pt x="154" y="496" on="1"/>
        <pt x="149" y="467" on="0"/>
        <pt x="163" y="425" on="0"/>
        <pt x="192" y="396" on="0"/>
        <pt x="234" y="382" on="0"/>
        <pt x="257" y="382" on="1"/>
        <pt x="297" y="382" on="0"/>
        <pt x="363" y="355" on="0"/>
        <pt x="407" y="306" on="0"/>
        <pt x="425" y="238" on="0"/>
        <pt x="418" y="197" on="1"/>
        <pt x="411" y="158" on="0"/>
        <pt x="374" y="90" on="0"/>
        <pt x="320" y="39" on="0"/>
        <pt x="253" y="5" on="0"/>
        <pt x="216" y="1" on="1"/>
        <pt x="203" y="-71" on="1"/>
        <pt x="136" y="-71" on="1"/>
        <pt x="149" y="5" on="1"/>
        <pt x="128" y="12" on="0"/>
        <pt x="85" y="30" on="0"/>
        <pt x="45" y="47" on="0"/>
        <pt x="14" y="62" on="0"/>
        <pt x="5" y="67" on="1"/>
        <pt x="40" y="132" on="1"/>
        <pt x="87" y="109" on="0"/>
        <pt x="143" y="84" on="0"/>
        <pt x="176" y="72" on="0"/>
        <pt x="194" y="69" on="0"/>
        <pt x="204" y="69" on="1"/>
        <pt x="230" y="69" on="0"/>
        <pt x="278" y="88" on="0"/>
        <pt x="316" y="122" on="0"/>
        <pt x="343" y="169" on="0"/>
        <pt x="348" y="196" on="1"/>
        <pt x="353" y="224" on="0"/>
        <pt x="339" y="266" on="0"/>
        <pt x="309" y="294" on="0"/>
        <pt x="267" y="308" on="0"/>
        <pt x="244" y="308" on="1"/>
        <pt x="203" y="308" on="0"/>
        <pt x="137" y="335" on="0"/>
        <pt x="93" y="385" on="0"/>
        <pt x="75" y="452" on="0"/>
        <pt x="82" y="493" on="1"/>
        <pt x="89" y="529" on="0"/>
        <pt x="124" y="595" on="0"/>
        <pt x="174" y="648" on="0"/>
        <pt x="236" y="684" on="0"/>
        <pt x="270" y="690" on="1"/>
      </contour>
    </TTGlyph>
    <TTGlyph name="e" xMin="27" yMin="-9" xMax="378" yMax="510">
      <contour>
        <pt x="219" y="248" on="1"/>
        <pt x="234" y="248" on="0"/>
        <pt x="264" y="261" on="0"/>
        <pt x="288" y="284" on="0"/>
        <pt x="305" y="313" on="0"/>
        <pt x="308" y="329" on="1"/>
        <pt x="315" y="370" on="1"/>
        <pt x="319" y="391" on="0"/>
        <pt x="307" y="420" on="0"/>
        <pt x="283" y="438" on="0"/>
        <pt x="249" y="446" on="0"/>
        <pt x="230" y="446" on="1"/>
        <pt x="196" y="446" on="0"/>
        <pt x="137" y="405" on="0"/>
        <pt x="131" y="370" on="1"/>
        <pt x="109" y="249" on="1"/>
      </contour>
      <contour>
        <pt x="65" y="365" on="1"/>
        <pt x="70" y="395" on="0"/>
        <pt x="101" y="448" on="0"/>
        <pt x="146" y="487" on="0"/>
        <pt x="201" y="510" on="0"/>
        <pt x="230" y="510" on="1"/>
        <pt x="263" y="510" on="1"/>
        <pt x="292" y="510" on="0"/>
        <pt x="339" y="488" on="0"/>
        <pt x="370" y="449" on="0"/>
        <pt x="383" y="396" on="0"/>
        <pt x="378" y="365" on="1"/>
        <pt x="372" y="333" on="1"/>
        <pt x="364" y="290" on="0"/>
        <pt x="324" y="232" on="0"/>
        <pt x="265" y="196" on="0"/>
        <pt x="192" y="180" on="0"/>
        <pt x="153" y="180" on="1"/>
        <pt x="125" y="180" on="0"/>
        <pt x="98" y="183" on="1"/>
        <pt x="89" y="133" on="1"/>
        <pt x="90" y="98" on="0"/>
        <pt x="137" y="54" on="0"/>
        <pt x="172" y="54" on="1"/>
        <pt x="174" y="54" on="0"/>
        <pt x="218" y="63" on="0"/>
        <pt x="244" y="69" on="1"/>
        <pt x="274" y="75" on="0"/>
        <pt x="311" y="84" on="1"/>
        <pt x="316" y="18" on="1"/>
        <pt x="277" y="10" on="0"/>
        <pt x="244" y="4" on="1"/>
        <pt x="216" y="-1" on="0"/>
        <pt x="166" y="-9" on="0"/>
        <pt x="161" y="-9" on="1"/>
        <pt x="128" y="-9" on="0"/>
        <pt x="73" y="15" on="0"/>
        <pt x="37" y="57" on="0"/>
        <pt x="21" y="115" on="0"/>
        <pt x="27" y="150" on="1"/>
      </contour>
    </TTGlyph>
    <TTGlyph name="eacute" xMin="27" yMin="-9" xMax="429" yMax="731">
      <component glyphName="e" x="0" y="0" flags="0x1204"/>
      <component glyphName="acute" x="-70" y="0" flags="0x1004"/>
    </TTGlyph>
    <TTGlyph name="ecircumflex" xMin="27" yMin="-9" xMax="398" yMax="744">
      <component glyphName="e" x="0" y="0" flags="0x1204"/>
      <component glyphName="circumflex" x="-41" y="0" flags="0x1004"/>
    </TTGlyph>
    <TTGlyph name="edieresis" xMin="27" yMin="-9" xMax="410" yMax="672">
      <component glyphName="e" x="0" y="0" flags="0x1204"/>
      <component glyphName="dieresis" x="-68" y="0" flags="0x1004"/>
    </TTGlyph>
    <TTGlyph name="egrave" xMin="27" yMin="-9" xMax="378" yMax="730">
      <component glyphName="e" x="0" y="0" flags="0x1204"/>
      <component glyphName="grave" x="-67" y="0" flags="0x1004"/>
    </TTGlyph>
    <TTGlyph name="eight" xMin="36" yMin="-9" xMax="410" yMax="651">
      <contour>
        <pt x="191" y="52" on="1"/>
        <pt x="206" y="52" on="0"/>
        <pt x="235" y="65" on="0"/>
        <pt x="259" y="86" on="0"/>
        <pt x="276" y="115" on="0"/>
        <pt x="279" y="131" on="1"/>
        <pt x="292" y="205" on="1"/>
        <pt x="299" y="243" on="0"/>
        <pt x="250" y="280" on="0"/>
        <pt x="214" y="280" on="1"/>
        <pt x="179" y="280" on="0"/>
        <pt x="120" y="245" on="0"/>
        <pt x="113" y="205" on="1"/>
        <pt x="100" y="131" on="1"/>
        <pt x="94" y="99" on="0"/>
        <pt x="129" y="52" on="0"/>
        <pt x="160" y="52" on="1"/>
      </contour>
      <contour>
        <pt x="245" y="359" on="1"/>
        <pt x="276" y="359" on="0"/>
        <pt x="327" y="406" on="0"/>
        <pt x="333" y="439" on="1"/>
        <pt x="346" y="515" on="1"/>
        <pt x="353" y="550" on="0"/>
        <pt x="308" y="589" on="0"/>
        <pt x="275" y="589" on="1"/>
        <pt x="237" y="589" on="0"/>
        <pt x="175" y="557" on="0"/>
        <pt x="167" y="515" on="1"/>
        <pt x="154" y="439" on="1"/>
        <pt x="148" y="406" on="0"/>
        <pt x="183" y="359" on="0"/>
        <pt x="214" y="359" on="1"/>
      </contour>
      <contour>
        <pt x="51" y="211" on="1"/>
        <pt x="57" y="247" on="0"/>
        <pt x="99" y="305" on="0"/>
        <pt x="129" y="321" on="1"/>
        <pt x="106" y="340" on="0"/>
        <pt x="84" y="399" on="0"/>
        <pt x="90" y="436" on="1"/>
        <pt x="105" y="519" on="1"/>
        <pt x="111" y="556" on="0"/>
        <pt x="147" y="606" on="0"/>
        <pt x="196" y="637" on="0"/>
        <pt x="256" y="651" on="0"/>
        <pt x="288" y="651" on="1"/>
        <pt x="317" y="651" on="0"/>
        <pt x="366" y="633" on="0"/>
        <pt x="400" y="599" on="0"/>
        <pt x="415" y="550" on="0"/>
        <pt x="410" y="519" on="1"/>
        <pt x="395" y="436" on="1"/>
        <pt x="388" y="397" on="0"/>
        <pt x="345" y="337" on="0"/>
        <pt x="313" y="320" on="1"/>
        <pt x="338" y="303" on="0"/>
        <pt x="363" y="249" on="0"/>
        <pt x="356" y="211" on="1"/>
        <pt x="341" y="128" on="1"/>
        <pt x="336" y="100" on="0"/>
        <pt x="307" y="50" on="0"/>
        <pt x="266" y="13" on="0"/>
        <pt x="215" y="-9" on="0"/>
        <pt x="188" y="-9" on="1"/>
        <pt x="141" y="-9" on="1"/>
        <pt x="114" y="-9" on="0"/>
        <pt x="71" y="13" on="0"/>
        <pt x="42" y="50" on="0"/>
        <pt x="31" y="100" on="0"/>
        <pt x="36" y="128" on="1"/>
      </contour>
    </TTGlyph>
    <TTGlyph name="ellipsis" xMin="5" yMin="5" xMax="417" yMax="104">
      <contour>
        <pt x="5" y="5" on="1"/>
        <pt x="23" y="104" on="1"/>
        <pt x="104" y="104" on="1"/>
        <pt x="86" y="5" on="1"/>
      </contour>
      <contour>
        <pt x="162" y="5" on="1"/>
        <pt x="180" y="104" on="1"/>
        <pt x="261" y="104" on="1"/>
        <pt x="243" y="5" on="1"/>
      </contour>
      <contour>
        <pt x="318" y="5" on="1"/>
        <pt x="336" y="104" on="1"/>
        <pt x="417" y="104" on="1"/>
        <pt x="399" y="5" on="1"/>
      </contour>
    </TTGlyph>
    <TTGlyph name="emdash" xMin="45" yMin="203" xMax="668" yMax="269">
      <contour>
        <pt x="45" y="203" on="1"/>
        <pt x="57" y="269" on="1"/>
        <pt x="668" y="269" on="1"/>
        <pt x="656" y="203" on="1"/>
      </contour>
    </TTGlyph>
    <TTGlyph name="endash" xMin="46" yMin="203" xMax="405" yMax="269">
      <contour>
        <pt x="46" y="203" on="1"/>
        <pt x="58" y="269" on="1"/>
        <pt x="405" y="269" on="1"/>
        <pt x="393" y="203" on="1"/>
      </contour>
    </TTGlyph>
    <TTGlyph name="equal" xMin="45" yMin="170" xMax="439" yMax="436">
      <contour>
        <pt x="79" y="360" on="1"/>
        <pt x="92" y="436" on="1"/>
        <pt x="439" y="436" on="1"/>
        <pt x="426" y="360" on="1"/>
      </contour>
      <contour>
        <pt x="45" y="170" on="1"/>
        <pt x="59" y="246" on="1"/>
        <pt x="406" y="246" on="1"/>
        <pt x="392" y="170" on="1"/>
      </contour>
    </TTGlyph>
    <TTGlyph name="exclam" xMin="15" yMin="1" xMax="202" yMax="695">
      <contour>
        <pt x="40" y="137" on="1"/>
        <pt x="138" y="695" on="1"/>
        <pt x="202" y="695" on="1"/>
        <pt x="104" y="137" on="1"/>
      </contour>
      <contour>
        <pt x="15" y="1" on="1"/>
        <pt x="32" y="102" on="1"/>
        <pt x="97" y="102" on="1"/>
        <pt x="80" y="1" on="1"/>
      </contour>
    </TTGlyph>
    <TTGlyph name="exclamdown" xMin="15" yMin="1" xMax="201" yMax="695">
      <contour>
        <pt x="177" y="558" on="1"/>
        <pt x="79" y="1" on="1"/>
        <pt x="15" y="1" on="1"/>
        <pt x="113" y="558" on="1"/>
      </contour>
      <contour>
        <pt x="201" y="695" on="1"/>
        <pt x="183" y="593" on="1"/>
        <pt x="118" y="593" on="1"/>
        <pt x="136" y="695" on="1"/>
      </contour>
    </TTGlyph>
    <TTGlyph name="f" xMin="51" yMin="0" xMax="328" yMax="703">
      <contour>
        <pt x="125" y="0" on="1"/>
        <pt x="59" y="0" on="1"/>
        <pt x="136" y="439" on="1"/>
        <pt x="51" y="439" on="1"/>
        <pt x="62" y="500" on="1"/>
        <pt x="148" y="500" on="1"/>
        <pt x="160" y="569" on="1"/>
        <pt x="173" y="641" on="0"/>
        <pt x="253" y="703" on="0"/>
        <pt x="304" y="703" on="1"/>
        <pt x="328" y="703" on="1"/>
        <pt x="317" y="637" on="1"/>
        <pt x="298" y="637" on="1"/>
        <pt x="274" y="637" on="0"/>
        <pt x="231" y="611" on="0"/>
        <pt x="225" y="576" on="1"/>
        <pt x="212" y="500" on="1"/>
        <pt x="305" y="500" on="1"/>
        <pt x="294" y="439" on="1"/>
        <pt x="202" y="439" on="1"/>
      </contour>
    </TTGlyph>
    <TTGlyph name="fi" xMin="51" yMin="0" xMax="474" yMax="703">
      <contour>
        <pt x="409" y="695" on="1"/>
        <pt x="474" y="695" on="1"/>
        <pt x="458" y="605" on="1"/>
        <pt x="393" y="605" on="1"/>
      </contour>
      <contour>
        <pt x="212" y="500" on="1"/>
        <pt x="440" y="500" on="1"/>
        <pt x="352" y="0" on="1"/>
        <pt x="287" y="0" on="1"/>
        <pt x="364" y="439" on="1"/>
        <pt x="202" y="439" on="1"/>
        <pt x="125" y="0" on="1"/>
        <pt x="60" y="0" on="1"/>
        <pt x="137" y="439" on="1"/>
        <pt x="51" y="439" on="1"/>
        <pt x="62" y="500" on="1"/>
        <pt x="149" y="500" on="1"/>
        <pt x="161" y="569" on="1"/>
        <pt x="174" y="641" on="0"/>
        <pt x="253" y="703" on="0"/>
        <pt x="304" y="703" on="1"/>
        <pt x="329" y="703" on="1"/>
        <pt x="318" y="637" on="1"/>
        <pt x="298" y="637" on="1"/>
        <pt x="274" y="637" on="0"/>
        <pt x="231" y="611" on="0"/>
        <pt x="225" y="576" on="1"/>
      </contour>
    </TTGlyph>
    <TTGlyph name="five" xMin="16" yMin="-8" xMax="392" yMax="646">
      <contour>
        <pt x="367" y="196" on="1"/>
        <pt x="359" y="154" on="0"/>
        <pt x="326" y="80" on="0"/>
        <pt x="276" y="25" on="0"/>
        <pt x="210" y="-8" on="0"/>
        <pt x="170" y="-8" on="1"/>
        <pt x="149" y="-8" on="0"/>
        <pt x="96" y="6" on="0"/>
        <pt x="49" y="24" on="0"/>
        <pt x="16" y="39" on="0"/>
        <pt x="16" y="39" on="1"/>
        <pt x="47" y="101" on="1"/>
        <pt x="71" y="90" on="0"/>
        <pt x="95" y="82" on="1"/>
        <pt x="115" y="74" on="0"/>
        <pt x="161" y="63" on="0"/>
        <pt x="181" y="63" on="1"/>
        <pt x="206" y="63" on="0"/>
        <pt x="246" y="85" on="0"/>
        <pt x="275" y="121" on="0"/>
        <pt x="294" y="169" on="0"/>
        <pt x="299" y="196" on="1"/>
        <pt x="304" y="225" on="1"/>
        <pt x="309" y="252" on="0"/>
        <pt x="306" y="300" on="0"/>
        <pt x="289" y="336" on="0"/>
        <pt x="256" y="357" on="0"/>
        <pt x="231" y="357" on="1"/>
        <pt x="74" y="357" on="1"/>
        <pt x="125" y="646" on="1"/>
        <pt x="392" y="646" on="1"/>
        <pt x="381" y="582" on="1"/>
        <pt x="185" y="582" on="1"/>
        <pt x="157" y="423" on="1"/>
        <pt x="244" y="423" on="1"/>
        <pt x="284" y="423" on="0"/>
        <pt x="340" y="393" on="0"/>
        <pt x="372" y="340" on="0"/>
        <pt x="379" y="267" on="0"/>
        <pt x="372" y="225" on="1"/>
        <pt x="367" y="196" on="1"/>
      </contour>
    </TTGlyph>
    <TTGlyph name="fl" xMin="51" yMin="0" xMax="472" yMax="703">
      <contour>
        <pt x="363" y="439" on="1"/>
        <pt x="202" y="439" on="1"/>
        <pt x="125" y="0" on="1"/>
        <pt x="59" y="0" on="1"/>
        <pt x="136" y="439" on="1"/>
        <pt x="51" y="439" on="1"/>
        <pt x="62" y="500" on="1"/>
        <pt x="148" y="500" on="1"/>
        <pt x="160" y="569" on="1"/>
        <pt x="173" y="641" on="0"/>
        <pt x="253" y="703" on="0"/>
        <pt x="304" y="703" on="1"/>
        <pt x="328" y="703" on="1"/>
        <pt x="317" y="637" on="1"/>
        <pt x="298" y="637" on="1"/>
        <pt x="274" y="637" on="0"/>
        <pt x="231" y="611" on="0"/>
        <pt x="225" y="576" on="1"/>
        <pt x="212" y="500" on="1"/>
        <pt x="374" y="500" on="1"/>
        <pt x="408" y="695" on="1"/>
        <pt x="472" y="695" on="1"/>
        <pt x="372" y="130" on="1"/>
        <pt x="366" y="94" on="0"/>
        <pt x="398" y="67" on="0"/>
        <pt x="423" y="67" on="1"/>
        <pt x="442" y="67" on="1"/>
        <pt x="431" y="1" on="1"/>
        <pt x="407" y="1" on="1"/>
        <pt x="356" y="1" on="0"/>
        <pt x="297" y="64" on="0"/>
        <pt x="309" y="135" on="1"/>
      </contour>
    </TTGlyph>
    <TTGlyph name="four" xMin="14" yMin="0" xMax="357" yMax="646">
      <contour>
        <pt x="227" y="0" on="1"/>
        <pt x="260" y="190" on="1"/>
        <pt x="14" y="190" on="1"/>
        <pt x="26" y="256" on="1"/>
        <pt x="243" y="646" on="1"/>
        <pt x="311" y="646" on="1"/>
        <pt x="99" y="256" on="1"/>
        <pt x="272" y="256" on="1"/>
        <pt x="291" y="367" on="1"/>
        <pt x="357" y="367" on="1"/>
        <pt x="293" y="0" on="1"/>
      </contour>
    </TTGlyph>
    <TTGlyph name="fraction" xMin="-23" yMin="1" xMax="271" yMax="694">
      <contour>
        <pt x="199" y="694" on="1"/>
        <pt x="271" y="694" on="1"/>
        <pt x="49" y="1" on="1"/>
        <pt x="-23" y="1" on="1"/>
      </contour>
    </TTGlyph>
    <TTGlyph name="g" xMin="-39" yMin="-252" xMax="412" yMax="513">
      <contour>
        <pt x="316" y="416" on="1"/>
        <pt x="282" y="436" on="0"/>
        <pt x="233" y="446" on="0"/>
        <pt x="216" y="446" on="1"/>
        <pt x="186" y="446" on="0"/>
        <pt x="135" y="401" on="0"/>
        <pt x="130" y="370" on="1"/>
        <pt x="88" y="132" on="1"/>
        <pt x="82" y="100" on="0"/>
        <pt x="117" y="54" on="0"/>
        <pt x="148" y="54" on="1"/>
        <pt x="156" y="54" on="0"/>
        <pt x="172" y="55" on="0"/>
        <pt x="196" y="61" on="0"/>
        <pt x="231" y="73" on="0"/>
        <pt x="257" y="85" on="1"/>
      </contour>
      <contour>
        <pt x="287" y="-107" on="1"/>
        <pt x="280" y="-145" on="0"/>
        <pt x="245" y="-200" on="0"/>
        <pt x="196" y="-235" on="0"/>
        <pt x="135" y="-252" on="0"/>
        <pt x="102" y="-252" on="1"/>
        <pt x="86" y="-252" on="0"/>
        <pt x="39" y="-242" on="0"/>
        <pt x="16" y="-236" on="1"/>
        <pt x="-10" y="-229" on="0"/>
        <pt x="-39" y="-219" on="1"/>
        <pt x="-11" y="-160" on="1"/>
        <pt x="16" y="-169" on="0"/>
        <pt x="41" y="-176" on="1"/>
        <pt x="62" y="-182" on="0"/>
        <pt x="103" y="-192" on="0"/>
        <pt x="113" y="-192" on="1"/>
        <pt x="152" y="-192" on="0"/>
        <pt x="217" y="-150" on="0"/>
        <pt x="224" y="-108" on="1"/>
        <pt x="246" y="12" on="1"/>
        <pt x="211" y="-4" on="0"/>
        <pt x="164" y="-9" on="0"/>
        <pt x="147" y="-9" on="1"/>
        <pt x="137" y="-9" on="1"/>
        <pt x="108" y="-9" on="0"/>
        <pt x="62" y="14" on="0"/>
        <pt x="32" y="53" on="0"/>
        <pt x="20" y="105" on="0"/>
        <pt x="25" y="135" on="1"/>
        <pt x="66" y="366" on="1"/>
        <pt x="71" y="396" on="0"/>
        <pt x="102" y="448" on="0"/>
        <pt x="146" y="487" on="0"/>
        <pt x="199" y="510" on="0"/>
        <pt x="228" y="510" on="1"/>
        <pt x="250" y="510" on="0"/>
        <pt x="307" y="496" on="0"/>
        <pt x="338" y="482" on="1"/>
        <pt x="375" y="513" on="1"/>
        <pt x="412" y="468" on="1"/>
        <pt x="384" y="445" on="1"/>
      </contour>
    </TTGlyph>
    <TTGlyph name="germandbls" xMin="12" yMin="0" xMax="479" yMax="705">
      <contour>
        <pt x="444" y="188" on="1"/>
        <pt x="440" y="164" on="0"/>
        <pt x="414" y="100" on="0"/>
        <pt x="363" y="41" on="0"/>
        <pt x="284" y="0" on="0"/>
        <pt x="226" y="0" on="1"/>
        <pt x="168" y="0" on="1"/>
        <pt x="179" y="66" on="1"/>
        <pt x="235" y="66" on="1"/>
        <pt x="251" y="66" on="0"/>
        <pt x="294" y="75" on="0"/>
        <pt x="335" y="101" on="0"/>
        <pt x="369" y="149" on="0"/>
        <pt x="376" y="188" on="1"/>
        <pt x="383" y="230" on="1"/>
        <pt x="390" y="269" on="0"/>
        <pt x="376" y="317" on="0"/>
        <pt x="347" y="343" on="0"/>
        <pt x="310" y="351" on="0"/>
        <pt x="294" y="351" on="1"/>
        <pt x="264" y="351" on="1"/>
        <pt x="276" y="417" on="1"/>
        <pt x="308" y="417" on="1"/>
        <pt x="350" y="417" on="0"/>
        <pt x="401" y="471" on="0"/>
        <pt x="409" y="518" on="1"/>
        <pt x="416" y="557" on="0"/>
        <pt x="399" y="605" on="0"/>
        <pt x="367" y="631" on="0"/>
        <pt x="328" y="639" on="0"/>
        <pt x="312" y="639" on="1"/>
        <pt x="296" y="639" on="0"/>
        <pt x="253" y="631" on="0"/>
        <pt x="211" y="605" on="0"/>
        <pt x="177" y="557" on="0"/>
        <pt x="170" y="518" on="1"/>
        <pt x="79" y="0" on="1"/>
        <pt x="12" y="0" on="1"/>
        <pt x="103" y="520" on="1"/>
        <pt x="107" y="542" on="0"/>
        <pt x="133" y="606" on="0"/>
        <pt x="184" y="664" on="0"/>
        <pt x="265" y="705" on="0"/>
        <pt x="324" y="705" on="1"/>
        <pt x="382" y="705" on="0"/>
        <pt x="447" y="664" on="0"/>
        <pt x="477" y="605" on="0"/>
        <pt x="480" y="541" on="0"/>
        <pt x="476" y="518" on="1"/>
        <pt x="469" y="480" on="0"/>
        <pt x="426" y="406" on="0"/>
        <pt x="390" y="388" on="1"/>
        <pt x="416" y="374" on="0"/>
        <pt x="444" y="334" on="0"/>
        <pt x="455" y="289" on="0"/>
        <pt x="454" y="247" on="0"/>
        <pt x="451" y="232" on="1"/>
        <pt x="444" y="188" on="1"/>
      </contour>
    </TTGlyph>
    <TTGlyph name="grave" xMin="214" yMin="573" xMax="367" yMax="730">
      <contour>
        <pt x="300" y="573" on="1"/>
        <pt x="214" y="730" on="1"/>
        <pt x="291" y="730" on="1"/>
        <pt x="367" y="573" on="1"/>
      </contour>
    </TTGlyph>
    <TTGlyph name="greater" xMin="46" yMin="169" xMax="449" yMax="439">
      <contour>
        <pt x="231" y="273" on="1"/>
        <pt x="230" y="273" on="1"/>
        <pt x="246" y="277" on="0"/>
        <pt x="292" y="285" on="0"/>
        <pt x="314" y="290" on="1"/>
        <pt x="359" y="300" on="1"/>
        <pt x="361" y="307" on="1"/>
        <pt x="242" y="335" on="1"/>
        <pt x="243" y="335" on="1"/>
        <pt x="82" y="371" on="1"/>
        <pt x="94" y="439" on="1"/>
        <pt x="449" y="353" on="1"/>
        <pt x="432" y="259" on="1"/>
        <pt x="46" y="169" on="1"/>
        <pt x="58" y="236" on="1"/>
      </contour>
    </TTGlyph>
    <TTGlyph name="h" xMin="10" yMin="0" xMax="378" yMax="695">
      <contour>
        <pt x="252" y="0" on="1"/>
        <pt x="317" y="369" on="1"/>
        <pt x="322" y="401" on="0"/>
        <pt x="286" y="446" on="0"/>
        <pt x="256" y="446" on="1"/>
        <pt x="239" y="446" on="0"/>
        <pt x="177" y="434" on="0"/>
        <pt x="146" y="415" on="1"/>
        <pt x="73" y="0" on="1"/>
        <pt x="10" y="0" on="1"/>
        <pt x="132" y="695" on="1"/>
        <pt x="195" y="695" on="1"/>
        <pt x="158" y="486" on="1"/>
        <pt x="199" y="505" on="0"/>
        <pt x="251" y="510" on="0"/>
        <pt x="267" y="510" on="1"/>
        <pt x="295" y="510" on="0"/>
        <pt x="341" y="487" on="0"/>
        <pt x="371" y="448" on="0"/>
        <pt x="383" y="396" on="0"/>
        <pt x="378" y="366" on="1"/>
        <pt x="314" y="0" on="1"/>
      </contour>
    </TTGlyph>
    <TTGlyph name="hyphen" xMin="62" yMin="314" xMax="322" yMax="390">
      <contour>
        <pt x="62" y="314" on="1"/>
        <pt x="75" y="390" on="1"/>
        <pt x="322" y="390" on="1"/>
        <pt x="309" y="314" on="1"/>
      </contour>
    </TTGlyph>
    <TTGlyph name="i" xMin="10" yMin="0" xMax="198" yMax="695">
      <contour>
        <pt x="132" y="695" on="1"/>
        <pt x="198" y="695" on="1"/>
        <pt x="182" y="605" on="1"/>
        <pt x="116" y="605" on="1"/>
      </contour>
      <contour>
        <pt x="98" y="500" on="1"/>
        <pt x="164" y="500" on="1"/>
        <pt x="76" y="0" on="1"/>
        <pt x="10" y="0" on="1"/>
      </contour>
    </TTGlyph>
    <TTGlyph name="iacute" xMin="10" yMin="0" xMax="320" yMax="738">
      <contour>
        <pt x="98" y="500" on="1"/>
        <pt x="164" y="500" on="1"/>
        <pt x="76" y="0" on="1"/>
        <pt x="10" y="0" on="1"/>
      </contour>
      <contour>
        <pt x="180" y="581" on="1"/>
        <pt x="113" y="581" on="1"/>
        <pt x="243" y="738" on="1"/>
        <pt x="320" y="738" on="1"/>
      </contour>
    </TTGlyph>
    <TTGlyph name="icircumflex" xMin="10" yMin="0" xMax="287" yMax="744">
      <component glyphName="i" x="0" y="0" flags="0x1204"/>
      <component glyphName="circumflex" x="-152" y="0" flags="0x1004"/>
    </TTGlyph>
    <TTGlyph name="idieresis" xMin="10" yMin="0" xMax="297" yMax="679">
      <contour>
        <pt x="98" y="500" on="1"/>
        <pt x="163" y="500" on="1"/>
        <pt x="75" y="0" on="1"/>
        <pt x="10" y="0" on="1"/>
      </contour>
      <contour>
        <pt x="211" y="591" on="1"/>
        <pt x="227" y="679" on="1"/>
        <pt x="297" y="679" on="1"/>
        <pt x="281" y="591" on="1"/>
      </contour>
      <contour>
        <pt x="19" y="591" on="1"/>
        <pt x="35" y="679" on="1"/>
        <pt x="105" y="679" on="1"/>
        <pt x="89" y="591" on="1"/>
      </contour>
    </TTGlyph>
    <TTGlyph name="igrave" xMin="10" yMin="0" xMax="182" yMax="737">
      <contour>
        <pt x="98" y="500" on="1"/>
        <pt x="163" y="500" on="1"/>
        <pt x="75" y="0" on="1"/>
        <pt x="10" y="0" on="1"/>
      </contour>
      <contour>
        <pt x="115" y="580" on="1"/>
        <pt x="29" y="737" on="1"/>
        <pt x="106" y="737" on="1"/>
        <pt x="182" y="580" on="1"/>
      </contour>
    </TTGlyph>
    <TTGlyph name="j" xMin="-112" yMin="-237" xMax="198" yMax="694">
      <contour>
        <pt x="97" y="501" on="1"/>
        <pt x="164" y="501" on="1"/>
        <pt x="57" y="-103" on="1"/>
        <pt x="45" y="-174" on="0"/>
        <pt x="-36" y="-237" on="0"/>
        <pt x="-88" y="-237" on="1"/>
        <pt x="-112" y="-237" on="1"/>
        <pt x="-101" y="-171" on="1"/>
        <pt x="-81" y="-171" on="1"/>
        <pt x="-57" y="-171" on="0"/>
        <pt x="-15" y="-142" on="0"/>
        <pt x="-8" y="-108" on="1"/>
      </contour>
      <contour>
        <pt x="131" y="694" on="1"/>
        <pt x="198" y="694" on="1"/>
        <pt x="183" y="608" on="1"/>
        <pt x="116" y="608" on="1"/>
      </contour>
    </TTGlyph>
    <TTGlyph name="k" xMin="10" yMin="0" xMax="354" yMax="695">
      <contour>
        <pt x="198" y="0" on="1"/>
        <pt x="134" y="232" on="1"/>
        <pt x="113" y="232" on="1"/>
        <pt x="73" y="0" on="1"/>
        <pt x="10" y="0" on="1"/>
        <pt x="132" y="695" on="1"/>
        <pt x="195" y="695" on="1"/>
        <pt x="126" y="305" on="1"/>
        <pt x="146" y="305" on="1"/>
        <pt x="284" y="499" on="1"/>
        <pt x="354" y="499" on="1"/>
        <pt x="191" y="268" on="1"/>
        <pt x="268" y="0" on="1"/>
      </contour>
    </TTGlyph>
    <TTGlyph name="l" xMin="39" yMin="1" xMax="202" yMax="695">
      <contour>
        <pt x="138" y="695" on="1"/>
        <pt x="202" y="695" on="1"/>
        <pt x="102" y="130" on="1"/>
        <pt x="96" y="94" on="0"/>
        <pt x="127" y="67" on="0"/>
        <pt x="152" y="67" on="1"/>
        <pt x="172" y="67" on="1"/>
        <pt x="161" y="1" on="1"/>
        <pt x="136" y="1" on="1"/>
        <pt x="85" y="1" on="0"/>
        <pt x="27" y="64" on="0"/>
        <pt x="39" y="135" on="1"/>
      </contour>
    </TTGlyph>
    <TTGlyph name="less" xMin="42" yMin="164" xMax="443" yMax="434">
      <contour>
        <pt x="407" y="232" on="1"/>
        <pt x="395" y="164" on="1"/>
        <pt x="42" y="254" on="1"/>
        <pt x="59" y="348" on="1"/>
        <pt x="443" y="434" on="1"/>
        <pt x="431" y="366" on="1"/>
        <pt x="258" y="330" on="1"/>
        <pt x="259" y="330" on="1"/>
        <pt x="243" y="326" on="0"/>
        <pt x="199" y="318" on="0"/>
        <pt x="179" y="313" on="1"/>
        <pt x="155" y="308" on="0"/>
        <pt x="130" y="303" on="1"/>
        <pt x="129" y="295" on="1"/>
        <pt x="134" y="294" on="0"/>
        <pt x="156" y="289" on="0"/>
        <pt x="171" y="285" on="1"/>
        <pt x="170" y="285" on="1"/>
        <pt x="190" y="280" on="0"/>
        <pt x="235" y="272" on="0"/>
        <pt x="249" y="268" on="1"/>
      </contour>
    </TTGlyph>
    <TTGlyph name="lslash" xMin="8" yMin="1" xMax="367" yMax="695">
      <contour>
        <pt x="173" y="203" on="1"/>
        <pt x="160" y="130" on="1"/>
        <pt x="154" y="94" on="0"/>
        <pt x="185" y="67" on="0"/>
        <pt x="211" y="67" on="1"/>
        <pt x="230" y="67" on="1"/>
        <pt x="219" y="1" on="1"/>
        <pt x="195" y="1" on="1"/>
        <pt x="144" y="1" on="0"/>
        <pt x="85" y="64" on="0"/>
        <pt x="97" y="135" on="1"/>
        <pt x="109" y="203" on="1"/>
        <pt x="8" y="203" on="1"/>
        <pt x="20" y="269" on="1"/>
        <pt x="121" y="269" on="1"/>
        <pt x="196" y="695" on="1"/>
        <pt x="260" y="695" on="1"/>
        <pt x="185" y="269" on="1"/>
        <pt x="367" y="269" on="1"/>
        <pt x="355" y="203" on="1"/>
      </contour>
    </TTGlyph>
    <TTGlyph name="m" xMin="11" yMin="0" xMax="636" yMax="512">
      <contour>
        <pt x="324" y="373" on="1"/>
        <pt x="327" y="388" on="0"/>
        <pt x="316" y="415" on="0"/>
        <pt x="293" y="435" on="0"/>
        <pt x="263" y="446" on="0"/>
        <pt x="246" y="446" on="1"/>
        <pt x="238" y="446" on="0"/>
        <pt x="212" y="441" on="0"/>
        <pt x="183" y="432" on="0"/>
        <pt x="156" y="421" on="0"/>
        <pt x="147" y="415" on="1"/>
        <pt x="74" y="0" on="1"/>
        <pt x="11" y="0" on="1"/>
        <pt x="89" y="444" on="1"/>
        <pt x="68" y="468" on="1"/>
        <pt x="121" y="512" on="1"/>
        <pt x="145" y="481" on="1"/>
        <pt x="173" y="495" on="0"/>
        <pt x="226" y="510" on="0"/>
        <pt x="251" y="510" on="1"/>
        <pt x="293" y="510" on="0"/>
        <pt x="360" y="476" on="0"/>
        <pt x="372" y="442" on="1"/>
        <pt x="409" y="483" on="0"/>
        <pt x="490" y="510" on="0"/>
        <pt x="525" y="510" on="1"/>
        <pt x="562" y="510" on="0"/>
        <pt x="609" y="479" on="0"/>
        <pt x="633" y="431" on="0"/>
        <pt x="638" y="376" on="0"/>
        <pt x="634" y="352" on="1"/>
        <pt x="572" y="0" on="1"/>
        <pt x="508" y="0" on="1"/>
        <pt x="570" y="352" on="1"/>
        <pt x="573" y="369" on="0"/>
        <pt x="571" y="402" on="0"/>
        <pt x="558" y="429" on="0"/>
        <pt x="532" y="446" on="0"/>
        <pt x="511" y="446" on="1"/>
        <pt x="454" y="446" on="0"/>
        <pt x="390" y="381" on="0"/>
        <pt x="379" y="321" on="1"/>
        <pt x="323" y="0" on="1"/>
        <pt x="259" y="0" on="1"/>
      </contour>
    </TTGlyph>
    <TTGlyph name="minus" xMin="58" yMin="244" xMax="418" yMax="320">
      <contour>
        <pt x="58" y="244" on="1"/>
        <pt x="71" y="320" on="1"/>
        <pt x="418" y="320" on="1"/>
        <pt x="405" y="244" on="1"/>
      </contour>
    </TTGlyph>
    <TTGlyph name="mu" xMin="-16" yMin="-202" xMax="419" yMax="502">
      <contour>
        <pt x="-16" y="-202" on="1"/>
        <pt x="43" y="135" on="1"/>
        <pt x="44" y="144" on="0"/>
        <pt x="48" y="168" on="0"/>
        <pt x="50" y="179" on="1"/>
        <pt x="108" y="502" on="1"/>
        <pt x="171" y="500" on="1"/>
        <pt x="109" y="149" on="1"/>
        <pt x="101" y="103" on="0"/>
        <pt x="142" y="54" on="0"/>
        <pt x="172" y="54" on="1"/>
        <pt x="201" y="54" on="0"/>
        <pt x="263" y="75" on="0"/>
        <pt x="283" y="86" on="1"/>
        <pt x="356" y="500" on="1"/>
        <pt x="419" y="500" on="1"/>
        <pt x="341" y="58" on="1"/>
        <pt x="362" y="35" on="1"/>
        <pt x="309" y="-10" on="1"/>
        <pt x="284" y="20" on="1"/>
        <pt x="254" y="6" on="0"/>
        <pt x="187" y="-8" on="0"/>
        <pt x="162" y="-8" on="1"/>
        <pt x="141" y="-8" on="0"/>
        <pt x="101" y="2" on="0"/>
        <pt x="84" y="16" on="1"/>
        <pt x="46" y="-202" on="1"/>
      </contour>
    </TTGlyph>
    <TTGlyph name="multiply" xMin="24" yMin="93" xMax="422" yMax="446">
      <contour>
        <pt x="325" y="93" on="1"/>
        <pt x="215" y="226" on="1"/>
        <pt x="60" y="93" on="1"/>
        <pt x="24" y="137" on="1"/>
        <pt x="180" y="269" on="1"/>
        <pt x="70" y="402" on="1"/>
        <pt x="122" y="446" on="1"/>
        <pt x="231" y="313" on="1"/>
        <pt x="387" y="446" on="1"/>
        <pt x="422" y="402" on="1"/>
        <pt x="267" y="269" on="1"/>
        <pt x="376" y="137" on="1"/>
      </contour>
    </TTGlyph>
    <TTGlyph name="n" xMin="11" yMin="0" xMax="387" yMax="511">
      <contour>
        <pt x="381" y="425" on="1"/>
        <pt x="389" y="399" on="0"/>
        <pt x="384" y="349" on="0"/>
        <pt x="379" y="322" on="1"/>
        <pt x="323" y="0" on="1"/>
        <pt x="258" y="0" on="1"/>
        <pt x="320" y="352" on="1"/>
        <pt x="327" y="398" on="0"/>
        <pt x="287" y="447" on="0"/>
        <pt x="257" y="447" on="1"/>
        <pt x="240" y="447" on="0"/>
        <pt x="185" y="438" on="0"/>
        <pt x="147" y="415" on="1"/>
        <pt x="74" y="0" on="1"/>
        <pt x="11" y="0" on="1"/>
        <pt x="89" y="443" on="1"/>
        <pt x="69" y="466" on="1"/>
        <pt x="121" y="511" on="1"/>
        <pt x="146" y="481" on="1"/>
        <pt x="203" y="509" on="0"/>
        <pt x="251" y="509" on="1"/>
        <pt x="273" y="509" on="0"/>
        <pt x="316" y="500" on="0"/>
        <pt x="350" y="480" on="0"/>
        <pt x="375" y="448" on="0"/>
      </contour>
    </TTGlyph>
    <TTGlyph name="nine" xMin="9" yMin="-11" xMax="401" yMax="652">
      <contour>
        <pt x="227" y="304" on="1"/>
        <pt x="257" y="304" on="0"/>
        <pt x="308" y="350" on="0"/>
        <pt x="314" y="382" on="1"/>
        <pt x="337" y="516" on="1"/>
        <pt x="344" y="551" on="0"/>
        <pt x="299" y="589" on="0"/>
        <pt x="267" y="589" on="1"/>
        <pt x="229" y="589" on="0"/>
        <pt x="168" y="558" on="0"/>
        <pt x="160" y="516" on="1"/>
        <pt x="137" y="382" on="1"/>
        <pt x="131" y="350" on="0"/>
        <pt x="165" y="304" on="0"/>
        <pt x="196" y="304" on="1"/>
      </contour>
      <contour>
        <pt x="289" y="652" on="1"/>
        <pt x="317" y="652" on="0"/>
        <pt x="363" y="630" on="0"/>
        <pt x="394" y="593" on="0"/>
        <pt x="406" y="542" on="0"/>
        <pt x="401" y="512" on="1"/>
        <pt x="336" y="144" on="1"/>
        <pt x="330" y="110" on="0"/>
        <pt x="295" y="53" on="0"/>
        <pt x="245" y="12" on="0"/>
        <pt x="184" y="-11" on="0"/>
        <pt x="151" y="-11" on="1"/>
        <pt x="145" y="-11" on="0"/>
        <pt x="100" y="-1" on="0"/>
        <pt x="74" y="5" on="1"/>
        <pt x="44" y="12" on="0"/>
        <pt x="9" y="22" on="1"/>
        <pt x="38" y="82" on="1"/>
        <pt x="71" y="73" on="0"/>
        <pt x="97" y="66" on="1"/>
        <pt x="120" y="60" on="0"/>
        <pt x="158" y="51" on="0"/>
        <pt x="161" y="51" on="1"/>
        <pt x="180" y="51" on="0"/>
        <pt x="218" y="64" on="0"/>
        <pt x="249" y="89" on="0"/>
        <pt x="270" y="123" on="0"/>
        <pt x="274" y="144" on="1"/>
        <pt x="295" y="263" on="1"/>
        <pt x="282" y="256" on="0"/>
        <pt x="251" y="248" on="0"/>
        <pt x="220" y="243" on="0"/>
        <pt x="193" y="241" on="0"/>
        <pt x="185" y="241" on="1"/>
        <pt x="156" y="241" on="0"/>
        <pt x="111" y="264" on="0"/>
        <pt x="81" y="303" on="0"/>
        <pt x="69" y="355" on="0"/>
        <pt x="74" y="385" on="1"/>
        <pt x="97" y="512" on="1"/>
        <pt x="102" y="542" on="0"/>
        <pt x="132" y="593" on="0"/>
        <pt x="175" y="630" on="0"/>
        <pt x="228" y="652" on="0"/>
        <pt x="257" y="652" on="1"/>
      </contour>
    </TTGlyph>
    <TTGlyph name="ntilde" xMin="11" yMin="0" xMax="417" yMax="651">
      <component glyphName="n" x="0" y="0" flags="0x1204"/>
      <component glyphName="tilde" x="-85" y="0" flags="0x1004"/>
    </TTGlyph>
    <TTGlyph name="o" xMin="26" yMin="-6" xMax="377" yMax="510">
      <contour>
        <pt x="318" y="358" on="1"/>
        <pt x="323" y="388" on="0"/>
        <pt x="308" y="423" on="0"/>
        <pt x="281" y="442" on="0"/>
        <pt x="248" y="448" on="0"/>
        <pt x="236" y="448" on="1"/>
        <pt x="224" y="448" on="0"/>
        <pt x="189" y="442" on="0"/>
        <pt x="155" y="423" on="0"/>
        <pt x="127" y="388" on="0"/>
        <pt x="122" y="358" on="1"/>
        <pt x="84" y="147" on="1"/>
        <pt x="79" y="117" on="0"/>
        <pt x="94" y="81" on="0"/>
        <pt x="122" y="62" on="0"/>
        <pt x="155" y="55" on="0"/>
        <pt x="167" y="55" on="1"/>
        <pt x="179" y="55" on="0"/>
        <pt x="213" y="62" on="0"/>
        <pt x="247" y="81" on="0"/>
        <pt x="275" y="117" on="0"/>
        <pt x="280" y="147" on="1"/>
      </contour>
      <contour>
        <pt x="337" y="140" on="1"/>
        <pt x="329" y="93" on="0"/>
        <pt x="284" y="36" on="0"/>
        <pt x="230" y="4" on="0"/>
        <pt x="175" y="-6" on="0"/>
        <pt x="156" y="-6" on="1"/>
        <pt x="137" y="-6" on="0"/>
        <pt x="85" y="4" on="0"/>
        <pt x="42" y="36" on="0"/>
        <pt x="18" y="93" on="0"/>
        <pt x="26" y="140" on="1"/>
        <pt x="66" y="365" on="1"/>
        <pt x="74" y="412" on="0"/>
        <pt x="119" y="469" on="0"/>
        <pt x="173" y="500" on="0"/>
        <pt x="228" y="510" on="0"/>
        <pt x="247" y="510" on="1"/>
        <pt x="266" y="510" on="0"/>
        <pt x="317" y="500" on="0"/>
        <pt x="361" y="469" on="0"/>
        <pt x="385" y="412" on="0"/>
        <pt x="377" y="365" on="1"/>
      </contour>
    </TTGlyph>
    <TTGlyph name="oacute" xMin="27" yMin="-6" xMax="424" yMax="731">
      <component glyphName="o" x="1" y="0" flags="0x1204"/>
      <component glyphName="acute" x="-75" y="0" flags="0x1004"/>
    </TTGlyph>
    <TTGlyph name="ocircumflex" xMin="27" yMin="-6" xMax="403" yMax="744">
      <component glyphName="o" x="1" y="0" flags="0x1204"/>
      <component glyphName="circumflex" x="-36" y="0" flags="0x1004"/>
    </TTGlyph>
    <TTGlyph name="odieresis" xMin="27" yMin="-6" xMax="407" yMax="672">
      <component glyphName="o" x="1" y="0" flags="0x1204"/>
      <component glyphName="dieresis" x="-71" y="0" flags="0x1004"/>
    </TTGlyph>
    <TTGlyph name="oe" xMin="27" yMin="-9" xMax="633" yMax="510">
      <contour>
        <pt x="318" y="356" on="1"/>
        <pt x="323" y="386" on="0"/>
        <pt x="308" y="421" on="0"/>
        <pt x="281" y="440" on="0"/>
        <pt x="249" y="446" on="0"/>
        <pt x="237" y="446" on="1"/>
        <pt x="225" y="446" on="0"/>
        <pt x="190" y="440" on="0"/>
        <pt x="156" y="421" on="0"/>
        <pt x="128" y="386" on="0"/>
        <pt x="123" y="356" on="1"/>
        <pt x="86" y="145" on="1"/>
        <pt x="81" y="115" on="0"/>
        <pt x="96" y="80" on="0"/>
        <pt x="123" y="60" on="0"/>
        <pt x="156" y="54" on="0"/>
        <pt x="168" y="54" on="1"/>
        <pt x="180" y="54" on="0"/>
        <pt x="214" y="60" on="0"/>
        <pt x="248" y="80" on="0"/>
        <pt x="276" y="115" on="0"/>
        <pt x="281" y="145" on="1"/>
      </contour>
      <contour>
        <pt x="339" y="138" on="1"/>
        <pt x="331" y="91" on="0"/>
        <pt x="286" y="34" on="0"/>
        <pt x="232" y="2" on="0"/>
        <pt x="176" y="-8" on="0"/>
        <pt x="157" y="-8" on="1"/>
        <pt x="138" y="-8" on="0"/>
        <pt x="87" y="2" on="0"/>
        <pt x="43" y="34" on="0"/>
        <pt x="19" y="91" on="0"/>
        <pt x="27" y="138" on="1"/>
        <pt x="67" y="363" on="1"/>
        <pt x="75" y="410" on="0"/>
        <pt x="120" y="467" on="0"/>
        <pt x="174" y="498" on="0"/>
        <pt x="229" y="508" on="0"/>
        <pt x="248" y="508" on="1"/>
        <pt x="267" y="508" on="0"/>
        <pt x="319" y="498" on="0"/>
        <pt x="363" y="467" on="0"/>
        <pt x="387" y="410" on="0"/>
        <pt x="379" y="363" on="1"/>
      </contour>
      <contour>
        <pt x="473" y="248" on="1"/>
        <pt x="505" y="248" on="0"/>
        <pt x="556" y="297" on="0"/>
        <pt x="562" y="329" on="1"/>
        <pt x="569" y="370" on="1"/>
        <pt x="573" y="391" on="0"/>
        <pt x="562" y="420" on="0"/>
        <pt x="538" y="438" on="0"/>
        <pt x="504" y="446" on="0"/>
        <pt x="485" y="446" on="1"/>
        <pt x="450" y="446" on="0"/>
        <pt x="392" y="405" on="0"/>
        <pt x="386" y="370" on="1"/>
        <pt x="364" y="249" on="1"/>
      </contour>
      <contour>
        <pt x="320" y="365" on="1"/>
        <pt x="325" y="395" on="0"/>
        <pt x="356" y="448" on="0"/>
        <pt x="401" y="487" on="0"/>
        <pt x="455" y="510" on="0"/>
        <pt x="484" y="510" on="1"/>
        <pt x="518" y="510" on="1"/>
        <pt x="547" y="510" on="0"/>
        <pt x="594" y="488" on="0"/>
        <pt x="625" y="449" on="0"/>
        <pt x="638" y="396" on="0"/>
        <pt x="633" y="365" on="1"/>
        <pt x="627" y="333" on="1"/>
        <pt x="619" y="290" on="0"/>
        <pt x="579" y="232" on="0"/>
        <pt x="520" y="196" on="0"/>
        <pt x="447" y="180" on="0"/>
        <pt x="408" y="180" on="1"/>
        <pt x="380" y="180" on="0"/>
        <pt x="353" y="183" on="1"/>
        <pt x="344" y="133" on="1"/>
        <pt x="345" y="98" on="0"/>
        <pt x="392" y="54" on="0"/>
        <pt x="427" y="54" on="1"/>
        <pt x="435" y="54" on="0"/>
        <pt x="481" y="63" on="0"/>
        <pt x="505" y="68" on="1"/>
        <pt x="533" y="74" on="0"/>
        <pt x="566" y="83" on="1"/>
        <pt x="571" y="18" on="1"/>
        <pt x="537" y="10" on="0"/>
        <pt x="506" y="4" on="1"/>
        <pt x="480" y="-1" on="0"/>
        <pt x="428" y="-9" on="0"/>
        <pt x="416" y="-9" on="1"/>
        <pt x="383" y="-9" on="0"/>
        <pt x="328" y="15" on="0"/>
        <pt x="292" y="57" on="0"/>
        <pt x="276" y="115" on="0"/>
        <pt x="282" y="150" on="1"/>
      </contour>
    </TTGlyph>
    <TTGlyph name="ograve" xMin="26" yMin="-6" xMax="377" yMax="730">
      <component glyphName="o" x="0" y="0" flags="0x1204"/>
      <component glyphName="grave" x="-71" y="0" flags="0x1004"/>
    </TTGlyph>
    <TTGlyph name="one" xMin="25" yMin="1" xMax="205" yMax="650">
      <contour>
        <pt x="133" y="617" on="1"/>
        <pt x="205" y="650" on="1"/>
        <pt x="91" y="1" on="1"/>
        <pt x="25" y="1" on="1"/>
      </contour>
    </TTGlyph>
    <TTGlyph name="oslash" xMin="26" yMin="-88" xMax="377" yMax="605">
      <component glyphName="o" x="0" y="0" flags="0x1004"/>
      <component glyphName="slash" x="58" y="-89" flags="0x1004"/>
    </TTGlyph>
    <TTGlyph name="otilde" xMin="27" yMin="-6" xMax="416" yMax="651">
      <component glyphName="o" x="1" y="0" flags="0x1204"/>
      <component glyphName="tilde" x="-86" y="0" flags="0x1004"/>
    </TTGlyph>
    <TTGlyph name="p" xMin="-32" yMin="-243" xMax="378" yMax="513">
      <contour>
        <pt x="88" y="85" on="1"/>
        <pt x="98" y="78" on="0"/>
        <pt x="126" y="67" on="0"/>
        <pt x="154" y="59" on="0"/>
        <pt x="179" y="54" on="0"/>
        <pt x="187" y="54" on="1"/>
        <pt x="218" y="54" on="0"/>
        <pt x="269" y="99" on="0"/>
        <pt x="275" y="131" on="1"/>
        <pt x="317" y="370" on="1"/>
        <pt x="322" y="401" on="0"/>
        <pt x="287" y="446" on="0"/>
        <pt x="257" y="446" on="1"/>
        <pt x="240" y="446" on="0"/>
        <pt x="177" y="433" on="0"/>
        <pt x="146" y="414" on="1"/>
      </contour>
      <contour>
        <pt x="30" y="-243" on="1"/>
        <pt x="-32" y="-243" on="1"/>
        <pt x="89" y="445" on="1"/>
        <pt x="69" y="468" on="1"/>
        <pt x="120" y="513" on="1"/>
        <pt x="146" y="482" on="1"/>
        <pt x="181" y="497" on="0"/>
        <pt x="246" y="510" on="0"/>
        <pt x="267" y="510" on="1"/>
        <pt x="295" y="510" on="0"/>
        <pt x="341" y="487" on="0"/>
        <pt x="371" y="448" on="0"/>
        <pt x="383" y="396" on="0"/>
        <pt x="378" y="366" on="1"/>
        <pt x="337" y="134" on="1"/>
        <pt x="332" y="104" on="0"/>
        <pt x="301" y="52" on="0"/>
        <pt x="258" y="13" on="0"/>
        <pt x="204" y="-10" on="0"/>
        <pt x="176" y="-10" on="1"/>
        <pt x="162" y="-10" on="0"/>
        <pt x="107" y="-3" on="0"/>
        <pt x="75" y="14" on="1"/>
      </contour>
    </TTGlyph>
    <TTGlyph name="parenleft" xMin="20" yMin="-48" xMax="284" yMax="743">
      <contour>
        <pt x="114" y="609" on="1"/>
        <pt x="127" y="680" on="0"/>
        <pt x="208" y="743" on="0"/>
        <pt x="260" y="743" on="1"/>
        <pt x="284" y="743" on="1"/>
        <pt x="272" y="677" on="1"/>
        <pt x="252" y="677" on="1"/>
        <pt x="227" y="677" on="0"/>
        <pt x="186" y="650" on="0"/>
        <pt x="180" y="614" on="1"/>
        <pt x="86" y="82" on="1"/>
        <pt x="79" y="45" on="0"/>
        <pt x="111" y="18" on="0"/>
        <pt x="136" y="18" on="1"/>
        <pt x="156" y="18" on="1"/>
        <pt x="144" y="-48" on="1"/>
        <pt x="120" y="-48" on="1"/>
        <pt x="94" y="-48" on="0"/>
        <pt x="52" y="-33" on="0"/>
        <pt x="25" y="0" on="0"/>
        <pt x="16" y="51" on="0"/>
        <pt x="22" y="87" on="1"/>
      </contour>
    </TTGlyph>
    <TTGlyph name="parenright" xMin="-28" yMin="-49" xMax="236" yMax="743">
      <contour>
        <pt x="142" y="86" on="1"/>
        <pt x="129" y="14" on="0"/>
        <pt x="47" y="-49" on="0"/>
        <pt x="-4" y="-49" on="1"/>
        <pt x="-28" y="-49" on="1"/>
        <pt x="-16" y="18" on="1"/>
        <pt x="3" y="18" on="1"/>
        <pt x="28" y="18" on="0"/>
        <pt x="69" y="44" on="0"/>
        <pt x="76" y="81" on="1"/>
        <pt x="171" y="614" on="1"/>
        <pt x="177" y="650" on="0"/>
        <pt x="145" y="677" on="0"/>
        <pt x="120" y="677" on="1"/>
        <pt x="101" y="677" on="1"/>
        <pt x="113" y="743" on="1"/>
        <pt x="137" y="743" on="1"/>
        <pt x="162" y="743" on="0"/>
        <pt x="204" y="728" on="0"/>
        <pt x="231" y="695" on="0"/>
        <pt x="241" y="645" on="0"/>
        <pt x="235" y="609" on="1"/>
        <pt x="142" y="86" on="1"/>
      </contour>
    </TTGlyph>
    <TTGlyph name="period" xMin="5" yMin="5" xMax="104" yMax="104">
      <contour>
        <pt x="5" y="5" on="1"/>
        <pt x="23" y="104" on="1"/>
        <pt x="104" y="104" on="1"/>
        <pt x="86" y="5" on="1"/>
      </contour>
    </TTGlyph>
    <TTGlyph name="plus" xMin="31" yMin="95" xMax="388" yMax="439">
      <contour>
        <pt x="375" y="229" on="1"/>
        <pt x="241" y="229" on="1"/>
        <pt x="217" y="95" on="1"/>
        <pt x="141" y="95" on="1"/>
        <pt x="165" y="229" on="1"/>
        <pt x="31" y="229" on="1"/>
        <pt x="44" y="305" on="1"/>
        <pt x="178" y="305" on="1"/>
        <pt x="202" y="439" on="1"/>
        <pt x="278" y="439" on="1"/>
        <pt x="254" y="305" on="1"/>
        <pt x="388" y="305" on="1"/>
      </contour>
    </TTGlyph>
    <TTGlyph name="q" xMin="25" yMin="-243" xMax="411" yMax="512">
      <contour>
        <pt x="314" y="413" on="1"/>
        <pt x="283" y="436" on="0"/>
        <pt x="232" y="446" on="0"/>
        <pt x="215" y="446" on="1"/>
        <pt x="185" y="446" on="0"/>
        <pt x="134" y="401" on="0"/>
        <pt x="129" y="369" on="1"/>
        <pt x="87" y="131" on="1"/>
        <pt x="81" y="99" on="0"/>
        <pt x="116" y="54" on="0"/>
        <pt x="147" y="54" on="1"/>
        <pt x="154" y="54" on="0"/>
        <pt x="181" y="57" on="0"/>
        <pt x="211" y="64" on="0"/>
        <pt x="243" y="75" on="0"/>
        <pt x="256" y="84" on="1"/>
      </contour>
      <contour>
        <pt x="235" y="8" on="1"/>
        <pt x="207" y="-4" on="0"/>
        <pt x="164" y="-9" on="0"/>
        <pt x="148" y="-10" on="1"/>
        <pt x="139" y="-10" on="1"/>
        <pt x="110" y="-10" on="0"/>
        <pt x="64" y="13" on="0"/>
        <pt x="33" y="52" on="0"/>
        <pt x="20" y="104" on="0"/>
        <pt x="25" y="134" on="1"/>
        <pt x="66" y="365" on="1"/>
        <pt x="71" y="395" on="0"/>
        <pt x="101" y="447" on="0"/>
        <pt x="145" y="486" on="0"/>
        <pt x="198" y="509" on="0"/>
        <pt x="227" y="509" on="1"/>
        <pt x="247" y="509" on="0"/>
        <pt x="309" y="496" on="0"/>
        <pt x="338" y="482" on="1"/>
        <pt x="376" y="512" on="1"/>
        <pt x="411" y="467" on="1"/>
        <pt x="383" y="444" on="1"/>
        <pt x="262" y="-243" on="1"/>
        <pt x="200" y="-243" on="1"/>
        <pt x="245" y="12" on="1"/>
      </contour>
    </TTGlyph>
    <TTGlyph name="question" xMin="89" yMin="14" xMax="432" yMax="704">
      <contour>
        <pt x="143" y="14" on="1"/>
        <pt x="156" y="88" on="1"/>
        <pt x="102" y="88" on="1"/>
        <pt x="89" y="14" on="1"/>
      </contour>
      <contour>
        <pt x="432" y="531" on="1"/>
        <pt x="426" y="498" on="0"/>
        <pt x="399" y="452" on="0"/>
        <pt x="385" y="435" on="1"/>
        <pt x="209" y="226" on="1"/>
        <pt x="198" y="212" on="0"/>
        <pt x="180" y="183" on="0"/>
        <pt x="176" y="163" on="1"/>
        <pt x="171" y="136" on="1"/>
        <pt x="101" y="136" on="1"/>
        <pt x="106" y="162" on="1"/>
        <pt x="112" y="197" on="0"/>
        <pt x="139" y="245" on="0"/>
        <pt x="153" y="262" on="1"/>
        <pt x="194" y="311" on="0"/>
        <pt x="278" y="411" on="0"/>
        <pt x="320" y="460" on="1"/>
        <pt x="334" y="476" on="0"/>
        <pt x="360" y="514" on="0"/>
        <pt x="363" y="530" on="1"/>
        <pt x="367" y="554" on="0"/>
        <pt x="350" y="592" on="0"/>
        <pt x="319" y="619" on="0"/>
        <pt x="280" y="633" on="0"/>
        <pt x="264" y="633" on="1"/>
        <pt x="253" y="633" on="0"/>
        <pt x="228" y="627" on="0"/>
        <pt x="216" y="623" on="1"/>
        <pt x="108" y="585" on="1"/>
        <pt x="96" y="651" on="1"/>
        <pt x="191" y="687" on="1"/>
        <pt x="208" y="694" on="0"/>
        <pt x="259" y="704" on="0"/>
        <pt x="276" y="704" on="1"/>
        <pt x="313" y="704" on="0"/>
        <pt x="376" y="679" on="0"/>
        <pt x="419" y="633" on="0"/>
        <pt x="439" y="570" on="0"/>
      </contour>
    </TTGlyph>
    <TTGlyph name="questiondown" xMin="-28" yMin="-227" xMax="317" yMax="464">
      <contour>
        <pt x="317" y="464" on="1"/>
        <pt x="300" y="363" on="1"/>
        <pt x="219" y="363" on="1"/>
        <pt x="236" y="464" on="1"/>
      </contour>
      <contour>
        <pt x="-28" y="-67" on="1"/>
        <pt x="-23" y="-38" on="0"/>
        <pt x="2" y="5" on="0"/>
        <pt x="15" y="21" on="1"/>
        <pt x="191" y="231" on="1"/>
        <pt x="203" y="245" on="0"/>
        <pt x="224" y="278" on="0"/>
        <pt x="229" y="301" on="1"/>
        <pt x="231" y="314" on="1"/>
        <pt x="273" y="314" on="1"/>
        <pt x="271" y="302" on="1"/>
        <pt x="265" y="269" on="0"/>
        <pt x="242" y="227" on="0"/>
        <pt x="228" y="210" on="1"/>
        <pt x="186" y="161" on="0"/>
        <pt x="102" y="61" on="0"/>
        <pt x="61" y="12" on="1"/>
        <pt x="46" y="-5" on="0"/>
        <pt x="17" y="-47" on="0"/>
        <pt x="14" y="-66" on="1"/>
        <pt x="9" y="-93" on="0"/>
        <pt x="28" y="-136" on="0"/>
        <pt x="63" y="-167" on="0"/>
        <pt x="105" y="-183" on="0"/>
        <pt x="124" y="-183" on="1"/>
        <pt x="138" y="-183" on="0"/>
        <pt x="163" y="-177" on="0"/>
        <pt x="176" y="-172" on="1"/>
        <pt x="270" y="-138" on="1"/>
        <pt x="278" y="-177" on="1"/>
        <pt x="197" y="-209" on="1"/>
        <pt x="179" y="-216" on="0"/>
        <pt x="131" y="-227" on="0"/>
        <pt x="117" y="-227" on="1"/>
        <pt x="83" y="-227" on="0"/>
        <pt x="25" y="-204" on="0"/>
        <pt x="-16" y="-162" on="0"/>
        <pt x="-34" y="-103" on="0"/>
      </contour>
    </TTGlyph>
    <TTGlyph name="quotedbl" xMin="82" yMin="492" xMax="345" yMax="695">
      <contour>
        <pt x="335" y="637" on="1"/>
        <pt x="325" y="580" on="0"/>
        <pt x="261" y="510" on="0"/>
        <pt x="215" y="492" on="1"/>
        <pt x="209" y="562" on="1"/>
        <pt x="227" y="570" on="0"/>
        <pt x="259" y="604" on="0"/>
        <pt x="265" y="638" on="1"/>
        <pt x="275" y="695" on="1"/>
        <pt x="345" y="695" on="1"/>
      </contour>
      <contour>
        <pt x="207" y="637" on="1"/>
        <pt x="197" y="580" on="0"/>
        <pt x="133" y="510" on="0"/>
        <pt x="88" y="492" on="1"/>
        <pt x="82" y="562" on="1"/>
        <pt x="100" y="570" on="0"/>
        <pt x="131" y="604" on="0"/>
        <pt x="137" y="638" on="1"/>
        <pt x="147" y="695" on="1"/>
        <pt x="217" y="695" on="1"/>
      </contour>
    </TTGlyph>
    <TTGlyph name="quotedblleft" xMin="83" yMin="496" xMax="346" yMax="698">
      <contour>
        <pt x="93" y="554" on="1"/>
        <pt x="103" y="610" on="0"/>
        <pt x="167" y="681" on="0"/>
        <pt x="212" y="698" on="1"/>
        <pt x="219" y="628" on="1"/>
        <pt x="201" y="620" on="0"/>
        <pt x="169" y="586" on="0"/>
        <pt x="163" y="553" on="1"/>
        <pt x="153" y="496" on="1"/>
        <pt x="83" y="496" on="1"/>
      </contour>
      <contour>
        <pt x="220" y="554" on="1"/>
        <pt x="230" y="610" on="0"/>
        <pt x="294" y="681" on="0"/>
        <pt x="340" y="698" on="1"/>
        <pt x="346" y="628" on="1"/>
        <pt x="328" y="620" on="0"/>
        <pt x="297" y="586" on="0"/>
        <pt x="291" y="553" on="1"/>
        <pt x="281" y="496" on="1"/>
        <pt x="210" y="496" on="1"/>
      </contour>
    </TTGlyph>
    <TTGlyph name="quotedblright" xMin="81" yMin="492" xMax="345" yMax="695">
      <contour>
        <pt x="335" y="637" on="1"/>
        <pt x="325" y="580" on="0"/>
        <pt x="261" y="510" on="0"/>
        <pt x="215" y="492" on="1"/>
        <pt x="209" y="562" on="1"/>
        <pt x="227" y="570" on="0"/>
        <pt x="259" y="604" on="0"/>
        <pt x="265" y="638" on="1"/>
        <pt x="275" y="695" on="1"/>
        <pt x="345" y="695" on="1"/>
      </contour>
      <contour>
        <pt x="207" y="637" on="1"/>
        <pt x="197" y="580" on="0"/>
        <pt x="133" y="510" on="0"/>
        <pt x="88" y="492" on="1"/>
        <pt x="81" y="562" on="1"/>
        <pt x="100" y="570" on="0"/>
        <pt x="131" y="604" on="0"/>
        <pt x="137" y="638" on="1"/>
        <pt x="147" y="695" on="1"/>
        <pt x="217" y="695" on="1"/>
      </contour>
    </TTGlyph>
    <TTGlyph name="quotesinglbase" xMin="52" yMin="299" xMax="188" yMax="501">
      <contour>
        <pt x="178" y="444" on="1"/>
        <pt x="168" y="387" on="0"/>
        <pt x="104" y="316" on="0"/>
        <pt x="58" y="299" on="1"/>
        <pt x="52" y="369" on="1"/>
        <pt x="69" y="377" on="0"/>
        <pt x="101" y="411" on="0"/>
        <pt x="107" y="445" on="1"/>
        <pt x="117" y="501" on="1"/>
        <pt x="188" y="501" on="1"/>
        <pt x="178" y="444" on="1"/>
      </contour>
    </TTGlyph>
    <TTGlyph name="quotesingle" xMin="82" yMin="492" xMax="218" yMax="695">
      <contour>
        <pt x="208" y="637" on="1"/>
        <pt x="198" y="580" on="0"/>
        <pt x="134" y="510" on="0"/>
        <pt x="88" y="492" on="1"/>
        <pt x="82" y="562" on="1"/>
        <pt x="100" y="570" on="0"/>
        <pt x="131" y="604" on="0"/>
        <pt x="137" y="638" on="1"/>
        <pt x="147" y="695" on="1"/>
        <pt x="218" y="695" on="1"/>
        <pt x="208" y="637" on="1"/>
      </contour>
    </TTGlyph>
    <TTGlyph name="r" xMin="14" yMin="1" xMax="361" yMax="510">
      <contour>
        <pt x="316" y="413" on="1"/>
        <pt x="301" y="424" on="0"/>
        <pt x="279" y="437" on="0"/>
        <pt x="263" y="443" on="0"/>
        <pt x="247" y="444" on="0"/>
        <pt x="238" y="444" on="1"/>
        <pt x="224" y="444" on="0"/>
        <pt x="175" y="429" on="0"/>
        <pt x="147" y="408" on="1"/>
        <pt x="76" y="1" on="1"/>
        <pt x="14" y="1" on="1"/>
        <pt x="90" y="435" on="1"/>
        <pt x="85" y="441" on="0"/>
        <pt x="71" y="457" on="0"/>
        <pt x="66" y="463" on="1"/>
        <pt x="118" y="508" on="1"/>
        <pt x="146" y="475" on="1"/>
        <pt x="179" y="498" on="0"/>
        <pt x="232" y="510" on="0"/>
        <pt x="251" y="510" on="1"/>
        <pt x="271" y="510" on="0"/>
        <pt x="319" y="492" on="0"/>
        <pt x="361" y="466" on="1"/>
      </contour>
    </TTGlyph>
    <TTGlyph name="registered" xMin="51" yMin="-6" xMax="762" yMax="706">
      <contour>
        <pt x="762" y="350" on="1"/>
        <pt x="749" y="276" on="0"/>
        <pt x="671" y="147" on="0"/>
        <pt x="557" y="50" on="0"/>
        <pt x="417" y="-6" on="0"/>
        <pt x="344" y="-6" on="1"/>
        <pt x="270" y="-6" on="0"/>
        <pt x="151" y="50" on="0"/>
        <pt x="71" y="147" on="0"/>
        <pt x="38" y="276" on="0"/>
        <pt x="51" y="350" on="1"/>
        <pt x="64" y="424" on="0"/>
        <pt x="143" y="554" on="0"/>
        <pt x="257" y="650" on="0"/>
        <pt x="396" y="706" on="0"/>
        <pt x="470" y="706" on="1"/>
        <pt x="543" y="706" on="0"/>
        <pt x="663" y="650" on="0"/>
        <pt x="742" y="554" on="0"/>
        <pt x="775" y="424" on="0"/>
      </contour>
      <contour>
        <pt x="700" y="350" on="1"/>
        <pt x="711" y="411" on="0"/>
        <pt x="684" y="519" on="0"/>
        <pt x="618" y="598" on="0"/>
        <pt x="519" y="644" on="0"/>
        <pt x="459" y="644" on="1"/>
        <pt x="398" y="644" on="0"/>
        <pt x="283" y="598" on="0"/>
        <pt x="189" y="519" on="0"/>
        <pt x="124" y="411" on="0"/>
        <pt x="113" y="350" on="1"/>
        <pt x="102" y="289" on="0"/>
        <pt x="129" y="182" on="0"/>
        <pt x="195" y="102" on="0"/>
        <pt x="294" y="56" on="0"/>
        <pt x="355" y="56" on="1"/>
        <pt x="415" y="56" on="0"/>
        <pt x="530" y="102" on="0"/>
        <pt x="624" y="182" on="0"/>
        <pt x="689" y="289" on="0"/>
      </contour>
      <contour>
        <pt x="433" y="532" on="1"/>
        <pt x="422" y="532" on="0"/>
        <pt x="396" y="527" on="0"/>
        <pt x="385" y="524" on="1"/>
        <pt x="372" y="520" on="0"/>
        <pt x="358" y="516" on="1"/>
        <pt x="328" y="342" on="1"/>
        <pt x="400" y="342" on="1"/>
        <pt x="444" y="342" on="0"/>
        <pt x="507" y="395" on="0"/>
        <pt x="516" y="444" on="1"/>
        <pt x="524" y="493" on="0"/>
        <pt x="477" y="532" on="0"/>
      </contour>
      <contour>
        <pt x="449" y="323" on="1"/>
        <pt x="488" y="157" on="1"/>
        <pt x="468" y="157" on="1"/>
        <pt x="427" y="326" on="1"/>
        <pt x="416" y="323" on="0"/>
        <pt x="405" y="322" on="0"/>
        <pt x="400" y="322" on="1"/>
        <pt x="324" y="322" on="1"/>
        <pt x="295" y="157" on="1"/>
        <pt x="278" y="157" on="1"/>
        <pt x="344" y="533" on="1"/>
        <pt x="360" y="539" on="0"/>
        <pt x="377" y="543" on="1"/>
        <pt x="391" y="547" on="0"/>
        <pt x="425" y="553" on="0"/>
        <pt x="442" y="553" on="1"/>
        <pt x="464" y="553" on="0"/>
        <pt x="503" y="539" on="0"/>
        <pt x="530" y="511" on="0"/>
        <pt x="541" y="470" on="0"/>
        <pt x="537" y="444" on="1"/>
        <pt x="530" y="407" on="0"/>
        <pt x="484" y="343" on="0"/>
        <pt x="454" y="332" on="1"/>
      </contour>
    </TTGlyph>
    <TTGlyph name="s" xMin="-3" yMin="-10" xMax="329" yMax="510">
      <contour>
        <pt x="312" y="141" on="1"/>
        <pt x="299" y="66" on="0"/>
        <pt x="211" y="-10" on="0"/>
        <pt x="151" y="-10" on="1"/>
        <pt x="133" y="-10" on="0"/>
        <pt x="95" y="-3" on="0"/>
        <pt x="77" y="5" on="1"/>
        <pt x="-3" y="39" on="1"/>
        <pt x="31" y="94" on="1"/>
        <pt x="112" y="59" on="1"/>
        <pt x="136" y="50" on="0"/>
        <pt x="162" y="50" on="1"/>
        <pt x="193" y="50" on="0"/>
        <pt x="245" y="99" on="0"/>
        <pt x="253" y="145" on="1"/>
        <pt x="256" y="164" on="0"/>
        <pt x="246" y="191" on="0"/>
        <pt x="226" y="207" on="0"/>
        <pt x="200" y="215" on="0"/>
        <pt x="188" y="215" on="1"/>
        <pt x="152" y="215" on="0"/>
        <pt x="95" y="229" on="0"/>
        <pt x="60" y="262" on="0"/>
        <pt x="47" y="317" on="0"/>
        <pt x="55" y="359" on="1"/>
        <pt x="61" y="396" on="0"/>
        <pt x="93" y="453" on="0"/>
        <pt x="137" y="491" on="0"/>
        <pt x="191" y="510" on="0"/>
        <pt x="221" y="510" on="1"/>
        <pt x="239" y="510" on="0"/>
        <pt x="273" y="501" on="0"/>
        <pt x="293" y="494" on="1"/>
        <pt x="329" y="480" on="1"/>
        <pt x="294" y="425" on="1"/>
        <pt x="270" y="434" on="0"/>
        <pt x="243" y="444" on="0"/>
        <pt x="227" y="448" on="0"/>
        <pt x="219" y="449" on="0"/>
        <pt x="215" y="449" on="1"/>
        <pt x="210" y="449" on="1"/>
        <pt x="179" y="449" on="0"/>
        <pt x="122" y="399" on="0"/>
        <pt x="114" y="354" on="1"/>
        <pt x="111" y="335" on="0"/>
        <pt x="122" y="306" on="0"/>
        <pt x="143" y="286" on="0"/>
        <pt x="170" y="276" on="0"/>
        <pt x="182" y="276" on="1"/>
        <pt x="214" y="276" on="0"/>
        <pt x="268" y="265" on="0"/>
        <pt x="305" y="235" on="0"/>
        <pt x="319" y="183" on="0"/>
      </contour>
    </TTGlyph>
    <TTGlyph name="scaron" xMin="-3" yMin="-10" xMax="402" yMax="743">
      <component glyphName="s" x="0" y="0" flags="0x1204"/>
      <component glyphName="caron" x="-62" y="0" flags="0x1004"/>
    </TTGlyph>
    <TTGlyph name="semicolon" xMin="-28" yMin="-93" xMax="177" yMax="413">
      <contour>
        <pt x="114" y="52" on="1"/>
        <pt x="103" y="-5" on="0"/>
        <pt x="42" y="-76" on="0"/>
        <pt x="-3" y="-93" on="1"/>
        <pt x="-28" y="-25" on="1"/>
        <pt x="-9" y="-17" on="0"/>
        <pt x="28" y="20" on="0"/>
        <pt x="34" y="53" on="1"/>
        <pt x="44" y="109" on="1"/>
        <pt x="124" y="109" on="1"/>
      </contour>
      <contour>
        <pt x="80" y="312" on="1"/>
        <pt x="97" y="413" on="1"/>
        <pt x="177" y="413" on="1"/>
        <pt x="160" y="312" on="1"/>
      </contour>
    </TTGlyph>
    <TTGlyph name="seven" xMin="28" yMin="0" xMax="393" yMax="646">
      <contour>
        <pt x="95" y="646" on="1"/>
        <pt x="393" y="646" on="1"/>
        <pt x="381" y="574" on="1"/>
        <pt x="98" y="0" on="1"/>
        <pt x="28" y="0" on="1"/>
        <pt x="312" y="583" on="1"/>
        <pt x="84" y="583" on="1"/>
      </contour>
    </TTGlyph>
    <TTGlyph name="six" xMin="38" yMin="-7" xMax="384" yMax="652">
      <contour>
        <pt x="213" y="352" on="1"/>
        <pt x="198" y="352" on="0"/>
        <pt x="169" y="340" on="0"/>
        <pt x="145" y="319" on="0"/>
        <pt x="129" y="290" on="0"/>
        <pt x="126" y="274" on="1"/>
        <pt x="100" y="129" on="1"/>
        <pt x="93" y="91" on="0"/>
        <pt x="141" y="54" on="0"/>
        <pt x="177" y="54" on="1"/>
        <pt x="212" y="54" on="0"/>
        <pt x="270" y="89" on="0"/>
        <pt x="277" y="129" on="1"/>
        <pt x="303" y="274" on="1"/>
        <pt x="308" y="306" on="0"/>
        <pt x="274" y="352" on="0"/>
        <pt x="244" y="352" on="1"/>
      </contour>
      <contour>
        <pt x="148" y="-7" on="1"/>
        <pt x="120" y="-7" on="0"/>
        <pt x="75" y="15" on="0"/>
        <pt x="45" y="52" on="0"/>
        <pt x="33" y="103" on="0"/>
        <pt x="38" y="133" on="1"/>
        <pt x="102" y="497" on="1"/>
        <pt x="108" y="531" on="0"/>
        <pt x="143" y="588" on="0"/>
        <pt x="192" y="629" on="0"/>
        <pt x="254" y="652" on="0"/>
        <pt x="287" y="652" on="1"/>
        <pt x="292" y="652" on="0"/>
        <pt x="324" y="645" on="0"/>
        <pt x="341" y="641" on="1"/>
        <pt x="360" y="636" on="0"/>
        <pt x="384" y="630" on="1"/>
        <pt x="355" y="571" on="1"/>
        <pt x="335" y="576" on="0"/>
        <pt x="318" y="580" on="1"/>
        <pt x="304" y="584" on="0"/>
        <pt x="279" y="590" on="0"/>
        <pt x="277" y="590" on="1"/>
        <pt x="257" y="590" on="0"/>
        <pt x="220" y="577" on="0"/>
        <pt x="189" y="553" on="0"/>
        <pt x="167" y="518" on="0"/>
        <pt x="163" y="497" on="1"/>
        <pt x="145" y="393" on="1"/>
        <pt x="160" y="401" on="0"/>
        <pt x="193" y="410" on="0"/>
        <pt x="224" y="414" on="0"/>
        <pt x="249" y="415" on="0"/>
        <pt x="255" y="415" on="1"/>
        <pt x="283" y="415" on="0"/>
        <pt x="329" y="392" on="0"/>
        <pt x="359" y="353" on="0"/>
        <pt x="371" y="301" on="0"/>
        <pt x="366" y="271" on="1"/>
        <pt x="342" y="133" on="1"/>
        <pt x="337" y="103" on="0"/>
        <pt x="306" y="52" on="0"/>
        <pt x="262" y="15" on="0"/>
        <pt x="208" y="-7" on="0"/>
        <pt x="180" y="-7" on="1"/>
      </contour>
    </TTGlyph>
    <TTGlyph name="slash" xMin="-3" yMin="1" xMax="291" yMax="694">
      <contour>
        <pt x="219" y="694" on="1"/>
        <pt x="291" y="694" on="1"/>
        <pt x="69" y="1" on="1"/>
        <pt x="-3" y="1" on="1"/>
      </contour>
    </TTGlyph>
    <TTGlyph name="sterling" xMin="34" yMin="0" xMax="497" yMax="703">
      <contour>
        <pt x="430" y="512" on="1"/>
        <pt x="437" y="552" on="0"/>
        <pt x="420" y="601" on="0"/>
        <pt x="387" y="628" on="0"/>
        <pt x="346" y="637" on="0"/>
        <pt x="329" y="637" on="1"/>
        <pt x="311" y="637" on="0"/>
        <pt x="268" y="627" on="0"/>
        <pt x="229" y="602" on="0"/>
        <pt x="198" y="556" on="0"/>
        <pt x="192" y="520" on="1"/>
        <pt x="168" y="385" on="1"/>
        <pt x="383" y="385" on="1"/>
        <pt x="371" y="314" on="1"/>
        <pt x="156" y="314" on="1"/>
        <pt x="112" y="66" on="1"/>
        <pt x="417" y="66" on="1"/>
        <pt x="406" y="0" on="1"/>
        <pt x="34" y="0" on="1"/>
        <pt x="89" y="314" on="1"/>
        <pt x="51" y="314" on="1"/>
        <pt x="63" y="385" on="1"/>
        <pt x="101" y="385" on="1"/>
        <pt x="125" y="518" on="1"/>
        <pt x="132" y="558" on="0"/>
        <pt x="170" y="626" on="0"/>
        <pt x="226" y="676" on="0"/>
        <pt x="299" y="703" on="0"/>
        <pt x="341" y="703" on="1"/>
        <pt x="382" y="703" on="0"/>
        <pt x="447" y="675" on="0"/>
        <pt x="489" y="624" on="0"/>
        <pt x="504" y="554" on="0"/>
        <pt x="497" y="512" on="1"/>
      </contour>
    </TTGlyph>
    <TTGlyph name="t" xMin="44" yMin="-1" xMax="292" yMax="695">
      <contour>
        <pt x="127" y="439" on="1"/>
        <pt x="44" y="439" on="1"/>
        <pt x="55" y="501" on="1"/>
        <pt x="138" y="501" on="1"/>
        <pt x="172" y="695" on="1"/>
        <pt x="237" y="695" on="1"/>
        <pt x="203" y="501" on="1"/>
        <pt x="292" y="501" on="1"/>
        <pt x="281" y="439" on="1"/>
        <pt x="192" y="439" on="1"/>
        <pt x="137" y="128" on="1"/>
        <pt x="131" y="92" on="0"/>
        <pt x="162" y="65" on="0"/>
        <pt x="187" y="65" on="1"/>
        <pt x="215" y="65" on="1"/>
        <pt x="203" y="-1" on="1"/>
        <pt x="170" y="-1" on="1"/>
        <pt x="144" y="-1" on="0"/>
        <pt x="103" y="14" on="0"/>
        <pt x="76" y="47" on="0"/>
        <pt x="67" y="97" on="0"/>
        <pt x="73" y="133" on="1"/>
      </contour>
    </TTGlyph>
    <TTGlyph name="thorn" xMin="-34" yMin="-243" xMax="377" yMax="694">
      <contour>
        <pt x="83" y="81" on="1"/>
        <pt x="85" y="79" on="0"/>
        <pt x="86" y="79" on="1"/>
        <pt x="86" y="75" on="1"/>
      </contour>
      <contour>
        <pt x="86" y="79" on="1"/>
        <pt x="109" y="65" on="0"/>
        <pt x="158" y="54" on="0"/>
        <pt x="187" y="54" on="1"/>
        <pt x="217" y="54" on="0"/>
        <pt x="268" y="99" on="0"/>
        <pt x="274" y="131" on="1"/>
        <pt x="315" y="368" on="1"/>
        <pt x="321" y="400" on="0"/>
        <pt x="286" y="446" on="0"/>
        <pt x="255" y="446" on="1"/>
        <pt x="234" y="446" on="0"/>
        <pt x="170" y="430" on="0"/>
        <pt x="146" y="415" on="1"/>
      </contour>
      <contour>
        <pt x="157" y="485" on="1"/>
        <pt x="197" y="503" on="0"/>
        <pt x="251" y="509" on="0"/>
        <pt x="266" y="509" on="1"/>
        <pt x="294" y="509" on="0"/>
        <pt x="340" y="486" on="0"/>
        <pt x="370" y="447" on="0"/>
        <pt x="382" y="395" on="0"/>
        <pt x="377" y="365" on="1"/>
        <pt x="336" y="135" on="1"/>
        <pt x="331" y="105" on="0"/>
        <pt x="300" y="53" on="0"/>
        <pt x="257" y="14" on="0"/>
        <pt x="203" y="-8" on="0"/>
        <pt x="175" y="-8" on="1"/>
        <pt x="155" y="-8" on="0"/>
        <pt x="102" y="0" on="0"/>
        <pt x="73" y="14" on="1"/>
        <pt x="28" y="-243" on="1"/>
        <pt x="-34" y="-243" on="1"/>
        <pt x="132" y="694" on="1"/>
        <pt x="194" y="694" on="1"/>
      </contour>
    </TTGlyph>
    <TTGlyph name="three" xMin="-1" yMin="-10" xMax="389" yMax="652">
      <contour>
        <pt x="99" y="605" on="1"/>
        <pt x="179" y="635" on="1"/>
        <pt x="179" y="634" on="1"/>
        <pt x="196" y="641" on="0"/>
        <pt x="246" y="652" on="0"/>
        <pt x="260" y="652" on="1"/>
        <pt x="296" y="651" on="0"/>
        <pt x="350" y="623" on="0"/>
        <pt x="383" y="574" on="0"/>
        <pt x="394" y="507" on="0"/>
        <pt x="387" y="468" on="1"/>
        <pt x="383" y="448" on="0"/>
        <pt x="372" y="413" on="0"/>
        <pt x="353" y="380" on="0"/>
        <pt x="324" y="350" on="0"/>
        <pt x="303" y="334" on="1"/>
        <pt x="321" y="317" on="0"/>
        <pt x="338" y="279" on="0"/>
        <pt x="342" y="239" on="0"/>
        <pt x="338" y="198" on="0"/>
        <pt x="335" y="178" on="1"/>
        <pt x="328" y="139" on="0"/>
        <pt x="291" y="71" on="0"/>
        <pt x="238" y="20" on="0"/>
        <pt x="172" y="-10" on="0"/>
        <pt x="137" y="-10" on="1"/>
        <pt x="121" y="-9" on="0"/>
        <pt x="81" y="-1" on="0"/>
        <pt x="67" y="5" on="1"/>
        <pt x="-1" y="33" on="1"/>
        <pt x="29" y="99" on="1"/>
        <pt x="109" y="62" on="1"/>
        <pt x="110" y="63" on="1"/>
        <pt x="119" y="59" on="0"/>
        <pt x="138" y="54" on="0"/>
        <pt x="146" y="54" on="1"/>
        <pt x="168" y="54" on="0"/>
        <pt x="210" y="75" on="0"/>
        <pt x="244" y="111" on="0"/>
        <pt x="268" y="157" on="0"/>
        <pt x="274" y="182" on="1"/>
        <pt x="278" y="206" on="0"/>
        <pt x="274" y="251" on="0"/>
        <pt x="256" y="285" on="0"/>
        <pt x="222" y="305" on="0"/>
        <pt x="195" y="305" on="1"/>
        <pt x="133" y="305" on="1"/>
        <pt x="144" y="367" on="1"/>
        <pt x="207" y="367" on="1"/>
        <pt x="261" y="367" on="0"/>
        <pt x="316" y="428" on="0"/>
        <pt x="326" y="477" on="1"/>
        <pt x="329" y="502" on="0"/>
        <pt x="317" y="542" on="0"/>
        <pt x="294" y="570" on="0"/>
        <pt x="263" y="586" on="0"/>
        <pt x="246" y="586" on="1"/>
        <pt x="236" y="586" on="0"/>
        <pt x="208" y="581" on="0"/>
        <pt x="198" y="577" on="1"/>
        <pt x="115" y="542" on="1"/>
      </contour>
    </TTGlyph>
    <TTGlyph name="tilde" xMin="204" yMin="589" xMax="502" yMax="651">
      <contour>
        <pt x="485" y="651" on="1"/>
        <pt x="502" y="589" on="1"/>
        <pt x="224" y="589" on="1"/>
        <pt x="204" y="651" on="1"/>
      </contour>
    </TTGlyph>
    <TTGlyph name="trademark" xMin="122" yMin="376" xMax="541" yMax="695">
      <contour>
        <pt x="381" y="695" on="1"/>
        <pt x="403" y="514" on="1"/>
        <pt x="423" y="558" on="0"/>
        <pt x="470" y="651" on="0"/>
        <pt x="490" y="695" on="1"/>
        <pt x="541" y="695" on="1"/>
        <pt x="485" y="376" on="1"/>
        <pt x="448" y="376" on="1"/>
        <pt x="488" y="606" on="1"/>
        <pt x="471" y="571" on="0"/>
        <pt x="434" y="499" on="0"/>
        <pt x="419" y="466" on="1"/>
        <pt x="371" y="466" on="1"/>
        <pt x="352" y="608" on="1"/>
        <pt x="311" y="376" on="1"/>
        <pt x="275" y="376" on="1"/>
        <pt x="331" y="695" on="1"/>
      </contour>
      <contour>
        <pt x="276" y="681" on="1"/>
        <pt x="274" y="671" on="1"/>
        <pt x="204" y="671" on="1"/>
        <pt x="154" y="390" on="1"/>
        <pt x="144" y="390" on="1"/>
        <pt x="194" y="671" on="1"/>
        <pt x="122" y="671" on="1"/>
        <pt x="124" y="681" on="1"/>
      </contour>
    </TTGlyph>
    <TTGlyph name="two" xMin="11" yMin="0" xMax="379" yMax="652">
      <contour>
        <pt x="267" y="367" on="1"/>
        <pt x="286" y="389" on="0"/>
        <pt x="306" y="434" on="0"/>
        <pt x="312" y="460" on="1"/>
        <pt x="315" y="485" on="0"/>
        <pt x="308" y="530" on="0"/>
        <pt x="288" y="564" on="0"/>
        <pt x="255" y="585" on="0"/>
        <pt x="233" y="585" on="1"/>
        <pt x="228" y="585" on="0"/>
        <pt x="215" y="582" on="0"/>
        <pt x="187" y="573" on="0"/>
        <pt x="140" y="556" on="0"/>
        <pt x="102" y="541" on="1"/>
        <pt x="86" y="604" on="1"/>
        <pt x="172" y="636" on="1"/>
        <pt x="188" y="643" on="0"/>
        <pt x="231" y="651" on="0"/>
        <pt x="246" y="652" on="1"/>
        <pt x="281" y="652" on="0"/>
        <pt x="336" y="622" on="0"/>
        <pt x="372" y="571" on="0"/>
        <pt x="385" y="502" on="0"/>
        <pt x="378" y="463" on="1"/>
        <pt x="372" y="428" on="0"/>
        <pt x="347" y="369" on="0"/>
        <pt x="319" y="338" on="1"/>
        <pt x="284" y="293" on="0"/>
        <pt x="207" y="197" on="0"/>
        <pt x="174" y="158" on="1"/>
        <pt x="135" y="111" on="0"/>
        <pt x="98" y="68" on="1"/>
        <pt x="306" y="68" on="1"/>
        <pt x="295" y="0" on="1"/>
        <pt x="11" y="0" on="1"/>
        <pt x="23" y="72" on="1"/>
      </contour>
    </TTGlyph>
    <TTGlyph name="u" xMin="30" yMin="-10" xMax="406" yMax="500">
      <contour>
        <pt x="36" y="76" on="1"/>
        <pt x="28" y="102" on="0"/>
        <pt x="32" y="152" on="0"/>
        <pt x="37" y="179" on="1"/>
        <pt x="94" y="500" on="1"/>
        <pt x="158" y="500" on="1"/>
        <pt x="96" y="149" on="1"/>
        <pt x="88" y="103" on="0"/>
        <pt x="129" y="54" on="0"/>
        <pt x="159" y="54" on="1"/>
        <pt x="188" y="54" on="0"/>
        <pt x="250" y="75" on="0"/>
        <pt x="270" y="86" on="1"/>
        <pt x="343" y="500" on="1"/>
        <pt x="406" y="500" on="1"/>
        <pt x="328" y="58" on="1"/>
        <pt x="349" y="35" on="1"/>
        <pt x="296" y="-10" on="1"/>
        <pt x="271" y="20" on="1"/>
        <pt x="241" y="6" on="0"/>
        <pt x="174" y="-8" on="0"/>
        <pt x="149" y="-8" on="1"/>
        <pt x="131" y="-8" on="0"/>
        <pt x="95" y="1" on="0"/>
        <pt x="65" y="21" on="0"/>
        <pt x="42" y="53" on="0"/>
      </contour>
    </TTGlyph>
    <TTGlyph name="uacute" xMin="30" yMin="-10" xMax="424" yMax="731">
      <component glyphName="u" x="0" y="0" flags="0x1204"/>
      <component glyphName="acute" x="-75" y="0" flags="0x1004"/>
    </TTGlyph>
    <TTGlyph name="ucircumflex" xMin="30" yMin="-10" xMax="407" yMax="744">
      <component glyphName="u" x="0" y="0" flags="0x1204"/>
      <component glyphName="circumflex" x="-32" y="0" flags="0x1004"/>
    </TTGlyph>
    <TTGlyph name="udieresis" xMin="30" yMin="-10" xMax="414" yMax="672">
      <component glyphName="u" x="0" y="0" flags="0x1204"/>
      <component glyphName="dieresis" x="-64" y="0" flags="0x1004"/>
    </TTGlyph>
    <TTGlyph name="ugrave" xMin="30" yMin="-10" xMax="406" yMax="730">
      <component glyphName="u" x="0" y="0" flags="0x1204"/>
      <component glyphName="grave" x="-68" y="0" flags="0x1004"/>
    </TTGlyph>
    <TTGlyph name="v" xMin="55" yMin="0" xMax="381" yMax="500">
      <contour>
        <pt x="317" y="500" on="1"/>
        <pt x="381" y="500" on="1"/>
        <pt x="180" y="0" on="1"/>
        <pt x="86" y="0" on="1"/>
        <pt x="55" y="500" on="1"/>
        <pt x="118" y="500" on="1"/>
        <pt x="127" y="361" on="0"/>
        <pt x="137" y="194" on="0"/>
        <pt x="140" y="150" on="1"/>
        <pt x="144" y="97" on="0"/>
        <pt x="145" y="77" on="1"/>
      </contour>
    </TTGlyph>
    <TTGlyph name="w" xMin="54" yMin="0" xMax="539" yMax="500">
      <contour>
        <pt x="347" y="499" on="1"/>
        <pt x="340" y="75" on="1"/>
        <pt x="476" y="500" on="1"/>
        <pt x="539" y="500" on="1"/>
        <pt x="371" y="0" on="1"/>
        <pt x="287" y="0" on="1"/>
        <pt x="285" y="421" on="1"/>
        <pt x="247" y="317" on="0"/>
        <pt x="174" y="103" on="0"/>
        <pt x="136" y="0" on="1"/>
        <pt x="54" y="0" on="1"/>
        <pt x="62" y="500" on="1"/>
        <pt x="124" y="500" on="1"/>
        <pt x="106" y="75" on="1"/>
        <pt x="251" y="499" on="1"/>
      </contour>
    </TTGlyph>
    <TTGlyph name="x" xMin="-29" yMin="0" xMax="373" yMax="500">
      <contour>
        <pt x="163" y="214" on="1"/>
        <pt x="34" y="0" on="1"/>
        <pt x="-29" y="0" on="1"/>
        <pt x="120" y="249" on="1"/>
        <pt x="59" y="500" on="1"/>
        <pt x="122" y="500" on="1"/>
        <pt x="179" y="286" on="1"/>
        <pt x="211" y="339" on="0"/>
        <pt x="276" y="447" on="0"/>
        <pt x="308" y="500" on="1"/>
        <pt x="373" y="500" on="1"/>
        <pt x="226" y="249" on="1"/>
        <pt x="241" y="189" on="0"/>
        <pt x="273" y="61" on="0"/>
        <pt x="288" y="1" on="1"/>
        <pt x="223" y="1" on="1"/>
        <pt x="167" y="214" on="1"/>
      </contour>
    </TTGlyph>
    <TTGlyph name="y" xMin="22" yMin="-243" xMax="396" yMax="500">
      <contour>
        <pt x="22" y="-243" on="1"/>
        <pt x="105" y="0" on="1"/>
        <pt x="100" y="0" on="1"/>
        <pt x="56" y="500" on="1"/>
        <pt x="120" y="500" on="1"/>
        <pt x="127" y="393" on="0"/>
        <pt x="139" y="244" on="0"/>
        <pt x="144" y="196" on="1"/>
        <pt x="149" y="141" on="0"/>
        <pt x="154" y="105" on="1"/>
        <pt x="155" y="105" on="1"/>
        <pt x="158" y="111" on="0"/>
        <pt x="179" y="163" on="0"/>
        <pt x="221" y="259" on="0"/>
        <pt x="286" y="402" on="0"/>
        <pt x="331" y="500" on="1"/>
        <pt x="396" y="500" on="1"/>
        <pt x="174" y="0" on="1"/>
        <pt x="168" y="0" on="1"/>
        <pt x="148" y="-60" on="0"/>
        <pt x="105" y="-183" on="0"/>
        <pt x="86" y="-243" on="1"/>
      </contour>
    </TTGlyph>
    <TTGlyph name="yacute" xMin="22" yMin="-243" xMax="401" yMax="731">
      <component glyphName="y" x="0" y="0" flags="0x1204"/>
      <component glyphName="acute" x="-98" y="0" flags="0x1004"/>
    </TTGlyph>
    <TTGlyph name="ydieresis" xMin="22" yMin="-243" xMax="396" yMax="672">
      <component glyphName="y" x="0" y="0" flags="0x1204"/>
      <component glyphName="dieresis" x="-90" y="0" flags="0x1004"/>
    </TTGlyph>
    <TTGlyph name="yen" xMin="49" yMin="1" xMax="520" yMax="696">
      <contour>
        <pt x="258" y="171" on="1"/>
        <pt x="228" y="1" on="1"/>
        <pt x="156" y="1" on="1"/>
        <pt x="186" y="171" on="1"/>
        <pt x="49" y="171" on="1"/>
        <pt x="62" y="247" on="1"/>
        <pt x="199" y="247" on="1"/>
        <pt x="210" y="310" on="1"/>
        <pt x="202" y="310" on="1"/>
        <pt x="188" y="361" on="1"/>
        <pt x="82" y="361" on="1"/>
        <pt x="96" y="437" on="1"/>
        <pt x="171" y="437" on="1"/>
        <pt x="155" y="499" on="0"/>
        <pt x="124" y="634" on="0"/>
        <pt x="109" y="696" on="1"/>
        <pt x="177" y="696" on="1"/>
        <pt x="255" y="382" on="1"/>
        <pt x="263" y="382" on="1"/>
        <pt x="452" y="696" on="1"/>
        <pt x="520" y="696" on="1"/>
        <pt x="368" y="437" on="1"/>
        <pt x="443" y="437" on="1"/>
        <pt x="429" y="361" on="1"/>
        <pt x="322" y="361" on="1"/>
        <pt x="293" y="310" on="1"/>
        <pt x="282" y="310" on="1"/>
        <pt x="271" y="247" on="1"/>
        <pt x="409" y="247" on="1"/>
        <pt x="396" y="171" on="1"/>
      </contour>
    </TTGlyph>
    <TTGlyph name="z" xMin="-17" yMin="0" xMax="398" yMax="498">
      <contour>
        <pt x="328" y="0" on="1"/>
        <pt x="-17" y="0" on="1"/>
        <pt x="-7" y="60" on="1"/>
        <pt x="303" y="425" on="1"/>
        <pt x="305" y="435" on="1"/>
        <pt x="67" y="435" on="1"/>
        <pt x="78" y="498" on="1"/>
        <pt x="398" y="498" on="1"/>
        <pt x="388" y="438" on="1"/>
        <pt x="77" y="71" on="1"/>
        <pt x="76" y="63" on="1"/>
        <pt x="339" y="63" on="1"/>
      </contour>
    </TTGlyph>
    <TTGlyph name="zcaron" xMin="-17" yMin="0" xMax="425" yMax="743">
      <component glyphName="z" x="0" y="0" flags="0x1204"/>
      <component glyphName="caron" x="-39" y="0" flags="0x1004"/>
    </TTGlyph>
    <TTGlyph name="zero" xMin="38" yMin="-9" xMax="409" yMax="651">
      <contour>
        <pt x="191" y="56" on="1"/>
        <pt x="206" y="56" on="0"/>
        <pt x="235" y="68" on="0"/>
        <pt x="259" y="89" on="0"/>
        <pt x="275" y="118" on="0"/>
        <pt x="278" y="134" on="1"/>
        <pt x="345" y="511" on="1"/>
        <pt x="351" y="546" on="0"/>
        <pt x="307" y="585" on="0"/>
        <pt x="275" y="585" on="1"/>
        <pt x="237" y="585" on="0"/>
        <pt x="175" y="553" on="0"/>
        <pt x="168" y="511" on="1"/>
        <pt x="101" y="134" on="1"/>
        <pt x="96" y="102" on="0"/>
        <pt x="129" y="56" on="0"/>
        <pt x="160" y="56" on="1"/>
      </contour>
      <contour>
        <pt x="342" y="131" on="1"/>
        <pt x="337" y="101" on="0"/>
        <pt x="306" y="50" on="0"/>
        <pt x="262" y="13" on="0"/>
        <pt x="208" y="-9" on="0"/>
        <pt x="180" y="-9" on="1"/>
        <pt x="148" y="-9" on="1"/>
        <pt x="119" y="-9" on="0"/>
        <pt x="74" y="13" on="0"/>
        <pt x="44" y="50" on="0"/>
        <pt x="33" y="101" on="0"/>
        <pt x="38" y="131" on="1"/>
        <pt x="105" y="511" on="1"/>
        <pt x="110" y="541" on="0"/>
        <pt x="140" y="592" on="0"/>
        <pt x="183" y="629" on="0"/>
        <pt x="236" y="651" on="0"/>
        <pt x="265" y="651" on="1"/>
        <pt x="297" y="651" on="1"/>
        <pt x="325" y="651" on="0"/>
        <pt x="371" y="629" on="0"/>
        <pt x="402" y="592" on="0"/>
        <pt x="414" y="541" on="0"/>
        <pt x="409" y="511" on="1"/>
      </contour>
    </TTGlyph>
</ttFont>
